<svg id="carriage" data-name="carriage" xmlns="http://www.w3.org/2000/svg" viewBox="0 0 536 88"><defs><style>.bg{fill:#e8e7e7;}.empty{fill:none;}</style></defs><title>Carriage</title><path class="bg" d="M534.63,85q0-41.16,0-82.32c0-1.61,0-1.62-1.62-1.62H2.66A11.56,11.56,0,0,0,1,1.31V86.75A2.92,2.92,0,0,0,1.7,87c.4,0,.8,0,1.2,0H532.65C534.91,87,534.63,87.26,534.63,85Z"/><path class="empty" d="M251.37,80.48c6.11.09,12.23,0,18.43,0V18.11H252.58c-3.89,0-5.74,1.84-5.74,5.71v51c0,.36,0,.72,0,1.08A4.7,4.7,0,0,0,251.37,80.48Zm-1.86-53.59a4.58,4.58,0,0,1,4.6-4.48c3,.12,6,0,9,0,2.65,0,4.13,1.5,4.13,4.1V39.38q0,6.6,0,13.19A3.88,3.88,0,0,1,264,56q-5.39.06-10.79,0a4.07,4.07,0,0,1-3.64-4.17Q249.47,39.36,249.52,26.89Z"/><path class="empty" d="M55.89,82.95c5.31-.07,10.62,0,15.93,0,.22,0,.44,0,.67-.06C72.1,81,72.1,81,70.34,81H53.51C54.39,81.87,54.54,83,55.89,82.95Z"/><path class="empty" d="M44.83,81h-6c-1.73,0-1.73,0-2,1.87H47C46.65,81,46.65,81,44.83,81Z"/><path class="empty" d="M61.25,10.61c-1-1.74-2.26-1.82-4-1.5v8.43H65.8C64.21,15.15,62.56,13,61.25,10.61Z"/><path class="empty" d="M69.34,22.93c-3,0-6,0-9,0a4.1,4.1,0,0,0-4,3.93c-.05,8.27-.09,16.55,0,24.83,0,2.1,1,3.72,3.44,3.84,3.31.17,6.64.15,10,0A3.38,3.38,0,0,0,73,51.83q0-6.24,0-12.47t0-12.59A3.46,3.46,0,0,0,69.34,22.93Z"/><path class="empty" d="M76.4,75.17q0-24.17,0-48.35c0-1.28,0-2.56,0-3.84a4.7,4.7,0,0,0-4.53-4.83c-6.19-.1-12.39,0-18.66,0V80.49H70.43a11.18,11.18,0,0,0,1.79-.05C74.9,80,76.4,78.1,76.4,75.17ZM73.52,52.09A3.82,3.82,0,0,1,69.68,56c-3.4,0-6.79,0-10.19,0a4,4,0,0,1-3.69-4.1q-.06-12.65,0-25.3A4.24,4.24,0,0,1,60,22.45q4.8,0,9.59,0a3.69,3.69,0,0,1,3.9,4q0,6.42,0,12.83Z"/><path class="empty" d="M13.55,83c7-.07,14-.08,21,0,1.41,0,2-.45,2-1.95-2.35-.08-4.78.36-6.68-1.58S28.51,75,28.38,72.48l-17.14,8.6C11.42,82.64,12.22,83,13.55,83Z"/><path class="empty" d="M48.18,23.89A6.83,6.83,0,0,0,45.31,23c-2.75-.12-5.51-.06-8.27,0s-4.46,1.6-4.47,4.45c0,2.4,0,4.8,0,7.19,0,5.6,0,11.19,0,16.79,0,1.89,1.16,4.11,3.59,4.18,3.39.09,6.79.07,10.19,0a3.41,3.41,0,0,0,3-3.27V39.3c0-4.4,0-8.79,0-13.19A2.36,2.36,0,0,0,48.18,23.89Z"/><path class="empty" d="M52.38,80.52V18.11H34.32c-3.48,0-5.44,2-5.44,5.41q0,25.8,0,51.59c0,3.46,2,5.4,5.44,5.41H52.38ZM49.75,39.38q0,6.6,0,13.19A3.88,3.88,0,0,1,46.47,56q-5.4.06-10.79,0A4.07,4.07,0,0,1,32,51.83q0-12.47,0-24.94a4.58,4.58,0,0,1,4.6-4.47c3,.12,6,0,9,0,2.65,0,4.13,1.5,4.13,4.1Z"/><path class="empty" d="M56.55,9c-.94,0-1.85.07-2.76,0a2.62,2.62,0,0,0-2.29,1c-2.22,2.3-4.51,4.54-6.77,6.8-.23.23-.43.5-.7.82H56.55Z"/><path class="empty" d="M120.33,9.09l1.87,7.3,3.88-5.3C124.69,8.68,122.58,8.83,120.33,9.09Z"/><path class="empty" d="M277.27,55.5c3.31.16,6.64.15,10,0a3.37,3.37,0,0,0,3.3-3.69q0-6.24,0-12.47t0-12.59a3.46,3.46,0,0,0-3.71-3.83c-3,0-6,0-9,0a4.1,4.1,0,0,0-4,3.93c0,8.28-.09,16.55,0,24.83C273.86,53.76,274.83,55.38,277.27,55.5Z"/><path class="empty" d="M380.33,55.82h33.35a4.77,4.77,0,0,0,5.09-5.1q0-11.57,0-23.15a4.81,4.81,0,0,0-5.17-5.15H380.25A4.84,4.84,0,0,0,375,27.65q0,11.46,0,22.91C375,53.88,377,55.82,380.33,55.82Z"/><path class="empty" d="M323.05,55.81h32.86c3.48,0,5.42-1.94,5.42-5.42q0-11.27,0-22.55c0-3.47-1.95-5.41-5.42-5.42H323c-3.47,0-5.42,1.94-5.42,5.42q0,11.27,0,22.55C317.63,53.86,319.57,55.8,323.05,55.81Z"/><path class="empty" d="M288.62,80.52c3.89,0,5.75-1.84,5.75-5.7q0-25.49,0-51c0-.36,0-.72,0-1.08a4.7,4.7,0,0,0-4.52-4.59c-6.35-.09-12.71,0-19.15,0V80.52h17.94ZM273.28,26.65a4.25,4.25,0,0,1,4.31-4.2q4.74,0,9.47,0A3.69,3.69,0,0,1,291,26.39q0,6.41,0,12.83V52.05a3.82,3.82,0,0,1-3.8,4c-3.44.06-6.87,0-10.31,0-1.91,0-3.6-2-3.61-4.17Q273.23,39.24,273.28,26.65Z"/><path class="empty" d="M253.45,55.48c3.47.15,7,.11,10.42,0a3.37,3.37,0,0,0,2.89-3.33q0-6.41,0-12.83t0-12.59c0-2.44-1.31-3.81-3.8-3.84q-4.38-.05-8.75,0a3.9,3.9,0,0,0-4.14,4q-.07,12.41,0,24.82A3.52,3.52,0,0,0,253.45,55.48Z"/><path class="empty" d="M11.18,80.36a3.81,3.81,0,0,0,.54-.14c5.33-2.67,10.66-5.32,16-8a1.57,1.57,0,0,0,.7-1.16q.07-9.12,0-18.24a2.22,2.22,0,0,0-.53-1.36q-2.53-2.8-5.17-5.51c-1.08-1.11-2.23-2.14-3.44-3.3Z"/><path class="empty" d="M75.28,9.23l4.43,1.38,1-1.59H75.32Z"/><path class="empty" d="M87.61,9c-1.7,0-3.41.07-5.1,0-1.1-.06-1.57.43-1.86,1.51l7-1.28Z"/><path class="empty" d="M117.2,9.09,108.71,34.3a.61.61,0,0,0,.52-.23q6.06-8.26,12.09-16.54a1.78,1.78,0,0,0,.22-1.29c-.39-1.75-.86-3.48-1.31-5.22C119.65,8.79,119.64,8.79,117.2,9.09Z"/><path class="empty" d="M127.55,9H125l1.59,1.41Z"/><path class="empty" d="M48.21,82.84c1.92.18,3.86.08,5.89.08-.64-1.34-1.36-2.13-2.88-2a40.27,40.27,0,0,1-4.32,0C47.44,81.78,47.78,82.8,48.21,82.84Z"/><path class="empty" d="M533.39,13.29c-2.06-1.23-4.07-2.55-6.14-3.76a4.09,4.09,0,0,0-1.9-.52c-2.6-.06-5.2,0-7.8,0A1.42,1.42,0,0,0,516,9.9c-1.58,3.36-3.24,6.69-4.85,10a2.21,2.21,0,0,0-.32,1c.1,1.5.27,3,.42,4.67l22.9-4.68c0-2.14,0-4.17,0-6.21A1.42,1.42,0,0,0,533.39,13.29Z"/><path class="empty" d="M503.65,22.94c-3-.05-6.08,0-9.11,0a4.11,4.11,0,0,0-4,4c0,8.24-.08,16.47,0,24.71,0,2.1,1,3.78,3.38,3.9,3.35.16,6.72.18,10.06,0,2.1-.09,3.26-1.63,3.26-3.73q0-6.24,0-12.47t0-12.59A3.44,3.44,0,0,0,503.65,22.94Z"/><path class="empty" d="M505.21,81H491.56c-1.76,0-1.79,0-2.28,1.83h20.15c-.69-1.37-1.34-2.6-3.15-1.86A3,3,0,0,1,505.21,81Z"/><path class="empty" d="M510.64,75.11q0-25.79,0-51.59c0-3.46-2-5.41-5.44-5.41H487.38V80.52H505.2C508.68,80.52,510.64,78.57,510.64,75.11Zm-2.89-35.85V52A3.88,3.88,0,0,1,503.68,56c-3.12,0-6.24-.09-9.35,0A4.16,4.16,0,0,1,490,51.92q-.09-12.65,0-25.3a4.24,4.24,0,0,1,4.34-4.17q4.68,0,9.35,0a3.72,3.72,0,0,1,4,4.1Z"/><path class="empty" d="M527.54,50.78C522.29,53.4,517,56,511.8,58.69a1.58,1.58,0,0,0-.66,1.18c-.06,2.88,0,5.75-.05,8.63a1.36,1.36,0,0,0,1.11,1.6c5.39,1.77,10.75,3.61,16.12,5.42l5.84,1.95c0-4.85,0-9.52,0-14.2a1.62,1.62,0,0,0-.16-.69c-2-4-3.95-7.93-5.95-11.94A3.46,3.46,0,0,0,527.54,50.78Z"/><path class="empty" d="M533.91,61.07l.18,0V51.23l-5.47-.74Z"/><path class="empty" d="M511.68,50.85q11-11,22-22.09a1.52,1.52,0,0,0,.48-.9c0-2.07,0-4.15,0-6.27-.33,0-.56,0-.79.09-7.15,1.46-14.3,2.93-21.46,4.37-.76.15-.8.56-.8,1.17q0,8.69,0,17.38V51.3C511.44,51,511.57,51,511.68,50.85Z"/><path class="empty" d="M86,42.4q-3.1-15.14-6.21-30.28c-.08-.38-.32-.95-.6-1-2.9-.81-5.64-2.24-8.79-2.12s-6.21,0-9.55,0c1.94,2.91,3.73,5.63,5.57,8.32a1.33,1.33,0,0,0,.95.32c1.4,0,2.8,0,4.2,0A5.19,5.19,0,0,1,76.87,23c0,3,0,5.92,0,8.88a4.59,4.59,0,0,0,.68,2.2c1.3,2.11,2.72,4.14,4.09,6.21l5,7.44a2.36,2.36,0,0,1,.38-.13Z"/><path class="empty" d="M534.06,50.66V38.85l-5.53,11.07Z"/><path class="empty" d="M76.32,82.69l-3.38-1.11C73.22,83.06,73.22,83.06,76.32,82.69Z"/><path class="empty" d="M89.3,47.22q10-14.95,20-29.92L114.8,9c-5.5,0-10.73,0-16,0a45.21,45.21,0,0,0-10.37.72c-2.67.61-5.38,1-8.11,1.53,0,.37.06.61.11.84Q84,29.51,87.6,46.94a2.82,2.82,0,0,0,.22.61,2.35,2.35,0,0,1,.91.26A3,3,0,0,0,89.3,47.22Z"/><path class="empty" d="M1.56,69.74l.21.08L18.58,42.1l-17,.65Z"/><path class="empty" d="M96.67,82.91c-.2-.54-.32-.92-.46-1.28-2.48-6.05-4.94-12.11-7.46-18.15A1.56,1.56,0,0,1,89,61.66c.92-1.15,1.72-2.41,2.65-3.55a1.21,1.21,0,0,0,.08-1.76c-.88-1.18-1.66-2.45-2.49-3.67a2.65,2.65,0,0,0-.55-.61,2.36,2.36,0,0,1-1,.24,2.39,2.39,0,0,1-.46,0,3,3,0,0,0-.4.6c-3,5.92-5.95,11.86-9,17.76a7.2,7.2,0,0,0-.95,4c.25,3-.9,5.18-4.08,6.33,2.31.71,4.35,1.79,6.43,1.88C85,83.08,90.72,82.91,96.67,82.91Z"/><path class="empty" d="M1.59,42.15,18.5,41.5,1.59,22Z"/><path class="empty" d="M28.36,51.06V40.42L19.76,42Z"/><path class="empty" d="M20.7,41.12l7.59-1.39v-6.2Z"/><path class="empty" d="M85.63,51.19h0c-2.66.85-5.29,1.78-8,2.61-.7.22-.8.59-.8,1.22,0,5,0,9.9,0,14.85V71a2.77,2.77,0,0,0,.35-.39q4.64-9.19,9.26-18.39a1,1,0,0,0,.06-.16A2.38,2.38,0,0,1,85.63,51.19Z"/><path class="empty" d="M86.15,48.07l-9-13.54c-.25,3.2-.26,6.3-.23,9.4a1.1,1.1,0,0,0,.52.79c2.71,1.35,5.44,2.67,8.17,4A2.38,2.38,0,0,1,86.15,48.07Z"/><path class="empty" d="M90.72,49.86c1.92.08,3.84,0,5.76.1a1.85,1.85,0,0,0,1.77-.89c2.74-3.79,5.53-7.54,8.27-11.33a9.08,9.08,0,0,0,1.22-2.31c1.78-5.17,3.52-10.36,5.26-15.55q1.81-5.38,3.61-10.76l-.31-.31a5,5,0,0,0-1.18.94Q102.35,28.84,89.65,48a1.56,1.56,0,0,0-.18.45A2.36,2.36,0,0,1,90,49.69,2.07,2.07,0,0,0,90.72,49.86Z"/><path class="empty" d="M85.36,49.26c-2.76-1.36-5.53-2.69-8.41-4.09v8.26c2.88-1,5.65-1.88,8.42-2.83a2.15,2.15,0,0,1,0-1.34Z"/><path class="empty" d="M89.3,51.63a1.15,1.15,0,0,0,.09.2c1,1.63,2.09,3.18,3.23,4.89l4.57-6.23c-2.53,0-4.79,0-7.05,0l-.21,0A2.38,2.38,0,0,1,89.3,51.63Z"/><path class="empty" d="M479.21,82.92c2.51,0,5-.09,7.53,0a2,2,0,0,0,2.43-1.9h-12C477.52,82.92,477.52,82.92,479.21,82.92Z"/><path class="empty" d="M486.58,80.52V18.11h-18c-3.48,0-5.45,1.95-5.45,5.4q0,25.79,0,51.59c0,3.46,2,5.41,5.43,5.42h18ZM484,39.36q0,6.59,0,13.19A3.87,3.87,0,0,1,480.73,56c-3.64,0-7.28,0-10.91,0-1.88,0-3.54-2.05-3.54-4.27q0-12.41,0-24.82a4.59,4.59,0,0,1,4.58-4.49c3,.11,6.07,0,9.11,0a3.73,3.73,0,0,1,4,4.08Z"/><path class="empty" d="M534.07,13.06v-4h-6.45Z"/><path class="empty" d="M488.17,9.07c3.25,2.88,6.31,5.6,9.41,8.29a2.06,2.06,0,0,0,1.23.27c2.36,0,4.72,0,7.08,0a5.24,5.24,0,0,1,3.68,1.49c.3.28.57.59.92,1l5.37-11Z"/><path class="empty" d="M479.74,22.93q-4.38-.06-8.75,0a3.9,3.9,0,0,0-4.17,4q-.07,12.41,0,24.82a3.56,3.56,0,0,0,3.48,3.75c3.43.14,6.87.1,10.31,0a3.39,3.39,0,0,0,2.91-3.31q0-6.47,0-12.95,0-6.23,0-12.47C483.52,24.34,482.21,23,479.74,22.93Z"/><path class="empty" d="M450.78,9c-1.68,0-3.36.07-5,0-1.1-.07-1.61.41-1.89,1.51l6.95-1.27Z"/><path class="empty" d="M482.16,9c-.62,0-1.65.07-1.78.39-1,2.66-1.9,5.39-2.84,8.18h7.56c-.71-2.78-1.38-5.48-2.12-8.16C482.93,9.22,482.44,9,482.16,9Z"/><path class="empty" d="M476.76,82.94l.25-.27c-.32-.55-.57-1.51-1-1.58A23.74,23.74,0,0,0,472.2,81C473,83.84,475.14,82.66,476.76,82.94Z"/><path class="empty" d="M496.68,17.55a2.39,2.39,0,0,0-.26-.37q-4.39-3.9-8.79-7.78a1.67,1.67,0,0,0-.95-.39c-1,0-2,0-3.18,0l2.18,8.56Z"/><path class="empty" d="M478.37,9.68c-1.61,2.34-3.17,4.71-4.74,7.08a9.35,9.35,0,0,0-.44.83H477l2.84-8.4-.28-.36A4.48,4.48,0,0,0,478.37,9.68Z"/><rect class="empty" x="1.57" y="1.61" width="532.5" height="6.82"/><path class="empty" d="M530.6,82.73v.11h3.5c0-.15,0-.29,0-.44Z"/><path class="empty" d="M533.06,77.69c-4.67-1.52-9.32-3.11-14-4.68l-8-2.69c0,1.47-.06,2.78,0,4.08.15,2.43-.4,4.53-2.62,5.94.53.75,1,1.46,1.52,2.09a1.44,1.44,0,0,0,1,.47c5.87-.09,11.75.37,17.6-.49,1.83-.27,3.68-.44,5.56-.66,0-.93-.06-1.7,0-2.45C534.27,78.4,534,78,533.06,77.69Z"/><path class="empty" d="M45.51,9.26,45.45,9c-2.62,0-5.24,0-7.86,0a2.65,2.65,0,0,0-1.64.7c-2.45,2.4-4.84,4.86-7.24,7.31a5.37,5.37,0,0,0-.37.44,2.4,2.4,0,0,1,.17.21Z"/><path class="empty" d="M533.6,29.72q-11,11-22,22.09a1.67,1.67,0,0,0-.47,1c0,1.75,0,3.51,0,5.38a4.58,4.58,0,0,0,.51-.16c5.22-2.61,10.44-5.2,15.63-7.85a2.58,2.58,0,0,0,1-1.1c1.57-3.05,2.92-6.23,4.67-9.17,2-3.39.85-7,1.28-10.68C533.84,29.54,533.71,29.62,533.6,29.72Z"/><rect class="empty" x="1.57" y="83.45" width="532.5" height="2.98"/><path class="empty" d="M26.54,16.63a2.37,2.37,0,0,1,1.35.42l0,0c1.41-1.42,2.83-2.83,4.22-4.26,1.16-1.18,2.29-2.38,3.58-3.73H1.6c-.18,1.95-.19,2,1.51,2.49C10,13.7,16.81,15.88,23.68,18a1.82,1.82,0,0,0,.67.06A2.38,2.38,0,0,1,26.54,16.63Z"/><path class="empty" d="M26.54,21.4a2.37,2.37,0,0,1-.57-.08,2.44,2.44,0,0,0-.28.63q-2,6.35-4,12.69c-.58,1.86-1.16,3.71-1.78,5.7a2,2,0,0,0,.43-.21c2.55-2.54,5.1-5.07,7.61-7.65a2,2,0,0,0,.42-1.28c0-2.6,0-5.2,0-7.8,0-3.62,2.12-5.75,5.7-5.76,2.6,0,5.2,0,7.79,0a2.18,2.18,0,0,0,1.38-.47C45.89,14.62,48.44,12,51,9.45a3.74,3.74,0,0,0,.35-.65c-1.73.2-3.38,0-4.67.61-6,2.78-11.85,5.77-17.74,8.74a.8.8,0,0,0-.15.12,2.36,2.36,0,0,1,.13.74A2.39,2.39,0,0,1,26.54,21.4Z"/><path class="empty" d="M9.19,81.29l-1.67,0H1.58v1.6h9.57C10.67,81.3,10.67,81.3,9.19,81.29Z"/><path class="empty" d="M2.18,21.68q8,9.29,16,18.52a10.69,10.69,0,0,1,.72,1.12c.27-.71.39-1,.48-1.29L25,22a2.5,2.5,0,0,0,.09-1,2.38,2.38,0,0,1-1-1.91h0a2.37,2.37,0,0,0-.88-.52L4.66,12.61c-1-.32-2-.6-3.14-.93,0,2.88,0,5.6,0,8.31A2.91,2.91,0,0,0,2.18,21.68Z"/><path class="empty" d="M9.44,80.69c.79,0,1.08-.24,1.24-1,1.79-8.52,3.62-17,5.44-25.54q1-4.73,2-9.47L18,44.57a5.46,5.46,0,0,0-.41.53Q9.79,57.91,2,70.72a2.44,2.44,0,0,0-.48,1.07c0,2.9,0,5.8,0,8.88C4.25,80.67,6.85,80.65,9.44,80.69Z"/><path class="empty" d="M126.93,55.81h16.43v0c5.52,0,11,0,16.55,0,3.34,0,5.29-2,5.29-5.32q0-11.39,0-22.79c0-3.31-2-5.28-5.32-5.28l-32.74-.07c-3.88,0-5.72,1.84-5.71,5.73q0,11.15.07,22.3C121.52,53.86,123.45,55.8,126.93,55.81Z"/><path class="empty" d="M462.56,49.87V33.38l-3.2,4.78L452.77,48a1.81,1.81,0,0,0-.11.2,2.38,2.38,0,0,1,.68,1.61C456.4,49.9,459.46,49.87,462.56,49.87Z"/><path class="empty" d="M452.3,47.5q5-7.36,9.85-14.75a3.26,3.26,0,0,0,.47-1.66c0-2.76,0-5.52,0-8.27a5.18,5.18,0,0,1,5.19-5.17c1.16,0,2.33.07,3.47,0a2.16,2.16,0,0,0,1.41-.77c1.59-2.25,3.09-4.57,4.61-6.86.18-.27.32-.58.56-1-11.58.26-23.06-1.07-34.29,2.48a5.89,5.89,0,0,0,.07.77q3.57,17.48,7.17,35a1.62,1.62,0,0,0,.12.34,2.36,2.36,0,0,1,1.06.26A1.49,1.49,0,0,0,452.3,47.5Z"/><path class="empty" d="M449.38,48.15c-.07-.12-.14-.24-.21-.35l-8.91-13.37Q432.08,22.16,423.89,9.9A2.08,2.08,0,0,0,422.76,9a12.79,12.79,0,0,0-2.4,0c0,4.26,0,8.33,0,12.4a2.24,2.24,0,0,0,.51,1.17q6.85,9.39,13.76,18.74a4.46,4.46,0,0,0,1.54,1.27c2.89,1.46,5.8,2.86,8.71,4.27,1.33.65,2.67,1.28,4,1.91A2.38,2.38,0,0,1,449.38,48.15Z"/><path class="empty" d="M452.63,51.62a1.7,1.7,0,0,0,.23.62c3,4.61,6.1,9.19,9.16,13.78a8,8,0,0,0,.56.66V50.48c-3,0-5.87,0-8.78,0a1.76,1.76,0,0,0-.56.12A2.38,2.38,0,0,1,452.63,51.62Z"/><path class="empty" d="M449.23,42.74Q446.1,27.43,443,12.13c-.08-.38-.31-.94-.59-1-2.27-.75-4.54-1.8-6.87-2-3.68-.33-7.42-.07-11.14-.05,0,0-.09.11-.18.22l25.7,38.55a2.35,2.35,0,0,1,.36-.15C449.9,46,449.56,44.38,449.23,42.74Z"/><path class="empty" d="M99,83c90.43,0,79.86,0,170.3,0H439.35a7.48,7.48,0,0,1,1,0c.7.09,1-.18,1.32-.86q3.75-9.26,7.59-18.48a1.72,1.72,0,0,0-.28-1.94c-1.29-1.68-2.53-3.39-3.79-5.1q-17-23.18-34-46.38A2.65,2.65,0,0,0,408.73,9C248.42,9,290.11,9,129.81,9a2.16,2.16,0,0,0-.71,0c-.44.17-1,.29-1.27.64q-19.13,26-38.21,52a1.75,1.75,0,0,0-.26,1.95c2.45,5.89,4.89,11.79,7.24,17.72A2.15,2.15,0,0,0,99,83ZM374.54,27.5A5.17,5.17,0,0,1,380,21.93c5.64,0,11.27,0,16.91,0h16.55c3.65,0,5.83,2.17,5.83,5.8q0,11.39,0,22.79c0,3.62-2.18,5.83-5.82,5.83-11,0-22.07,0-33.1,0a5.66,5.66,0,0,1-5.93-6C374.65,42.77,374.53,35.13,374.54,27.5Zm-57.4.21c0-3.69,2.1-5.77,5.8-5.77H356c3.69,0,5.77,2.09,5.78,5.79q0,11.4,0,22.79c0,3.69-2.09,5.77-5.8,5.77H322.92c-3.69,0-5.77-2.1-5.78-5.79Q317.13,39.1,317.14,27.71ZM246.36,49.26q0-13,0-25.91c0-3.59,2.14-5.7,5.76-5.7h37c3.67,0,5.76,2.11,5.76,5.82q0,25.85,0,51.71c0,3.71-2.09,5.82-5.76,5.82h-37c-3.67,0-5.76-2.11-5.76-5.82Q246.36,62.21,246.36,49.26ZM178.42,27.56c0-3.48,2.13-5.62,5.58-5.63h33.47c3.48,0,5.62,2.13,5.63,5.58q0,11.58,0,23.15c0,3.52-2.14,5.63-5.7,5.63H184.17c-3.63,0-5.75-2.1-5.75-5.7Q178.41,39.08,178.42,27.56Zm-54.82-5a7.5,7.5,0,0,1,3.18-.77c4.32-.08,8.64-.05,13,0,6.59,0,13.18.1,19.78.14,4.24,0,6.18,2,6.18,6.25q0,11.16,0,22.31c0,3.63-1.87,5.73-5.52,5.81-5.63.12-11.27,0-16.91,0v0H126.84c-3.72,0-5.8-2.07-5.82-5.75,0-7.59-.11-15.18-.15-22.77C120.85,25.56,121.56,23.63,123.61,22.58Z"/><path class="empty" d="M419.73,20.53V9.14c-2.85-.66-5.18,0-6.68,2.73l6.4,8.73Z"/><path class="empty" d="M448.65,49.38a1.19,1.19,0,0,0-.27-.19c-3.58-1.77-7.17-3.5-10.77-5.24-.34-.16-.7-.3-1.15-.49,0,.25,0,.38.09.46,2,2.71,3.94,5.43,6,8.11a1.25,1.25,0,0,0,1.09.23c1.57-.46,3.12-1,4.66-1.53a1.58,1.58,0,0,0,.39-.22,2.19,2.19,0,0,1,0-1.11Z"/><path class="empty" d="M469.56,81a9.11,9.11,0,0,1-1.68,0,5.19,5.19,0,0,1-5.23-5.26c0-2.28,0-4.56,0-6.84a3,3,0,0,0-.45-1.55q-4.88-7.41-9.83-14.78a2.18,2.18,0,0,0-.42-.47,2.3,2.3,0,0,1-1.51.12,2.42,2.42,0,0,0-.38.54c-.35.68-.69,1.35-1,2-.58,1.18-1.68,2.42-1.58,3.54s1.34,2.27,2.17,3.34a1.58,1.58,0,0,1,.2,1.83c-2.49,6-4.94,12-7.4,18-.16.39-.31.79-.49,1.27H472.4C471.88,81.42,471,80.71,469.56,81Z"/><path class="empty" d="M438.46,9.22l4.45,1.38,1-1.57H438.5Z"/><path class="empty" d="M448.95,51.16h0c-1.85.58-3.69,1.2-5.66,1.86l3.58,4.89c1.06-2.1,2-4,2.94-5.86a.59.59,0,0,0,0-.09A2.38,2.38,0,0,1,448.95,51.16Z"/><path class="empty" d="M412.41,11l1.9-1.9H411Z"/><path class="empty" d="M184.33,55.81h32.86c3.48,0,5.42-1.94,5.42-5.42q0-11.27,0-22.54c0-3.47-1.95-5.41-5.42-5.42H184.33c-3.47,0-5.42,1.94-5.42,5.42q0,11.27,0,22.54C178.91,53.86,180.86,55.8,184.33,55.81Z"/><path class="fg" d="M534.63,2.7c0-1.61,0-1.62-1.62-1.62H2.66A11.56,11.56,0,0,0,1,1.31V86.75A2.92,2.92,0,0,0,1.7,87c.4,0,.8,0,1.2,0H532.65c2.25,0,2,.28,2-2Q534.64,43.85,534.63,2.7ZM511.11,27.23c0-.61,0-1,.8-1.17,7.16-1.43,14.31-2.91,21.46-4.37.23,0,.46-.05.79-.09,0,2.13,0,4.2,0,6.27a1.52,1.52,0,0,1-.48.9q-11,11.06-22,22.09c-.11.11-.24.19-.56.45V44.61Q511.12,35.92,511.11,27.23Zm23,23.43-5.53-.74,5.53-11.07Zm0,.57V61l-.18,0-5.29-10.58ZM534,62.57a1.62,1.62,0,0,1,.16.69c0,4.67,0,9.35,0,14.2l-5.84-1.95c-5.37-1.81-10.73-3.65-16.12-5.42a1.36,1.36,0,0,1-1.11-1.6c.06-2.88,0-5.75.05-8.63a1.58,1.58,0,0,1,.66-1.18C517,56,522.29,53.4,527.54,50.78a3.46,3.46,0,0,1,.51-.14C530,54.65,532,58.61,534,62.57Zm.17-41.63-22.9,4.68c-.16-1.67-.32-3.17-.42-4.67a2.21,2.21,0,0,1,.32-1c1.62-3.34,3.27-6.67,4.85-10A1.42,1.42,0,0,1,517.56,9c2.6,0,5.2,0,7.8,0a4.09,4.09,0,0,1,1.9.52c2.07,1.21,4.08,2.53,6.14,3.76a1.42,1.42,0,0,1,.79,1.44C534.14,16.77,534.16,18.8,534.16,20.94Zm-29,59.58H487.38V18.11H505.2c3.48,0,5.44,1.95,5.44,5.41q0,25.79,0,51.59C510.64,78.57,508.68,80.52,505.2,80.52Zm4.22,2.3H489.27c.49-1.81.53-1.83,2.28-1.83h13.65a3,3,0,0,0,1.07,0C508.09,80.22,508.74,81.45,509.42,82.82ZM72.79,81c3.18-1.15,4.33-3.34,4.08-6.33a7.2,7.2,0,0,1,.95-4c3-5.9,6-11.84,9-17.76a3,3,0,0,1,.4-.6,2.35,2.35,0,0,1-.64-.23,1,1,0,0,1-.06.16q-4.61,9.2-9.26,18.39a2.77,2.77,0,0,1-.35.39V69.88c0-5,0-9.9,0-14.85,0-.63.1-1,.8-1.22,2.66-.84,5.3-1.76,8-2.61h0a2.37,2.37,0,0,1-.26-.59c-2.77.95-5.54,1.87-8.42,2.83V45.18c2.88,1.39,5.65,2.73,8.41,4.09a2.36,2.36,0,0,1,.24-.55c-2.73-1.32-5.46-2.64-8.17-4a1.1,1.1,0,0,1-.52-.79c0-3.1,0-6.2.23-9.4l9,13.54a2.37,2.37,0,0,1,.5-.32l-5-7.44c-1.37-2.06-2.79-4.1-4.09-6.21a4.59,4.59,0,0,1-.68-2.2c-.08-3,0-5.92,0-8.88a5.19,5.19,0,0,0-5.34-5.39c-1.4,0-2.8,0-4.2,0a1.33,1.33,0,0,1-.95-.32C64.54,14.62,62.75,11.9,60.81,9c3.35,0,6.45.09,9.55,0s5.89,1.32,8.79,2.12c.28.08.52.65.6,1Q82.88,27.25,86,42.4L87,47.62a2.36,2.36,0,0,1,.6-.09l.18,0a2.82,2.82,0,0,1-.22-.61Q84,29.51,80.46,12.08c0-.23-.06-.47-.11-.84,2.73-.51,5.44-.91,8.11-1.53A45.21,45.21,0,0,1,98.84,9c5.23,0,10.46,0,16,0l-5.54,8.31q-10,15-20,29.92a3,3,0,0,1-.57.6,2.38,2.38,0,0,1,.74.6,1.56,1.56,0,0,1,.18-.45q12.7-19.13,25.47-38.21a5,5,0,0,1,1.18-.94l.31.31q-1.8,5.38-3.61,10.76c-1.75,5.18-3.48,10.38-5.26,15.55a9.08,9.08,0,0,1-1.22,2.31c-2.74,3.79-5.53,7.54-8.27,11.33a1.85,1.85,0,0,1-1.77.89c-1.92-.09-3.84,0-5.76-.1a2.07,2.07,0,0,1-.72-.18,1.76,1.76,0,0,1-.07.85l.21,0c2.26-.06,4.52,0,7.05,0l-4.57,6.23c-1.14-1.71-2.25-3.26-3.23-4.89a1.15,1.15,0,0,1-.09-.2,2.38,2.38,0,0,1-.63.44,2.65,2.65,0,0,1,.55.61c.83,1.23,1.61,2.49,2.49,3.67a1.21,1.21,0,0,1-.08,1.76c-.93,1.15-1.73,2.4-2.65,3.55a1.56,1.56,0,0,0-.22,1.83c2.52,6,5,12.1,7.46,18.15.15.36.27.73.46,1.28-6,0-11.71.16-17.46-.09C77.13,82.74,75.1,81.66,72.79,81Zm3.53,1.74c-3.09.37-3.09.37-3.38-1.11ZM18.58,42.1,1.77,69.82l-.21-.08v-27Zm-17,0V22L18.5,41.5Zm26.77-1.73V51.06L19.76,42Zm-7.66.7,7.59-7.58v6.2Zm2,4.81q2.63,2.71,5.17,5.51a2.22,2.22,0,0,1,.53,1.36q.05,9.12,0,18.24a1.57,1.57,0,0,1-.7,1.16c-5.3,2.71-10.63,5.37-16,8a3.81,3.81,0,0,1-.54.14l8.06-37.74C20.45,43.78,21.6,44.81,22.68,45.92Zm5.7,26.56c.13,2.51-.42,5,1.49,6.95s4.33,1.5,6.68,1.58c0,1.49-.58,2-2,1.95-7-.09-14-.08-21,0-1.33,0-2.13-.31-2.32-1.86Zm5.94,8c-3.48,0-5.44-1.95-5.44-5.41q0-25.8,0-51.59c0-3.46,2-5.41,5.44-5.41H52.38V80.52H34.32Zm9.71-63c.27-.32.47-.59.7-.82,2.26-2.27,4.55-4.5,6.77-6.8A2.62,2.62,0,0,1,53.8,9c.9.08,1.82,0,2.76,0v8.56ZM38.84,81h6c1.81,0,1.81,0,2.16,1.87H36.85C37.11,81,37.11,81,38.84,81Zm8.06,0a40.27,40.27,0,0,0,4.32,0c1.52-.18,2.24.61,2.88,2-2,0-4,.1-5.89-.08C47.78,82.8,47.44,81.78,46.91,81Zm6.6,0H70.34c1.76,0,1.76,0,2.15,1.86-.23,0-.45.06-.67.06-5.31,0-10.62,0-15.93,0C54.54,83,54.39,81.87,53.51,81Zm18.71-.56a11.18,11.18,0,0,1-1.79.05H53.2V18.12c6.28,0,12.47-.07,18.66,0A4.7,4.7,0,0,1,76.4,23c0,1.28,0,2.56,0,3.84q0,24.17,0,48.35C76.4,78.1,74.9,80,72.21,80.43ZM57.29,17.55V9.11c1.7-.33,3-.25,4,1.5,1.31,2.36,3,4.54,4.55,6.94Zm22.42-6.94L75.28,9.23l0-.21h5.36ZM82.51,9c1.7.09,3.4,0,5.1,0l0,.21-7,1.28C80.94,9.4,81.42,8.91,82.51,9Zm43.57,2.12-3.88,5.3-1.87-7.3C122.58,8.83,124.69,8.68,126.08,11.09ZM125,9h2.6l-1,1.41Zm-3.42,7.21a1.78,1.78,0,0,1-.22,1.29q-6,8.29-12.09,16.54a.61.61,0,0,1-.52.23L117.2,9.09c2.44-.3,2.44-.3,3,1.93C120.67,12.76,121.14,14.5,121.53,16.25ZM96.6,81.32c-2.35-5.93-4.79-11.83-7.24-17.72a1.75,1.75,0,0,1,.26-1.95q19.11-26,38.21-52c.25-.34.82-.47,1.27-.64a2.16,2.16,0,0,1,.71,0C290.11,9,248.42,9,408.73,9a2.65,2.65,0,0,1,2.46,1.2q16.95,23.22,34,46.38c1.25,1.71,2.5,3.42,3.79,5.1a1.72,1.72,0,0,1,.28,1.94q-3.85,9.22-7.59,18.48c-.27.67-.62.95-1.32.86a7.48,7.48,0,0,0-1,0H269.29c-90.43,0-79.86,0-170.3,0A2.15,2.15,0,0,1,96.6,81.32ZM412.41,11,411,9.06h3.33Zm7.32-1.82V20.53l-.28.07L413,11.87C414.55,9.12,416.87,8.49,419.73,9.14Zm22.67,72.4c2.46-6,4.9-12,7.4-18a1.58,1.58,0,0,0-.2-1.83c-.83-1.06-2.06-2.16-2.17-3.34s1-2.36,1.58-3.54c.33-.68.68-1.36,1-2a2.42,2.42,0,0,1,.38-.54,2.36,2.36,0,0,1-.64-.26.59.59,0,0,1,0,.09c-.92,1.89-1.88,3.76-2.94,5.86L443.24,53c2-.66,3.81-1.28,5.66-1.86h0a2.36,2.36,0,0,1-.28-.67,1.58,1.58,0,0,1-.39.22c-1.54.55-3.09,1.07-4.66,1.53a1.25,1.25,0,0,1-1.09-.23c-2-2.68-4-5.39-6-8.11-.06-.08,0-.21-.09-.46.45.19.81.32,1.15.49,3.59,1.74,7.19,3.47,10.77,5.24a1.19,1.19,0,0,1,.27.19,2.36,2.36,0,0,1,.25-.63c-1.34-.64-2.67-1.27-4-1.91-2.91-1.41-5.83-2.81-8.71-4.27a4.46,4.46,0,0,1-1.54-1.27Q427.74,32,420.89,22.55a2.24,2.24,0,0,1-.51-1.17c0-4.07,0-8.14,0-12.4a12.79,12.79,0,0,1,2.4,0,2.08,2.08,0,0,1,1.13.86q8.21,12.25,16.37,24.53l8.91,13.37c.08.11.14.24.21.35a2.38,2.38,0,0,1,.5-.34L424.18,9.25c.09-.11.13-.22.18-.22,3.71,0,7.45-.27,11.14.05,2.33.21,4.6,1.26,6.87,2,.28.09.51.65.59,1q3.15,15.3,6.27,30.61c.33,1.64.68,3.28,1,4.92a2.36,2.36,0,0,1,.74-.13h0a1.62,1.62,0,0,1-.12-.34q-3.6-17.48-7.17-35a5.89,5.89,0,0,1-.07-.77C454.84,7.91,466.32,9.23,477.9,9c-.24.43-.38.73-.56,1-1.52,2.3-3,4.61-4.61,6.86a2.16,2.16,0,0,1-1.41.77c-1.15.11-2.32,0-3.47,0a5.18,5.18,0,0,0-5.19,5.17c0,2.76,0,5.52,0,8.27a3.26,3.26,0,0,1-.47,1.66q-4.88,7.41-9.85,14.75a1.49,1.49,0,0,1-.27.29,2.39,2.39,0,0,1,.63.45,1.81,1.81,0,0,1,.11-.2l6.58-9.87,3.2-4.78V49.87c-3.11,0-6.16,0-9.21,0,0,0,0,0,0,.07a2.36,2.36,0,0,1-.12.72,1.76,1.76,0,0,1,.56-.12c2.91,0,5.81,0,8.78,0v16.2A8,8,0,0,1,462,66c-3.06-4.59-6.13-9.17-9.16-13.78a1.7,1.7,0,0,1-.23-.62,2.39,2.39,0,0,1-.71.48,2.18,2.18,0,0,1,.42.47q4.93,7.38,9.83,14.78a3,3,0,0,1,.45,1.55c0,2.28,0,4.56,0,6.84A5.19,5.19,0,0,0,467.88,81a9.11,9.11,0,0,0,1.68,0c1.48-.26,2.32.44,2.84,1.84H441.91C442.09,82.34,442.24,81.94,442.4,81.55Zm.51-70.94-4.45-1.38,0-.18h5.39ZM445.75,9c1.67.1,3.35,0,5,0l0,.21-6.95,1.27C444.14,9.37,444.65,8.9,445.75,9Zm39.35,8.62h-7.56c.94-2.78,1.81-5.51,2.84-8.18.12-.32,1.16-.34,1.78-.39.27,0,.76.2.82.4C483.72,12.1,484.39,14.8,485.1,17.58ZM483.5,9c1.19,0,2.18,0,3.18,0a1.67,1.67,0,0,1,.95.39q4.42,3.87,8.79,7.78a2.39,2.39,0,0,1,.26.37h-11ZM477,17.59H473.2a9.35,9.35,0,0,1,.44-.83c1.57-2.36,3.13-4.74,4.74-7.08a4.48,4.48,0,0,1,1.14-.85l.28.36ZM472.2,81a23.74,23.74,0,0,1,3.84.08c.4.07.65,1,1,1.58l-.25.27C475.14,82.66,473,83.84,472.2,81Zm-3.65-.49c-3.47,0-5.43-2-5.43-5.42q0-25.79,0-51.59c0-3.45,2-5.4,5.45-5.4h18V80.52h-18Zm20.62.54a2,2,0,0,1-2.43,1.9c-2.5-.13-5,0-7.53,0-1.68,0-1.68,0-2.08-1.86Zm21.3-61c-.35-.36-.61-.68-.92-1a5.24,5.24,0,0,0-3.68-1.49c-2.36,0-4.72,0-7.08,0a2.06,2.06,0,0,1-1.23-.27c-3.1-2.68-6.16-5.41-9.41-8.29h27.67Zm23.6-7-6.45-4h6.45ZM1.57,1.61h532.5V8.43H1.57ZM1.52,11.68c1.12.33,2.14.62,3.14.93l18.62,5.87a2.37,2.37,0,0,1,.88.52,2.37,2.37,0,0,1,.2-.94,1.82,1.82,0,0,1-.67-.06C16.81,15.88,10,13.7,3.11,11.53,1.41,11,1.41,11,1.6,9H35.72c-1.29,1.35-2.42,2.55-3.58,3.73-1.4,1.43-2.82,2.84-4.22,4.26l0,0a2.39,2.39,0,0,1,.45.42,5.37,5.37,0,0,1,.37-.44c2.4-2.45,4.79-4.91,7.24-7.31A2.65,2.65,0,0,1,37.59,9c2.62-.07,5.24,0,7.86,0l.06.27-17,8.41a2.37,2.37,0,0,1,.28.59.8.8,0,0,1,.15-.12c5.89-3,11.76-6,17.74-8.74C48,8.81,49.63,9,51.36,8.8a3.74,3.74,0,0,1-.35.65c-2.57,2.58-5.12,5.17-7.73,7.7a2.18,2.18,0,0,1-1.38.47c-2.6,0-5.2,0-7.79,0-3.58,0-5.7,2.14-5.7,5.76,0,2.6,0,5.2,0,7.8A2,2,0,0,1,28,32.47c-2.51,2.58-5.07,5.11-7.61,7.65a2,2,0,0,1-.43.21c.62-2,1.2-3.84,1.78-5.7q2-6.34,4-12.69a2.44,2.44,0,0,1,.28-.63,2.36,2.36,0,0,1-.84-.39A2.5,2.5,0,0,1,25,22L19.36,40c-.09.29-.21.58-.48,1.29a10.69,10.69,0,0,0-.72-1.12q-8-9.26-16-18.52A2.91,2.91,0,0,1,1.54,20C1.48,17.27,1.52,14.56,1.52,11.68Zm0,60.12A2.44,2.44,0,0,1,2,70.72Q9.79,57.91,17.56,45.1a5.46,5.46,0,0,1,.41-.53l.16.08q-1,4.73-2,9.47c-1.82,8.51-3.66,17-5.44,25.54-.17.79-.45,1-1.24,1-2.59,0-5.18,0-7.91,0C1.53,77.6,1.51,74.7,1.55,71.8Zm9.59,11.07H1.58v-1.6H7.52l1.67,0C10.67,81.3,10.67,81.3,11.14,82.87Zm522.92,3.57H1.57v-3h532.5Zm-3.46-3.59v-.11l3.49-.33c0,.15,0,.29,0,.44Zm3.56-1.1c-1.88.22-3.73.38-5.56.66-5.85.86-11.73.4-17.6.49a1.44,1.44,0,0,1-1-.47c-.54-.63-1-1.35-1.52-2.09,2.22-1.41,2.77-3.51,2.63-5.94-.08-1.3,0-2.61,0-4.08l8,2.69c4.66,1.57,9.31,3.16,14,4.68.9.29,1.21.71,1.12,1.61C534.1,80.05,534.16,80.82,534.16,81.75Zm-1.22-41.83c-1.75,2.94-3.11,6.12-4.67,9.17a2.58,2.58,0,0,1-1,1.1c-5.2,2.64-10.42,5.24-15.63,7.85a4.58,4.58,0,0,1-.51.16c0-1.87,0-3.62,0-5.38a1.67,1.67,0,0,1,.47-1q11-11.06,22-22.09c.11-.11.24-.19.62-.48C533.8,33,535,36.53,532.94,39.92Z"/><path class="fg" d="M252.13,81h37c3.67,0,5.76-2.11,5.76-5.82q0-25.85,0-51.71c0-3.71-2.09-5.82-5.76-5.82h-37c-3.62,0-5.75,2.12-5.76,5.7q0,13,0,25.91t0,25.91C246.37,78.88,248.46,81,252.13,81Zm18.55-62.86c6.44,0,12.8-.06,19.15,0a4.7,4.7,0,0,1,4.52,4.59c0,.36,0,.72,0,1.08q0,25.49,0,51c0,3.86-1.85,5.7-5.75,5.7H270.68ZM246.84,74.81v-51c0-3.86,1.86-5.71,5.74-5.71H269.8v62.4c-6.2,0-12.31.06-18.43,0a4.7,4.7,0,0,1-4.53-4.59C246.82,75.53,246.84,75.17,246.84,74.81Z"/><path class="fg" d="M126.84,56.3h16.43v0c5.64,0,11.27.09,16.91,0,3.65-.07,5.51-2.18,5.52-5.81q0-11.16,0-22.31c0-4.27-1.94-6.22-6.18-6.25-6.59,0-13.18-.11-19.78-.14-4.32,0-8.64-.05-13,0a7.5,7.5,0,0,0-3.18.77c-2.05,1.05-2.76,3-2.74,5.19,0,7.59.11,15.18.15,22.77C121,54.22,123.12,56.29,126.84,56.3Zm.31-33.94,32.74.07c3.33,0,5.31,2,5.32,5.28q0,11.4,0,22.79c0,3.32-1.95,5.3-5.29,5.32-5.52,0-11,0-16.55,0v0H126.93c-3.48,0-5.41-1.94-5.42-5.42q0-11.15-.07-22.3C121.43,24.19,123.27,22.35,127.15,22.35Z"/><path class="fg" d="M380.41,56.38c11-.07,22.07,0,33.1,0,3.64,0,5.82-2.21,5.82-5.83q0-11.39,0-22.79c0-3.63-2.17-5.79-5.83-5.8H397c-5.64,0-11.27,0-16.91,0a5.17,5.17,0,0,0-5.51,5.57c0,7.64.11,15.27-.05,22.91A5.66,5.66,0,0,0,380.41,56.38ZM375,27.65a4.84,4.84,0,0,1,5.22-5.22H413.6a4.81,4.81,0,0,1,5.17,5.15q0,11.58,0,23.15a4.77,4.77,0,0,1-5.09,5.1H380.33c-3.35,0-5.3-1.94-5.3-5.26Q375,39.1,375,27.65Z"/><path class="fg" d="M184.17,56.29H217.4c3.56,0,5.69-2.11,5.7-5.63q0-11.58,0-23.15c0-3.45-2.15-5.57-5.63-5.58H184c-3.45,0-5.57,2.15-5.58,5.63q0,11.52,0,23C178.42,54.2,180.54,56.29,184.17,56.29Zm-5.26-28.45c0-3.48,1.94-5.42,5.42-5.42h32.86c3.48,0,5.42,1.94,5.42,5.42q0,11.27,0,22.54c0,3.48-1.94,5.42-5.42,5.42H184.33c-3.48,0-5.42-1.94-5.42-5.42Q178.9,39.12,178.91,27.85Z"/><path class="fg" d="M322.92,56.29H356c3.7,0,5.79-2.09,5.8-5.77q0-11.4,0-22.79c0-3.7-2.09-5.79-5.78-5.79H322.94c-3.7,0-5.79,2.09-5.8,5.77q0,11.4,0,22.79C317.14,54.2,319.23,56.29,322.92,56.29Zm-5.29-28.45c0-3.48,1.94-5.42,5.42-5.42h32.86c3.48,0,5.42,1.94,5.42,5.42q0,11.27,0,22.55c0,3.47-1.94,5.42-5.42,5.42H323.05c-3.48,0-5.42-1.94-5.42-5.42Q317.62,39.12,317.63,27.84Z"/><path class="fg" d="M45.63,22.44c-3,0-6,.09-9,0A4.58,4.58,0,0,0,32,26.89q0,12.47,0,24.94A4.07,4.07,0,0,0,35.68,56q5.4.08,10.79,0a3.88,3.88,0,0,0,3.28-3.44q0-6.59,0-13.19V26.55C49.75,23.95,48.28,22.46,45.63,22.44ZM49.28,39.3V52.25a3.41,3.41,0,0,1-3,3.27c-3.4.08-6.79.1-10.19,0-2.43-.07-3.61-2.29-3.59-4.18,0-5.6,0-11.19,0-16.79,0-2.4,0-4.8,0-7.19,0-2.85,1.61-4.43,4.47-4.45s5.52-.08,8.27,0a6.83,6.83,0,0,1,2.87.93,2.36,2.36,0,0,1,1.13,2.22C49.26,30.51,49.28,34.91,49.28,39.3Z"/><path class="fg" d="M480,22.45c-3,0-6.08.08-9.11,0a4.59,4.59,0,0,0-4.58,4.49q0,12.41,0,24.82c0,2.21,1.66,4.24,3.54,4.27,3.64.06,7.27.05,10.91,0A3.87,3.87,0,0,0,484,52.55q0-6.59,0-13.19V26.53A3.73,3.73,0,0,0,480,22.45Zm3.56,29.76a3.39,3.39,0,0,1-2.91,3.31c-3.43.09-6.88.13-10.31,0a3.56,3.56,0,0,1-3.48-3.75q-.06-12.41,0-24.82a3.9,3.9,0,0,1,4.17-4q4.38,0,8.75,0c2.47,0,3.78,1.41,3.78,3.86q0,6.23,0,12.47Q483.52,45.73,483.52,52.21Z"/><path class="fg" d="M503.73,22.45q-4.68,0-9.35,0A4.24,4.24,0,0,0,490,26.62q-.06,12.65,0,25.3a4.16,4.16,0,0,0,4.29,4.14c3.11-.12,6.23,0,9.35,0A3.88,3.88,0,0,0,507.76,52V26.54A3.72,3.72,0,0,0,503.73,22.45Zm3.55,16.86q0,6.24,0,12.47c0,2.1-1.16,3.64-3.26,3.73-3.35.15-6.72.13-10.06,0-2.39-.12-3.35-1.8-3.38-3.9-.11-8.23-.07-16.47,0-24.71a4.11,4.11,0,0,1,4-4c3,.06,6.08,0,9.11,0a3.44,3.44,0,0,1,3.64,3.78Q507.28,33,507.28,39.31Z"/><path class="fg" d="M69.62,22.45q-4.8,0-9.59,0a4.24,4.24,0,0,0-4.23,4.16q-.06,12.65,0,25.3A4,4,0,0,0,59.48,56c3.4,0,6.8.06,10.19,0a3.82,3.82,0,0,0,3.84-3.92V39.26q0-6.42,0-12.83A3.69,3.69,0,0,0,69.62,22.45ZM73,39.36q0,6.24,0,12.47a3.38,3.38,0,0,1-3.31,3.68c-3.31.13-6.64.15-10,0-2.44-.12-3.41-1.74-3.44-3.84-.12-8.27-.08-16.55,0-24.83a4.1,4.1,0,0,1,4-3.93c3,.07,6,0,9,0A3.46,3.46,0,0,1,73,26.77Q73,33.06,73,39.36Z"/><path class="fg" d="M276.89,56c3.44.05,6.87.07,10.31,0a3.82,3.82,0,0,0,3.8-4V39.22q0-6.42,0-12.83a3.69,3.69,0,0,0-3.93-3.94q-4.74,0-9.47,0a4.25,4.25,0,0,0-4.31,4.2q-.06,12.59,0,25.18C273.28,54,275,56,276.89,56Zm-3.09-29.17a4.1,4.1,0,0,1,4-3.93c3,.07,6,0,9,0a3.46,3.46,0,0,1,3.71,3.83q0,6.3,0,12.59t0,12.47a3.37,3.37,0,0,1-3.3,3.69c-3.31.13-6.64.15-10,0-2.44-.12-3.41-1.74-3.45-3.84C273.7,43.39,273.74,35.11,273.79,26.84Z"/><path class="fg" d="M253.16,56q5.4.07,10.79,0a3.88,3.88,0,0,0,3.28-3.44q0-6.6,0-13.19V26.55c0-2.6-1.48-4.09-4.13-4.1-3,0-6,.08-9,0a4.58,4.58,0,0,0-4.6,4.48q0,12.47,0,24.94A4.07,4.07,0,0,0,253.16,56Zm-3.1-29a3.9,3.9,0,0,1,4.14-4q4.38,0,8.75,0c2.49,0,3.8,1.4,3.8,3.84q0,6.29,0,12.59t0,12.83a3.37,3.37,0,0,1-2.89,3.33c-3.47.09-7,.12-10.42,0a3.52,3.52,0,0,1-3.39-3.71Q250,39.37,250.06,27Z"/><path class="fg" d="M88.67,52.07A2.44,2.44,0,0,0,90,49.92a2.78,2.78,0,0,0-.55-1.51,2.36,2.36,0,0,0-1.65-.86l-.18,0a2.39,2.39,0,0,0-.46,4.73,2.39,2.39,0,0,0,.46,0A2.36,2.36,0,0,0,88.67,52.07Z"/><path class="fg" d="M25.13,20.93a2.39,2.39,0,0,0,3.39-3.25,3.29,3.29,0,0,0-.62-.63,2.39,2.39,0,0,0-3.74,2h0A2.38,2.38,0,0,0,25.13,20.93Z"/><path class="fg" d="M451.92,52.1a2.36,2.36,0,0,0,1.32-1.47,2.36,2.36,0,0,0,.12-.72s0,0,0-.07A2.41,2.41,0,0,0,451,47.53h0a2.46,2.46,0,0,0-1.59.62,2.38,2.38,0,0,0-.48.6,2.37,2.37,0,0,0,0,2.41,2.38,2.38,0,0,0,.83.8,2.34,2.34,0,0,0,2.14.13Z"/></svg>