<svg id="first_carriage" data-name="first_carriage" xmlns="http://www.w3.org/2000/svg" viewBox="0 0 592 88"><defs><style>.bg{fill:#e8e7e7;}.empty{fill:none;}</style></defs><title>First Carriage</title><path class="bg" d="M590.62,85.19q0-41.22,0-82.44c0-1.67,0-1.67-1.69-1.67-245,0-290,0-535,0a73.38,73.38,0,0,0-8.83.54C38.75,2.41,32.4,3.47,26,4.16a7.75,7.75,0,0,0-6,3.51,68.11,68.11,0,0,0-7.93,16.1c-6.26,17.44-8.89,35.5-9,54,0,1.81.06,3.61,1.89,4.7,0,0,0,.13,0,.15L1,82.92v.72a8,8,0,0,1,.63,1.76C1.82,86.76,2.54,87,3.82,87Q30.28,87,56.74,87H588.83C590.83,87,590.62,87.2,590.62,85.19Z"/><path class="empty" d="M69.86,71.24V64l-.16,0c-.34,1.2-.66,2.4-1,3.59C68.08,69.45,68.21,69.93,69.86,71.24Z"/><path class="empty" d="M70.51,79.09c0,.66.26,1.31,1,1.15a1.52,1.52,0,0,0,.95-1.09q.09-8,0-16.07a2.56,2.56,0,0,0-2.2-2.48,2.49,2.49,0,0,0-2.79,1.76c-.19.48-.32,1-.46,1.48q-1.82,6.46-3.65,12.91a15.19,15.19,0,0,1-.58,1.47l-.44,0a14.1,14.1,0,0,1-.56-1.37c-.59-2-1.15-4.06-1.73-6.1-.79-2.76-1.54-5.54-2.39-8.28a2.44,2.44,0,0,0-2.84-1.85,2.69,2.69,0,0,0-2.2,2.63c0,.12,0,.24,0,.36q0,7.56,0,15.11c0,.28-.07.63.07.82s.61.72.94.72a1.37,1.37,0,0,0,.92-.71,2.68,2.68,0,0,0,.1-1.17q0-7.08,0-14.15a4,4,0,0,1,0-1,2.45,2.45,0,0,1,.42-.66c.23.17.54.3.68.53a3.9,3.9,0,0,1,.34,1l3.7,13.14c.55,2,1.44,2.95,2.68,3s2.19-1,2.77-3c1.29-4.57,2.58-9.14,3.9-13.71.1-.36.48-.64.73-1,.19.39.53.77.53,1.16,0,3.72,0,7.43,0,11.15C70.49,76.29,70.49,77.69,70.51,79.09Z"/><path class="empty" d="M51.92,71.7c.26-2.8.23-5.4.28-8a5.58,5.58,0,0,1,.45-2.18c.61-1.31,1.83-1.52,3.14-1.42A2.89,2.89,0,0,1,58.3,62.5c1.13,3.71,2.15,7.44,3.2,11.17.3,1.08.58,2.18.92,3.47.27-.35.41-.46.45-.59.83-2.9,1.63-5.81,2.5-8.7a1.73,1.73,0,0,0-.31-1.74q-6.92-9.19-13.79-18.42-3-4.06-6.09-8.11l-.24.11q0,6.35,0,12.7a2.26,2.26,0,0,0,.11.7C47,58.94,49,64.8,51,70.65,51.12,71.06,51.6,71.35,51.92,71.7Z"/><path class="empty" d="M45,71.88l5.58-.63L45.17,55.06l-.14.06Z"/><path class="empty" d="M75.17,71q-.95-2.81-1.91-5.62H73c0,3.1,0,6.21,0,9.31a3.35,3.35,0,0,0,1.38,2.64c0-.31.05-.45.07-.59.16-1.74-.49-3.6.81-5.17C75.32,71.5,75.23,71.22,75.17,71Z"/><path class="empty" d="M146,57.56l-6.74-10.83a1.39,1.39,0,0,0-1.93-.6c-1.88.78-3.76,1.54-5.67,2.25a1.09,1.09,0,0,0-.81,1.23c0,2.88,0,5.75,0,8.62V60a10.05,10.05,0,0,1,6.81,4.19c.39.54.69,1.33,1.21,1.55,1.73.73,3.55,1.25,5.56,1.93-.63-1.56-1.09-2.87-1.7-4.12A1.59,1.59,0,0,1,143,61.6C144,60.31,145,59,146,57.56Z"/><path class="empty" d="M96.35,80.28c.87,0,1-.64,1-1.34,0-4,0-8,0-12a2.37,2.37,0,0,0-2.61-2.61c-1.2,0-2.4.07-3.59,0-.43,0-.8-.55-1.21-.85a7.28,7.28,0,0,1,1.15-.79,2.49,2.49,0,0,1,.95,0h9.83c.7,0,1.36-.13,1.39-1s-.57-1.06-1.29-1.06c-3.67,0-7.35,0-11,0a2.84,2.84,0,1,0,0,5.67,28.22,28.22,0,0,0,3,0c1.06-.08,1.51.21,1.44,1.38-.11,1.79,0,3.59,0,5.39,0,2,0,3.91,0,5.87C95.35,79.65,95.51,80.27,96.35,80.28Z"/><path class="empty" d="M59,57.12c2.23,3,4.47,5.91,6.84,9,.36-1.21.66-2.23,1-3.25.72-2.49,2.07-3.27,4.71-2.58-.07-.3-.09-.5-.16-.68-1.91-5.67-3.81-11.34-5.77-17a2.33,2.33,0,0,0-1.1-1.12Q55.2,36.78,45.9,32.11c-.27-.14-.57-.22-1-.37,0,2,0,3.86,0,5.73a3.29,3.29,0,0,0,.6,1.73Q52.23,48.18,59,57.12Z"/><path class="empty" d="M127,51.79q0-6.24,0-12.47t0-12.59a3.44,3.44,0,0,0-3.63-3.78c-3-.05-6.08,0-9.11,0a4.11,4.11,0,0,0-4,4c0,8.24-.08,16.47,0,24.71,0,2.1,1,3.78,3.38,3.9,3.35.16,6.71.18,10.06,0C125.87,55.42,127,53.88,127,51.79Z"/><path class="empty" d="M111.2,68.09c.92,0,1.84,0,2.75,0a1.74,1.74,0,0,0,1.76-1.76c.18-1.78-.26-3-1.35-3-2.37-.13-4.75,0-7.19,0V80.47h9.46c-2.64-2.34-5.07-4.5-7.52-6.63a3.3,3.3,0,0,1-1.25-3.68A3.38,3.38,0,0,1,111.2,68.09Z"/><path class="empty" d="M125.24,80.44c-5.52-3.67-7.51-7.67-6.28-12.51,1.29-5.11,4.59-7.48,11.43-8.13V58.66q0-17.57,0-35.14c0-3.46-2-5.41-5.44-5.41H107.2v42c2.38,0,4.66,0,6.93,0a4.62,4.62,0,0,1,2.25.6,6.18,6.18,0,0,1,2.17,6.93c-.67,2.25-2.49,3.44-5.26,3.44H111a95.53,95.53,0,0,0,7,6.55c.91.78,1.42,1.58.88,2.77ZM113.65,56a4.15,4.15,0,0,1-3.87-4.19q-.07-12.59,0-25.18a4.24,4.24,0,0,1,4.29-4.22q4.74,0,9.47,0a3.71,3.71,0,0,1,4,4q0,6.41,0,12.83V52a3.85,3.85,0,0,1-3.9,4C120.29,56.06,117,56,113.65,56Z"/><path class="empty" d="M105.54,60.5a1.46,1.46,0,0,0,.86-1.59q0-19.74,0-39.48V18.11H88.47c-3.71,0-5.61,1.89-5.61,5.6q0,17.52,0,35V60a2,2,0,0,0,.36.12l1.92,0c1.15,0,2,.69,2,1.56s-.91,1.46-2,1.49c-.74,0-1.48,0-2.27,0V67c2.78.26,4.07,1.29,4.11,3.2.05,2.38-.87,3.23-4,3.67,0,.86,0,1.73,0,2.6s.49,1.27,1.47,1.25c2.36-.05,2.69.35,2.52,2.7h7.95V66.85c-1.5,0-2.82,0-4.13,0a3.41,3.41,0,0,1-3.35-3.22c0-1.9,1.16-3.45,2.83-3.48,4-.06,8.08,0,12.12,0a1.35,1.35,0,0,1,1.39,1.47c0,1-.59,1.56-1.93,1.56-3.36,0-6.72,0-10.08,0-.4,0-.81.06-1.21.09,0,.12,0,.24,0,.36a7.23,7.23,0,0,0,1,.17c.88,0,1.76,0,2.64,0,2.58,0,3.67,1.07,3.68,3.63,0,3.16,0,6.32,0,9.48v3.58h6.47a9.36,9.36,0,0,1-.15-1.18c0-5.48,0-11,0-16.44A2.52,2.52,0,0,1,105.54,60.5Zm-1.8-21.12q0,6.59,0,13.19A3.88,3.88,0,0,1,100.46,56q-5.39.06-10.79,0A4.07,4.07,0,0,1,86,51.83q0-12.47,0-24.94a4.58,4.58,0,0,1,4.6-4.47c3,.12,6,0,9,0,2.65,0,4.12,1.5,4.12,4.1Z"/><path class="empty" d="M118.4,79.95c.56-.66.15-1.18-.38-1.63l-1.36-1.18c-2-1.71-3.93-3.4-5.87-5.14a3.36,3.36,0,0,1-.53-1,4.17,4.17,0,0,1,1-.37c.76-.06,1.52,0,2.28,0,2.89-.05,4.63-1.91,4.64-4.95s-1.71-5-4.64-5.06c-2.08,0-4.16,0-6.24,0a2.34,2.34,0,0,0-2.66,2.65q0,7.74,0,15.48c0,.7,0,1.48.91,1.52s1-.75,1-1.52q0-5.52,0-11V62.64c2.41,0,4.72,0,7,0,1.85,0,2.6,1,2.58,3.12,0,1.88-.83,2.77-2.63,2.82-1,0-1.92,0-2.88,0a2.46,2.46,0,0,0-2.35,1.74,2.52,2.52,0,0,0,.76,2.83c.45.4.91.79,1.36,1.18l6.24,5.44C117.26,80.29,117.84,80.6,118.4,79.95Z"/><path class="empty" d="M99.47,22.93q-4.38-.05-8.75,0a3.9,3.9,0,0,0-4.15,4q-.07,12.41,0,24.82a3.56,3.56,0,0,0,3.49,3.74c3.43.13,6.87.1,10.31,0a3.38,3.38,0,0,0,2.9-3.32q0-6.41,0-12.83t0-12.59C103.27,24.34,102,23,99.47,22.93Z"/><path class="empty" d="M55.16,63.69V70c0,3.39,0,3.39,3.09,4.77.07,0,.15,0,.48.14L55.44,63.64Z"/><path class="empty" d="M136.48,71.9h-5.71v5.86A6.93,6.93,0,0,0,136.48,71.9Z"/><path class="empty" d="M145.5,71.81c-1.72,0-3.44,0-5.16,0a1.14,1.14,0,0,0-.78.64c-.53,1.38-1,2.8-1.47,4.24l9-3C146.39,73,146.76,71.8,145.5,71.81Z"/><path class="empty" d="M130.35,76c.07-4.27,0-8.54,0-12.88a7.34,7.34,0,0,0-8.63,6.39A7.51,7.51,0,0,0,128,77.9C129.84,78.15,130.32,77.85,130.35,76Z"/><path class="empty" d="M139.25,70.48a10.05,10.05,0,1,0-10.11,10A10.11,10.11,0,0,0,139.25,70.48Zm-18.11,0a8.06,8.06,0,1,1,8.12,8A8.09,8.09,0,0,1,121.14,70.48Z"/><path class="empty" d="M144.29,68.27a28,28,0,0,0-5-1.76l.55,4.62H146C145.41,70,145.09,68.72,144.29,68.27Z"/><path class="empty" d="M156.25,43.57l-17.06,2,7.17,11.53Z"/><path class="empty" d="M137.59,44.32c-2.13-3.09-4.31-6.14-6.67-9.45v13.2c2.25-.9,4.4-1.72,6.51-2.64A1.18,1.18,0,0,0,137.59,44.32Z"/><path class="empty" d="M130.93,63.83v7.28h5.64C137.23,67.42,135,64.56,130.93,63.83Z"/><path class="empty" d="M74.43,63.22a2.87,2.87,0,0,1,3.13-3.1h4.83c0-4.07,0-8,0-11.89,0-.28-.44-.7-.76-.82C79.4,46.64,77.2,45.93,75,45.2l-9-3,8.14,24.06A13.65,13.65,0,0,0,74.43,63.22Z"/><path class="empty" d="M77.84,80.27c2.36,0,4.72,0,7.08,0,.76,0,1.55,0,1.54-1s-.78-1-1.49-1c-2.32,0-4.64,0-7,0-.8,0-1.18-.25-1.12-1.11a23,23,0,0,0,0-2.76c0-.83.24-1.15,1.09-1.12,1.72,0,3.44,0,5.16,0,2,0,3.32-1.09,3.34-2.8s-1.3-2.88-3.39-2.89c-1.72,0-3.44,0-5.16,0-.77,0-1.1-.24-1.06-1a23.06,23.06,0,0,0,0-2.76c-.06-.89.28-1.21,1.17-1.19,2.36,0,4.72,0,7.08,0,.69,0,1.34-.13,1.35-1s-.62-1-1.33-1H81.42c-1.24,0-2.48,0-3.72,0a2.5,2.5,0,0,0-2.75,2.75c0,1.08,0,2.16,0,3.24,0,2.09.87,3,3,3,1.72,0,3.44-.05,5.16,0,.48,0,1.29.44,1.33.75.11.87-.68.91-1.34.91-1.8,0-3.6,0-5.4,0a2.42,2.42,0,0,0-2.74,2.73c0,1.12,0,2.24,0,3.36C75,79.32,75.89,80.25,77.84,80.27Z"/><path class="empty" d="M82.34,70.69v-.38c-2.27-.5-4.73.55-7.1-.92l.41,1.3Z"/><rect class="empty" x="77.5" y="63.24" width="4.82" height="3.83"/><path class="empty" d="M77.82,77.1a.89.89,0,0,0,.61.58c1.38.05,2.77,0,4.12,0l-.23-3.86h-5C77.47,75,77.6,76.07,77.82,77.1Z"/><path class="empty" d="M159.88,38.62l-29-9.79c0,1.67,0,3.18,0,4.68a1.47,1.47,0,0,0,.31.75c2.28,3.23,4.54,6.48,6.91,9.65a2.52,2.52,0,0,0,1.88.92c5.36-.52,10.71-1.16,16.05-1.79a1.47,1.47,0,0,0,.92-.47C157.93,41.32,158.85,40,159.88,38.62Z"/><path class="empty" d="M98.14,17.61c2.47.05,4.94,0,7.41,0l0-.24-9.81-4.75c.56,1.65,1,3,1.48,4.27A1.25,1.25,0,0,0,98.14,17.61Z"/><path class="empty" d="M505.44,55.72a2.33,2.33,0,0,0,.3.69q6,9.15,12.15,18.26c.16.25.36.47.74,1V70.1q0-7,0-14c0-1-.16-1.56-1.38-1.53-3.52.07-7,0-10.55,0a2.19,2.19,0,0,0-.64.12A2.37,2.37,0,0,1,505.44,55.72Z"/><path class="empty" d="M504.89,51.89a1.46,1.46,0,0,0,.22-.25q6.51-9.7,13-19.44a3.49,3.49,0,0,0,.53-1.77c.06-2.52,0-5,0-7.56a5.18,5.18,0,0,1,5.26-5.23c1.08,0,2.16,0,3.24,0a1.42,1.42,0,0,0,1-.47c1.54-2.23,3-4.5,4.64-6.94a5.61,5.61,0,0,0-.79,0c-6.4,1.17-12.8,2.32-19.2,3.54a2.52,2.52,0,0,0-1.39.93q-5.71,7.69-11.33,15.44a2.33,2.33,0,0,0-.37,1.62c1.29,6.54,2.65,13.06,4,19.59a1.61,1.61,0,0,0,.09.27h0A2.36,2.36,0,0,1,504.89,51.89Z"/><path class="empty" d="M506.67,53.94c3.48.08,7,.1,10.44.12,1.48,0,1.52,0,1.52-1.57q0-9.3,0-18.6V32.67c-.4.54-.61.81-.8,1.09Q511.74,42.88,505.67,52a1.71,1.71,0,0,0-.16.32,2.37,2.37,0,0,1,.65,1.49A1.83,1.83,0,0,0,506.67,53.94Z"/><path class="empty" d="M499,31.61c-1.72,2.32-3.29,4.42-4.81,6.56a1,1,0,0,0,0,.93q4.23,6.41,8.51,12.79a2.35,2.35,0,0,1,.38-.16Z"/><path class="empty" d="M501.77,55.25a.91.91,0,0,0-.26,0c-3,1-5.92,1.94-8.87,2.93l-16,5.35c2.39,5.83,4.71,11.52,7,17.19a1.49,1.49,0,0,0,.64.66c.88.48,1.76.95,2.67,1.35a1.81,1.81,0,0,0,2.53-.66Q496,69.25,502.46,56.4a1.09,1.09,0,0,0,.09-.38A2.39,2.39,0,0,1,501.77,55.25Z"/><path class="empty" d="M501.49,53.4l-.09-.07c-4.22-2.08-8.47-4.11-12.69-6.21-.71-.35-1-.17-1.45.41-3.45,4.74-6.93,9.46-10.39,14.19-.24.32-.42.69-.79,1.31.54-.09.66-.1.77-.13q12.26-4.08,24.52-8.19l.15-.07a2.14,2.14,0,0,1,0-1.24Z"/><path class="empty" d="M502.23,52.21l-8.75-13.14-5.27,7.22,13.51,6.56A2.38,2.38,0,0,1,502.23,52.21Z"/><path class="empty" d="M542.56,18.11h-18c-3.47,0-5.42,2-5.43,5.42q0,25.8,0,51.59c0,3.44,2,5.39,5.45,5.4h18ZM540,52.56A3.87,3.87,0,0,1,536.71,56c-3.64,0-7.28,0-10.91,0-1.83,0-3.52-2-3.52-4.17,0-8.32,0-16.63,0-25a5.36,5.36,0,0,1,2.11-4,3.48,3.48,0,0,1,2.11-.45q4.86-.07,9.72,0A3.67,3.67,0,0,1,540,26.29q0,6.54,0,13.07T540,52.56Z"/><path class="empty" d="M588.77,22c-5.33-3.24-10.61-6.56-15.91-9.84l-3.6-2.2c-1.37,2.81-2.69,5.49-4,8.2a1,1,0,0,0,.18.89,5.7,5.7,0,0,1,1.64,4.23c0,2,0,4.07,0,6.25L590,24.83C590.54,23.31,589.85,22.64,588.77,22Z"/><path class="empty" d="M528.58,82.92c3.81,0,7.52-.08,11.23,0a2,2,0,0,0,2.38-1.9H527.93Z"/><path class="empty" d="M78.9,9.92c-.54-1.1-1.06-1.07-3.32-.74l1.22.62,1.56.76A2.38,2.38,0,0,1,78.9,9.92Z"/><path class="empty" d="M567.22,49.89a2.73,2.73,0,0,0,1-.81q10.52-10.57,21.07-21.13a2.29,2.29,0,0,0,.74-2.58L567.22,30Z"/><path class="empty" d="M539.51,26.76c0-2.44-1.32-3.8-3.81-3.83q-4.38-.05-8.75,0a4,4,0,0,0-4.14,4q-.06,12.41,0,24.82a3.52,3.52,0,0,0,3.39,3.71c3.47.15,7,.11,10.43,0a3.38,3.38,0,0,0,2.89-3.33q0-6.47,0-13Q539.51,33,539.51,26.76Z"/><path class="empty" d="M490.25,81.84c-.16.31-.28.63-.45,1h32.75c-1.49-2.3-2.91-4.53-4.37-6.73q-6.47-9.74-13-19.46a3.12,3.12,0,0,0-.42-.51,2.26,2.26,0,0,1-1.61.13,3.19,3.19,0,0,0-.31.5Z"/><path class="empty" d="M14.33,82.86h4.92l1.45-6.13a2.35,2.35,0,0,1-.34-.13Z"/><path class="empty" d="M78.13,11.09c-.55-.31-1.12-.59-1.7-.84A9.41,9.41,0,0,0,72.4,9C65.24,9,58.08,9,50.92,9a42.06,42.06,0,0,0-5.34.58,1.53,1.53,0,0,0-1,.63c-1.29,2.48-2.51,5-3.84,7.65,3,.8,4.17,2.82,4.28,5.61.31-.07.51-.1.69-.16l22.93-7.68c3.18-1.07,6.36-2.12,9.53-3.21a2.15,2.15,0,0,1,0-1.34Z"/><path class="empty" d="M82,9.35l-.15-.3H80.24l.19.32a2.36,2.36,0,0,1,1.15.31Z"/><path class="empty" d="M21.31,76.84l0,0c-.49,2-.94,4-1.41,6h5.75c-1.15-2.11-2.19-4-3.25-5.94a.94.94,0,0,0-.2-.23,2.36,2.36,0,0,1-.78.14Z"/><path class="empty" d="M82,13.49a1.07,1.07,0,0,0,.08.17c1,1.51,2,3,2.94,4.43,3.92-.93,7.8-.16,11.78-.54L95,12.46l-4.29-.13h-.6c-2.36,0-4.72,0-7.08,0a1.56,1.56,0,0,0-.34,0A2.38,2.38,0,0,1,82,13.49Z"/><path class="empty" d="M79.87,14.07a3.65,3.65,0,0,0-.28.47l-8.47,16.8L66,41.62l16.43,5.43V45.59c0-7,0-14,0-21,0-2.36.16-4.56,2.29-6.07-1-1.45-1.83-2.78-2.72-4.11a3.29,3.29,0,0,0-.45-.54,2.27,2.27,0,0,1-1.61.19Z"/><path class="empty" d="M78.4,13l-.12,0Q62,18.4,45.79,23.79a1.1,1.1,0,0,0-.9,1.28c0,1.68.05,3.36,0,5a1.38,1.38,0,0,0,.92,1.46c2.9,1.42,5.78,2.89,8.67,4.34l10.91,5.47a1.77,1.77,0,0,0,.2-.24Q72.43,27.56,79.27,14a.86.86,0,0,0,0-.12A2.38,2.38,0,0,1,78.4,13Z"/><path class="empty" d="M83.61,11.77c3.51,0,7,0,10.53,0a1.47,1.47,0,0,0,1.11-.55A13.49,13.49,0,0,0,96,9H83.8a2.39,2.39,0,0,0-1.7,1.08,2.38,2.38,0,0,1,.69,1.62A3.46,3.46,0,0,0,83.61,11.77Z"/><path class="empty" d="M22.81,76.38a1.38,1.38,0,0,0,.14.45c1,1.79,2,3.56,2.91,5.37a1.24,1.24,0,0,0,1.32.73q8.4,0,16.79,0a1.3,1.3,0,0,0,1.36-.86c1.55-3.15,3.15-6.28,4.73-9.42a8.83,8.83,0,0,0,.31-.87l-5.44.61c0,1.34,0,2.62,0,3.89a3.44,3.44,0,0,1-.45,1.81A6.22,6.22,0,0,1,39.59,81C37,81,34.31,81,31.68,81a5.27,5.27,0,0,1-5.2-5.43,8.56,8.56,0,0,0-.06-1l-2.29.25a1.53,1.53,0,0,0-.36.08A2.37,2.37,0,0,1,22.81,76.38Z"/><path class="empty" d="M9.76,50.13l-.35.09c-.41,2.83-.86,5.66-1.21,8.51a2.23,2.23,0,0,0,.49,1.56c2.3,2.61,4.67,5.15,7,7.72l4.2,4.6.23-.17Z"/><path class="empty" d="M19.44,75.81l-.23.07-8.66,3.07c-2,.72-2,.73-1.74,2.84a1.23,1.23,0,0,1,0,.35c-.11.69.31.72.85.79a5.34,5.34,0,0,0,5.33-2,40.07,40.07,0,0,1,3.8-3.81,9,9,0,0,1,1.08-.83A2.39,2.39,0,0,1,19.44,75.81Z"/><path class="empty" d="M23.77,74.26c.89-.07,1.76-.22,2.67-.34V60L26.26,60C25,64.1,23.75,68.23,22.52,72.36A2.37,2.37,0,0,1,23.77,74.26Z"/><path class="empty" d="M19.55,73q-2.82-3.13-5.67-6.24C12,64.66,10.07,62.59,8,60.29a67.89,67.89,0,0,0,.25,19c3.79-1.35,7.39-2.62,11-3.93A2.33,2.33,0,0,1,19.55,73Z"/><path class="empty" d="M22,72.17A1.06,1.06,0,0,0,22.1,72c1.24-4,2.51-8.08,3.63-12.15a18.47,18.47,0,0,0,.7-4.69c.07-7.28,0-14.56,0-21.84V31.89a19.37,19.37,0,0,1-1.94.91c-1,.34-1.23,1-1.22,2,.07,3.88,0,7.76,0,11.64,0,1.85-.61,2.63-2.35,3.08-2.12.54-4.24,1.08-6.35,1.65-1.86.5-3-.54-2.48-2.43a27.4,27.4,0,0,1,1-2.95c1.08-2.86,2.19-5.71,3.29-8.57l-.2-.22a31,31,0,0,0-3,1.51A2.91,2.91,0,0,0,12.08,40c-.74,2.57-1.41,5.15-2,7.76a4.06,4.06,0,0,0,.23,2.39c3.36,7.38,6.79,14.72,10.22,22.06l0,.06A2.2,2.2,0,0,1,22,72.17Z"/><path class="empty" d="M111.56,83a3.78,3.78,0,0,0,3.67-2c-5.63,0-11.09-.14-16.55.07-2.1.08-4.16,1-6.24,1.49l.09.36C98.87,82.92,105.22,82.86,111.56,83Z"/><path class="empty" d="M536,17.59h6.28l-8.11-7.17Z"/><path class="empty" d="M534.7,9.07V9.2H567l0-.13Z"/><path class="empty" d="M533.59,10.49l-2.37,7.09h4.19c-.49-2-1-3.86-1.44-5.75C533.89,11.48,533.78,11.14,533.59,10.49Z"/><path class="empty" d="M528.68,17.49l.19.22c.62-.4,1.6.52,2-.72.52-1.62,1.08-3.24,1.63-4.85l-.21-.07Z"/><path class="empty" d="M532.51,9q-8.2,0-16.41,0a1.15,1.15,0,0,0-.81.35c-.9,1.16-1.74,2.37-2.74,3.74L532.82,9.4C532.7,9.08,532.6,9,532.51,9Z"/><path class="empty" d="M542.45,16.95a3,3,0,0,0,1.78.66c5.43,0,10.86,0,16.3,0,1.33,0,2.66.23,4.2.37l4-8.25H534.31C537.19,12.33,539.79,14.68,542.45,16.95Z"/><path class="empty" d="M307.29,80.52h17.53V18.11H307.36c-3.62,0-5.54,1.92-5.54,5.55q0,25.67,0,51.35C301.82,78.58,303.75,80.52,307.29,80.52Zm-2.78-53.71a4.55,4.55,0,0,1,4.55-4.39c3,.11,6.08,0,9.11,0a3.73,3.73,0,0,1,4,4.06V39.34q0,6.6,0,13.19A3.86,3.86,0,0,1,318.86,56c-3.56,0-7.11,0-10.67,0a4,4,0,0,1-3.68-4.13Q304.45,39.34,304.51,26.81Z"/><path class="empty" d="M164.27,32.6a1.35,1.35,0,0,0,.14-1.14c-3.13-6.34-6.3-12.65-9.54-19.11-7.89,4-15.67,7.86-23.44,11.79a1.28,1.28,0,0,0-.54.9,12.21,12.21,0,0,0,0,2.51,1.27,1.27,0,0,0,.68.89q13.94,4.75,27.92,9.41a1.32,1.32,0,0,0,1.15-.34C161.9,35.92,163.1,34.27,164.27,32.6Z"/><path class="empty" d="M308.4,55.47c3.47.15,6.95.12,10.42.05a3.39,3.39,0,0,0,2.93-3.29q0-6.41,0-12.83t0-12.59c0-2.46-1.3-3.84-3.77-3.87q-4.44-.06-8.87,0a3.88,3.88,0,0,0-4.06,4q-.07,12.41,0,24.82A3.5,3.5,0,0,0,308.4,55.47Z"/><path class="empty" d="M152.52,82.95c176.67,0,153.34,0,330,0h1.4c-.19-.54-.31-.91-.46-1.27-2.46-6-4.9-12-7.41-18a1.79,1.79,0,0,1,.24-2q16-21.78,32-43.6l6.57-9H184a2.38,2.38,0,0,0-.83,0,3.28,3.28,0,0,0-1.42.78q-19.07,25.89-38.1,51.81a1.93,1.93,0,0,0-.24,2.16q3.74,9,7.38,18A1.56,1.56,0,0,0,152.52,82.95Zm278-55.41c0-3.47,2.11-5.59,5.6-5.6,5.6,0,11.2,0,16.79,0h16.55c3.72,0,5.86,2.15,5.86,5.89q0,11.34,0,22.67c0,3.64-2.16,5.86-5.79,5.86-11.07,0-22.15,0-33.22,0a5.63,5.63,0,0,1-5.84-5.94C430.63,42.8,430.52,35.17,430.52,27.53Zm-58.4.17c0-3.68,2.1-5.77,5.8-5.77H411c3.69,0,5.77,2.1,5.77,5.8q0,11.39,0,22.79c0,3.68-2.1,5.76-5.8,5.77H377.89c-3.68,0-5.77-2.1-5.77-5.8Q372.12,39.1,372.13,27.7Zm-70.78-4.3c0-3.67,2.11-5.76,5.82-5.77H344c3.75,0,5.82,2.09,5.82,5.88q0,12.9,0,25.79t0,26c0,3.51-2.16,5.64-5.69,5.64H307.05c-3.59,0-5.7-2.14-5.7-5.76Q301.35,49.32,301.35,23.41Zm-67.94,4.24c0-3.61,2.11-5.71,5.74-5.71h33.23c3.61,0,5.71,2.11,5.71,5.73q0,11.46,0,22.91c0,3.61-2.12,5.71-5.74,5.71H239.12c-3.61,0-5.71-2.11-5.71-5.73Q233.4,39.1,233.41,27.65Zm-55.79-5.09a7.19,7.19,0,0,1,3.08-.75c4.36-.08,8.72-.05,13.08,0,6.59,0,13.18.1,19.78.14,4.17,0,6.14,2,6.14,6.16q0,11.22,0,22.43c0,3.56-1.87,5.69-5.43,5.76-5.67.12-11.35,0-17,0H180.79c-3.69,0-5.76-2.09-5.79-5.79q-.07-11.39-.16-22.77C174.83,25.52,175.58,23.62,177.62,22.56Z"/><path class="empty" d="M555.34,81H544.55c-1.76,0-1.76,0-2.31,1.88h15.91C557.16,81,557.16,81,555.34,81Z"/><path class="empty" d="M239.32,55.81h32.86c3.47,0,5.41-1.94,5.41-5.42q0-11.27,0-22.55c0-3.47-1.95-5.41-5.43-5.41H239.31c-3.47,0-5.41,1.94-5.41,5.43q0,11.27,0,22.55C233.9,53.87,235.84,55.81,239.32,55.81Z"/><path class="empty" d="M343.91,80.52c3.48,0,5.44-1.95,5.44-5.41q0-25.79,0-51.59c0-3.46-2-5.41-5.44-5.41H325.6V80.52h18.3ZM328.26,26.61a4.24,4.24,0,0,1,4.35-4.17q4.68,0,9.35,0a3.73,3.73,0,0,1,4,4.1V52A3.88,3.88,0,0,1,341.91,56c-3.12,0-6.24-.09-9.35,0a4.16,4.16,0,0,1-4.28-4.15Q328.18,39.27,328.26,26.61Z"/><path class="empty" d="M180.91,55.81h16.31v0c5.52,0,11,0,16.55,0,3.5,0,5.42-2,5.42-5.43q0-11.28,0-22.55c0-3.47-1.94-5.41-5.43-5.42l-32.62-.07c-3.89,0-5.73,1.83-5.72,5.72q0,11.15.07,22.3C175.5,53.86,177.44,55.81,180.91,55.81Z"/><path class="empty" d="M590.08,31.59l-.18-.07L578.67,54l11.41,1.57Z"/><path class="empty" d="M590.07,56.07l-11.33-1.55,11.33,22.65Z"/><path class="empty" d="M583.29,64.87l-5.14-10.28c-3.56,1.78-7,3.48-10.39,5.25a1.59,1.59,0,0,0-.63,1.2c0,4.24,0,8.47-.05,12.71a1.32,1.32,0,0,0,1.11,1.49c7,2.34,14.07,4.73,21.1,7.1a5.68,5.68,0,0,0,.79.15A10.27,10.27,0,0,0,589,76.21C587,72.5,585.19,68.66,583.29,64.87Z"/><path class="empty" d="M567.56,50.57a1.49,1.49,0,0,0-.44.91c0,2.59,0,5.18,0,8,3.49-1.75,6.78-3.37,10-5.06A3.36,3.36,0,0,0,578.5,53q5.67-11.22,11.23-22.49a12.39,12.39,0,0,0,.59-2.57,4.11,4.11,0,0,0-.61.34Q578.63,39.44,567.56,50.57Z"/><path class="empty" d="M2.5,86.45H590.1V83.32H1.55Z"/><path class="empty" d="M560.7,82.92h27.83l.05-.23L567.2,75.48C566.69,79.36,564.82,81,561,81h-3.25C558.87,82.92,558.87,82.92,560.7,82.92Z"/><path class="empty" d="M559.42,22.93c-2.92,0-5.84.06-8.76,0A4.17,4.17,0,0,0,546.53,27c0,8.2-.07,16.39,0,24.59,0,2.17,1.05,3.84,3.47,3.95,3.31.15,6.64.15,10,0a3.37,3.37,0,0,0,3.29-3.71q0-6.24,0-12.47t0-12.47C563.27,24.34,562,23,559.42,22.93Z"/><path class="empty" d="M561.75,18.13c-6,0-12,0-18,0a1.5,1.5,0,0,0-.37.11V80.52h17.83c3.46,0,5.4-2,5.41-5.44q0-7.32,0-14.64,0-18.54,0-37.07C566.62,20.29,564.69,18.15,561.75,18.13Zm2,21.18V52A3.81,3.81,0,0,1,560,56c-3.48.06-7,0-10.43,0-1.82,0-3.52-2-3.53-4.13q0-12.59,0-25.18a4.25,4.25,0,0,1,4.28-4.24q4.74,0,9.47,0a3.71,3.71,0,0,1,4,4Z"/><path class="empty" d="M8.18,82.13c-.4-3-.94-5.8-1.12-8.66A83.57,83.57,0,0,1,8.53,52.85a135.53,135.53,0,0,1,9.35-30.69c.93-2.07,1.79-4.18,2.82-6.2a5.64,5.64,0,0,1,3.69-3.26L24,4.92a5.88,5.88,0,0,0-1.39.65,13.76,13.76,0,0,0-1.8,1.91,54.54,54.54,0,0,0-6.6,12.32,139.14,139.14,0,0,0-8.9,33.73A149.35,149.35,0,0,0,3.71,79.7a2.94,2.94,0,0,0,.6,1.45C5.32,82.62,6.84,82.11,8.18,82.13Z"/><path class="empty" d="M32.1,11.29c4.24-.74,8.45-1.67,12.71-2.21a82.12,82.12,0,0,1,10.26-.53c244.56,0,289.12,0,533.68,0h1.34v-7h-1.87c-245.32,0-290.64,0-536,0a76.8,76.8,0,0,0-9,.84c-3.78.45-7.55,1-11.32,1.52L24.5,5l.39,7.47C27.4,12.06,29.75,11.7,32.1,11.29Z"/><path class="empty" d="M590.06,9c-6.39,0-12.69,0-19,0a6,6,0,0,0-1.46.48l20.46,12.67Z"/><path class="empty" d="M523.79,82.83a18,18,0,0,0,4,.08c-.32-1.92-.32-1.92-2-1.92H522C522.57,81.65,523.08,82.67,523.79,82.83Z"/><path class="empty" d="M12.6,38.28a26.3,26.3,0,0,1,2.81-1.38,3.35,3.35,0,0,0,2.17-2.48,22.61,22.61,0,0,1,.7-2.15c.62-1.55,1.22-3.12,2-4.61a1.75,1.75,0,0,1,2.19-1c1,.29.91,1.08.9,1.85,0,1.41,0,2.81,0,4.38a18.3,18.3,0,0,1,2-1,1.53,1.53,0,0,0,1.11-1.81c-.08-1.71,0-3.43,0-5.15,0-2.14-.31-4.37,1.79-5.88l-5-5.29C20.83,15.48,14.27,30.64,12.6,38.28Z"/><path class="empty" d="M95.07,81c-2.36,0-4.67.13-7,0a3.46,3.46,0,0,0-3.39,1.83C87.85,83.35,93.3,82.42,95.07,81Z"/><path class="empty" d="M27.69,17.73c.59.66,1.06,1,2,.46a5.84,5.84,0,0,1,2.54-.49c2.67-.06,5.34,0,8,0l3.89-7.86L23.54,13.28C25.1,14.94,26.42,16.31,27.69,17.73Z"/><path class="empty" d="M65.29,79.08c-1.85,2.78-4.59,1.84-5.43-.3-.28-.7-.42-1.46-.68-2.16a1.84,1.84,0,0,0-.64-.93c-1-.59-2.11-1.09-3.38-1.73,0,1.86,0,3.46,0,5.05,0,1.36-.53,1.82-1.7,1.77s-1.22-1-1.25-1.81c-.06-1.88,0-3.76,0-5.64,0-.78-.22-1.22-1.15-1.24L45.61,82.86H72.82Z"/><path class="empty" d="M39.64,18.19c-2.68-.09-5.36-.09-8,0a4.77,4.77,0,0,0-4.66,4.91q0,26.22,0,52.43a4.73,4.73,0,0,0,4.53,4.93c2.75.13,5.52.13,8.28,0a4.94,4.94,0,0,0,4.71-5.1V49.68h0q0-13.2,0-26.39A4.86,4.86,0,0,0,39.64,18.19Zm1.22,27.75c0,1.91-.77,3.19-2.6,3.42a22.42,22.42,0,0,1-5.8-.08,2.85,2.85,0,0,1-2.38-3.12q0-9.95,0-19.9a3.27,3.27,0,0,1,3.31-3.34q2.1,0,4.2,0a3.22,3.22,0,0,1,3.28,3.36c0,3.32,0,6.63,0,9.95S40.86,42.7,40.86,45.94Z"/><path class="empty" d="M79,82.74c-.5-2.07-.5-2.07-2-1.89C77.79,82.48,78.21,82.87,79,82.74Z"/><path class="empty" d="M77.42,83l0-.36L73,76.77c0,1.06,0,1.77,0,2.47-.07.9-.38,1.62-1.51,1.56a1.53,1.53,0,0,1-1.57-1.69c0-1.8-.07-3.6,0-5.39s-1.11-2.46-2-3.72c-.79,2.74-1.47,5.23-2.23,7.7-.22.7.12.9.63,1.15,2.47,1.22,4.87,2.58,7.4,3.65A14.47,14.47,0,0,0,77.42,83Z"/><path class="empty" d="M22.22,27.13c-.77-.39-1.31.29-1.68.94a6.38,6.38,0,0,0-.45,1c-.8,2.12-1.58,4.25-2.39,6.36-1.51,3.94-3.06,7.87-4.56,11.81a8.39,8.39,0,0,0-.56,2.06c-.13,1.23.55,1.77,1.72,1.47L21,49a2.15,2.15,0,0,0,1.9-2.48q0-4.49,0-9c0-3,0-5.91,0-8.86C22.83,28.15,22.6,27.33,22.22,27.13Z"/><path class="empty" d="M144,9a1.89,1.89,0,0,0-1.06.64c-3.74,3.72-7.43,7.5-11.2,11.18a2.6,2.6,0,0,0-.78,2.8l1.34-.66c7-3.49,13.9-7,20.91-10.42,1.6-.78,2.2-2,2.86-3.58C152,9,148,9,144,9Z"/><path class="empty" d="M181.48,9.16c-.17-.1-.2-.14-.23-.14Q169.33,9,157.4,9c-.25,0-.62.08-.72.26-.45.77-.82,1.58-1.21,2.38a2.76,2.76,0,0,0,.41.18c6.93,1,13.87,1.95,20.81,2.89a1.26,1.26,0,0,0,1-.39C179,12.64,180.19,10.92,181.48,9.16Z"/><path class="empty" d="M176.95,15.34l-21.5-3.1,9.65,19.29Z"/><path class="empty" d="M123.48,17.58l4,.21L129.77,9H121.3Z"/><path class="empty" d="M128.21,17.55a1.18,1.18,0,0,0,.25.91c.72.83,1.5,1.59,2.12,2.24L142.5,9.05H130.38C129.64,11.91,128.9,14.73,128.21,17.55Z"/><path class="empty" d="M97.14,9a.93.93,0,0,0-.7.45c-.33.79-.57,1.62-.85,2.48,3.85,1.86,7.58,3.69,11.33,5.47a3.37,3.37,0,0,0,1.39.22c3.6,0,7.2,0,10.8,0h3.81L120.72,9C112.81,9,105,9,97.14,9Z"/><path class="empty" d="M37.41,23.4c-1.32,0-2.64,0-4,0a2.81,2.81,0,0,0-2.91,3q0,9.84,0,19.68a2.85,2.85,0,0,0,2.88,3c1.36.06,2.72.06,4.08,0A2.84,2.84,0,0,0,40.39,46q0-4.86,0-9.72c0-3.28,0-6.56,0-9.84A2.79,2.79,0,0,0,37.41,23.4Z"/><path class="empty" d="M80.09,82.84c2,.8,4.07-.05,5.4-2H78.92C79.35,81.6,79.55,82.63,80.09,82.84Z"/><path class="empty" d="M378,55.81H410.9c3.48,0,5.42-1.94,5.42-5.42q0-11.27,0-22.55c0-3.47-1.94-5.42-5.42-5.42H378c-3.48,0-5.42,1.94-5.42,5.42q0,11.27,0,22.55C372.62,53.87,374.56,55.81,378,55.81Z"/><path class="empty" d="M436.24,55.82h33.35a4.79,4.79,0,0,0,5.16-5.14q0-11.52,0-23a4.82,4.82,0,0,0-5.22-5.22H436.19A4.82,4.82,0,0,0,431,27.58q0,11.52,0,23C431,53.85,433,55.82,436.24,55.82Z"/><path class="empty" d="M332.17,55.47c3.35.17,6.71.18,10.06,0,2.1-.09,3.27-1.63,3.27-3.72q0-6.24,0-12.47t0-12.47c0-2.52-1.32-3.9-3.86-3.92-2.92,0-5.84.05-8.75,0A4.17,4.17,0,0,0,328.76,27c0,8.2-.07,16.39,0,24.59C328.83,53.7,329.79,55.35,332.17,55.47Z"/><path class="empty" d="M149.9,82.92c.2,0,.39,0,.79-.06-1.12-2.74-2.16-5.33-3.27-7.88-.1-.22-.79-.37-1.11-.27-2.93.93-5.84,1.91-8.76,2.9a2.8,2.8,0,0,0-1.06.52c-2.29,2.23-5.08,2.79-8.19,2.93-2,.09-4.05,1-6.08,1.53l.09.33Z"/><path class="empty" d="M124.87,81c-2.41,0-4.54.13-6.64,0a3.62,3.62,0,0,0-3.6,1.85A17.31,17.31,0,0,0,124.87,81Z"/><path class="fg" d="M590.62,2.75c0-1.67,0-1.67-1.69-1.67-245,0-290,0-535,0a73.38,73.38,0,0,0-8.83.54C38.75,2.41,32.4,3.47,26,4.16a7.75,7.75,0,0,0-6,3.51,68.11,68.11,0,0,0-7.93,16.1c-6.26,17.44-8.89,35.5-9,54,0,1.81.06,3.61,1.89,4.7,0,0,0,.13,0,.15L1,82.92v.72a8,8,0,0,1,.63,1.76C1.82,86.76,2.54,87,3.82,87Q30.28,87,56.74,87H588.83c2,0,1.79.21,1.79-1.8Q590.62,44,590.62,2.75ZM590,24.83,567.1,29.5c0-2.18,0-4.21,0-6.25A5.7,5.7,0,0,0,565.47,19a1,1,0,0,1-.18-.89c1.28-2.71,2.6-5.39,4-8.2l3.6,2.2c5.3,3.28,10.58,6.6,15.91,9.84C589.85,22.64,590.54,23.31,590,24.83Zm-.69,3.11q-10.56,10.53-21.07,21.13a2.73,2.73,0,0,1-1,.81V30L590,25.37A2.29,2.29,0,0,1,589.28,27.95ZM541.35,80.52h-16.8c-3.47,0-5.45-2-5.45-5.4q0-25.79,0-51.59c0-3.47,2-5.42,5.43-5.42h18V80.52Zm.84.54a2,2,0,0,1-2.38,1.9c-3.71-.12-7.42,0-11.23,0l-.65-1.86ZM502.55,56a1.09,1.09,0,0,1-.09.38Q496,69.26,489.52,82.1a1.81,1.81,0,0,1-2.53.66c-.91-.4-1.8-.87-2.67-1.35a1.49,1.49,0,0,1-.64-.66c-2.34-5.67-4.66-11.36-7-17.19l16-5.35c3-1,5.91-2,8.87-2.93a.91.91,0,0,1,.26,0,2.36,2.36,0,0,1-.27-.61l-.15.07q-12.25,4.11-24.52,8.19c-.11,0-.23,0-.77.13.38-.62.56-1,.79-1.31,3.46-4.73,6.94-9.45,10.39-14.19.42-.58.74-.76,1.45-.41,4.22,2.09,8.47,4.13,12.69,6.21l.09.07a2.36,2.36,0,0,1,.23-.56l-13.51-6.56,5.27-7.22,8.75,13.14a2.38,2.38,0,0,1,.47-.32q-4.26-6.39-8.51-12.79a1,1,0,0,1,0-.93c1.52-2.13,3.09-4.23,4.81-6.56l4.12,20.12a2.36,2.36,0,0,1,.69-.12,1.61,1.61,0,0,1-.09-.27c-1.36-6.52-2.71-13-4-19.59a2.33,2.33,0,0,1,.37-1.62q5.61-7.76,11.33-15.44a2.52,2.52,0,0,1,1.39-.93c6.39-1.22,12.79-2.37,19.2-3.54a5.61,5.61,0,0,1,.79,0c-1.62,2.44-3.11,4.71-4.64,6.94a1.42,1.42,0,0,1-1,.47c-1.08.06-2.16,0-3.24,0a5.18,5.18,0,0,0-5.26,5.23c0,2.52,0,5,0,7.56a3.49,3.49,0,0,1-.53,1.77q-6.44,9.75-13,19.44a1.46,1.46,0,0,1-.22.25,2.38,2.38,0,0,1,.62.46,1.71,1.71,0,0,1,.16-.32q6-9.16,12.16-18.27c.19-.28.4-.55.8-1.09v1.22q0,9.3,0,18.6c0,1.54,0,1.58-1.52,1.57-3.48,0-7,0-10.44-.12a1.83,1.83,0,0,1-.5-.1c0,.05,0,.11,0,.16a2.36,2.36,0,0,1-.11.7,2.19,2.19,0,0,1,.64-.12c3.52,0,7,0,10.55,0,1.22,0,1.38.58,1.38,1.53q0,7,0,14v5.54c-.38-.5-.58-.73-.74-1q-6.09-9.12-12.15-18.26a2.33,2.33,0,0,1-.3-.69,2.38,2.38,0,0,1-.65.44,3.12,3.12,0,0,1,.42.51q6.49,9.73,13,19.46c1.46,2.2,2.88,4.43,4.37,6.73H489.81c.17-.39.29-.71.45-1l12.62-25.05a3.19,3.19,0,0,1,.31-.5A2.37,2.37,0,0,1,502.55,56ZM22.39,76.94c1.06,1.91,2.1,3.83,3.25,5.94H19.88c.47-2,.93-4,1.41-6l0,0a2.36,2.36,0,0,1-.62-.11l-1.45,6.13H14.33l6-6.26a2.38,2.38,0,0,1-.49-.32,9,9,0,0,0-1.08.83A40.07,40.07,0,0,0,15,80.91a5.34,5.34,0,0,1-5.33,2c-.55-.07-1-.1-.85-.79a1.23,1.23,0,0,0,0-.35c-.29-2.12-.3-2.12,1.74-2.84l8.66-3.07.23-.07a2.38,2.38,0,0,1-.25-.48c-3.59,1.3-7.19,2.57-11,3.93a67.89,67.89,0,0,1-.25-19c2.11,2.3,4,4.37,5.92,6.45S17.67,70.9,19.55,73a2.39,2.39,0,0,1,.37-.37L15.72,68c-2.34-2.57-4.71-5.11-7-7.72a2.23,2.23,0,0,1-.49-1.56c.35-2.84.79-5.67,1.21-8.51l.35-.09L20.15,72.44a2.36,2.36,0,0,1,.45-.22l0-.06C17.13,64.82,13.7,57.48,10.34,50.1a4.06,4.06,0,0,1-.23-2.39c.56-2.61,1.23-5.2,2-7.76a2.91,2.91,0,0,1,1.2-1.45,31,31,0,0,1,3-1.51l.2.22c-1.1,2.86-2.21,5.71-3.29,8.57a27.4,27.4,0,0,0-1,2.95c-.48,1.89.61,2.92,2.48,2.43,2.11-.56,4.23-1.11,6.35-1.65,1.74-.44,2.35-1.23,2.35-3.08,0-3.88,0-7.76,0-11.64,0-1,.22-1.65,1.22-2a19.37,19.37,0,0,0,1.94-.91v1.47c0,7.28,0,14.56,0,21.84a18.47,18.47,0,0,1-.7,4.69C24.61,64,23.35,68,22.1,72a1.06,1.06,0,0,1-.06.14,2.36,2.36,0,0,1,.48.19C23.75,68.23,25,64.1,26.26,60l.18.08V73.91c-.9.12-1.78.27-2.67.34,0,.07,0,.14,0,.21a2.37,2.37,0,0,1,0,.35,1.53,1.53,0,0,1,.36-.08l2.29-.25a8.56,8.56,0,0,1,.06,1A5.27,5.27,0,0,0,31.68,81c2.64.09,5.28.06,7.92,0a6.22,6.22,0,0,0,4.88-2.85,3.44,3.44,0,0,0,.45-1.81c.07-1.27,0-2.54,0-3.89l5.44-.61a8.83,8.83,0,0,1-.31.87c-1.58,3.14-3.17,6.27-4.73,9.42a1.3,1.3,0,0,1-1.36.86q-8.4,0-16.79,0a1.24,1.24,0,0,1-1.32-.73c-.92-1.81-1.94-3.58-2.91-5.37a1.38,1.38,0,0,1-.14-.45,2.36,2.36,0,0,1-.62.32A.94.94,0,0,1,22.39,76.94ZM76.8,9.8l-1.22-.62c2.26-.33,2.79-.36,3.32.74a2.36,2.36,0,0,1,1.51-.56h0l-.19-.32h1.65l.15.3-.45.34a2.39,2.39,0,0,1,.53.39A2.39,2.39,0,0,1,83.8,9H96a13.49,13.49,0,0,1-.76,2.24,1.47,1.47,0,0,1-1.11.55c-3.51,0-7,0-10.53,0a3.46,3.46,0,0,1-.81-.07s0,0,0,.06a2.37,2.37,0,0,1-.08.59,1.56,1.56,0,0,1,.34,0c2.36,0,4.72,0,7.08,0h.6l4.29.13,1.81,5.09c-4,.38-7.87-.39-11.78.54-1-1.44-2-2.91-2.94-4.43a1.07,1.07,0,0,1-.08-.17,2.38,2.38,0,0,1-.56.38,3.29,3.29,0,0,1,.45.54c.89,1.33,1.77,2.66,2.72,4.11-2.13,1.51-2.31,3.71-2.29,6.07.06,7,0,14,0,21v1.47L66,41.62l5.17-10.28,8.47-16.8a3.65,3.65,0,0,1,.28-.47,2.35,2.35,0,0,1-.56-.22.86.86,0,0,1,0,.12Q72.44,27.56,65.58,41.14a1.77,1.77,0,0,1-.2.24L54.47,35.91c-2.89-1.45-5.77-2.92-8.67-4.34a1.38,1.38,0,0,1-.92-1.46c.05-1.68,0-3.36,0-5a1.1,1.1,0,0,1,.9-1.28Q62,18.43,78.28,13l.12,0a2.37,2.37,0,0,1-.26-.58c-3.17,1.09-6.35,2.14-9.53,3.21L45.68,23.33c-.19.06-.39.09-.69.16-.1-2.79-1.29-4.81-4.28-5.61,1.32-2.66,2.55-5.17,3.84-7.65a1.53,1.53,0,0,1,1-.63A42.06,42.06,0,0,1,50.92,9C58.08,9,65.24,9,72.4,9a9.41,9.41,0,0,1,4,1.29c.58.26,1.15.53,1.7.84a2.36,2.36,0,0,1,.23-.53Zm66,53.72c.61,1.24,1.07,2.56,1.7,4.12-2-.68-3.83-1.2-5.56-1.93-.53-.22-.83-1-1.21-1.55A10.05,10.05,0,0,0,130.86,60V58.24c0-2.87,0-5.75,0-8.62a1.09,1.09,0,0,1,.81-1.23c1.9-.71,3.79-1.47,5.67-2.25a1.39,1.39,0,0,1,1.93.6L146,57.56c-1,1.41-2,2.75-3,4A1.59,1.59,0,0,0,142.75,63.52ZM118.06,77.68a95.53,95.53,0,0,1-7-6.55h2.26c2.76,0,4.58-1.2,5.26-3.44a6.18,6.18,0,0,0-2.17-6.93,4.62,4.62,0,0,0-2.25-.6c-2.28-.08-4.55,0-6.93,0v-42H125c3.48,0,5.43,1.95,5.44,5.41q0,17.57,0,35.14v1.15c-6.84.65-10.14,3-11.43,8.13-1.22,4.84.76,8.84,6.28,12.51h-6.3C119.49,79.26,119,78.45,118.06,77.68Zm-9-3.84c2.45,2.14,4.88,4.3,7.52,6.63h-9.46V63.23c2.44,0,4.82-.09,7.19,0,1.09.06,1.54,1.27,1.35,3A1.74,1.74,0,0,1,114,68.07c-.92,0-1.84,0-2.75,0a3.38,3.38,0,0,0-3.34,2.06A3.3,3.3,0,0,0,109.11,73.84Zm1.39.55c-.45-.39-.91-.78-1.36-1.18a2.52,2.52,0,0,1-.76-2.83,2.46,2.46,0,0,1,2.35-1.74c1-.06,1.92,0,2.88,0,1.8-.05,2.62-.94,2.63-2.82,0-2.12-.74-3.08-2.58-3.12-2.31-.05-4.62,0-7,0v5.08q0,5.52,0,11c0,.76,0,1.56-1,1.52s-.91-.82-.91-1.52q0-7.74,0-15.48a2.34,2.34,0,0,1,2.66-2.65c2.08,0,4.16,0,6.24,0,2.93,0,4.64,1.92,4.64,5.06s-1.74,4.89-4.64,4.95c-.76,0-1.52,0-2.28,0a4.17,4.17,0,0,0-1,.37,3.36,3.36,0,0,0,.53,1c1.94,1.73,3.91,3.43,5.87,5.14L118,78.32c.53.45.94,1,.38,1.63s-1.14.34-1.66-.12Zm-6.31,4.91a9.36,9.36,0,0,0,.15,1.18H97.87V76.91c0-3.16,0-6.32,0-9.48,0-2.55-1.1-3.62-3.68-3.63-.88,0-1.76,0-2.64,0a7.23,7.23,0,0,1-1-.17c0-.12,0-.24,0-.36.4,0,.81-.09,1.21-.09,3.36,0,6.72,0,10.08,0,1.34,0,2-.54,1.93-1.56a1.35,1.35,0,0,0-1.39-1.47c-4,0-8.08-.05-12.12,0-1.67,0-2.85,1.58-2.83,3.48a3.41,3.41,0,0,0,3.35,3.22c1.31.05,2.63,0,4.13,0v13.6H86.95c.18-2.35-.16-2.75-2.52-2.7-1,0-1.43-.34-1.47-1.25s0-1.73,0-2.6c3.14-.44,4.07-1.29,4-3.67,0-1.9-1.33-2.93-4.11-3.2V63.17c.79,0,1.54,0,2.27,0,1.12,0,2-.71,2-1.49s-.87-1.55-2-1.56l-1.92,0a2,2,0,0,1-.36-.12V58.75q0-17.52,0-35c0-3.71,1.9-5.6,5.61-5.6h17.92v1.33q0,19.74,0,39.48a1.46,1.46,0,0,1-.86,1.59,2.52,2.52,0,0,0-1.37,2.36C104.19,68.34,104.18,73.82,104.19,79.3ZM95.38,67.68c.07-1.17-.38-1.46-1.44-1.38a28.22,28.22,0,0,1-3,0,2.84,2.84,0,1,1,0-5.67c3.68,0,7.35,0,11,0,.72,0,1.33.24,1.29,1.06s-.69,1-1.39,1H92a2.49,2.49,0,0,0-.95,0,7.28,7.28,0,0,0-1.15.79c.4.3.78.8,1.21.85,1.19.12,2.39,0,3.59,0A2.37,2.37,0,0,1,97.32,67c0,4,0,8,0,12,0,.7-.11,1.34-1,1.34s-1-.62-1-1.33c0-2,0-3.91,0-5.87C95.35,71.27,95.27,69.47,95.38,67.68Zm-21,9.09c0,.14,0,.28-.07.59A3.35,3.35,0,0,1,73,74.73c.07-3.1,0-6.2,0-9.31h.25q1,2.81,1.91,5.62c.06.18.15.46.06.57C73.93,73.17,74.58,75,74.42,76.78Zm-4-13c0-.39-.35-.78-.53-1.16-.25.32-.62.6-.73,1-1.32,4.56-2.61,9.14-3.9,13.71-.58,2-1.49,3-2.77,3s-2.12-1-2.68-3l-3.7-13.14a3.9,3.9,0,0,0-.34-1c-.14-.23-.45-.36-.68-.53a2.45,2.45,0,0,0-.42.66,4,4,0,0,0,0,1q0,7.07,0,14.15a2.68,2.68,0,0,1-.1,1.17,1.37,1.37,0,0,1-.92.71c-.32,0-.7-.41-.94-.72s-.07-.54-.07-.82q0-7.56,0-15.11c0-.12,0-.24,0-.36a2.69,2.69,0,0,1,2.2-2.63,2.44,2.44,0,0,1,2.84,1.85c.85,2.75,1.6,5.52,2.39,8.28.58,2,1.14,4.07,1.73,6.1a14.1,14.1,0,0,0,.56,1.37l.44,0a15.19,15.19,0,0,0,.58-1.47Q65.23,70.3,67,63.84c.14-.5.27-1,.46-1.48a2.49,2.49,0,0,1,2.79-1.76,2.56,2.56,0,0,1,2.2,2.48q.06,8,0,16.07a1.52,1.52,0,0,1-.95,1.09c-.76.16-1-.49-1-1.15,0-1.4,0-2.8,0-4.2C70.49,71.17,70.51,67.46,70.47,63.74Zm-.61.24v7.27c-1.65-1.31-1.78-1.79-1.19-3.72.37-1.19.69-2.39,1-3.59ZM58.73,75c-.33-.1-.41-.11-.48-.14-3.09-1.39-3.09-1.39-3.09-4.77V63.69l.28-.05ZM45.06,53.08a2.26,2.26,0,0,1-.11-.7q0-6.35,0-12.7l.24-.11q3,4.06,6.09,8.11,6.89,9.21,13.79,18.42a1.73,1.73,0,0,1,.31,1.74c-.87,2.89-1.67,5.8-2.5,8.7,0,.13-.18.24-.45.59-.34-1.29-.62-2.39-.92-3.47-1.05-3.73-2.07-7.47-3.2-11.17a2.89,2.89,0,0,0-2.52-2.38c-1.31-.11-2.53.1-3.14,1.42a5.58,5.58,0,0,0-.45,2.18c-.05,2.6,0,5.19-.28,8-.32-.35-.79-.64-.93-1.05C49,64.8,47,58.94,45.06,53.08Zm5.56,18.16L45,71.88V55.12l.14-.06ZM44.92,31.74c.4.15.7.23,1,.37q9.29,4.7,18.57,9.42a2.33,2.33,0,0,1,1.1,1.12c2,5.65,3.86,11.33,5.77,17,.06.18.09.38.16.68-2.64-.68-4,.1-4.71,2.58-.3,1-.6,2-1,3.25-2.37-3.13-4.62-6.08-6.84-9q-6.73-9-13.42-17.93a3.29,3.29,0,0,1-.6-1.73C44.88,35.6,44.92,33.73,44.92,31.74ZM66,42.23l9,3c2.2.73,4.41,1.43,6.59,2.21.32.11.76.53.76.82.05,3.91,0,7.82,0,11.89H77.56a2.87,2.87,0,0,0-3.13,3.1,13.65,13.65,0,0,1-.26,3.07Zm9.21,27.16c2.37,1.46,4.83.42,7.1.92v.38H75.65Zm-.29,4.66a2.42,2.42,0,0,1,2.74-2.73c1.8,0,3.6,0,5.4,0,.66,0,1.45,0,1.34-.91,0-.31-.85-.73-1.33-.75-1.71-.09-3.44,0-5.16,0-2.12,0-3-.91-3-3,0-1.08,0-2.16,0-3.24a2.5,2.5,0,0,1,2.75-2.75c1.24,0,2.48,0,3.72,0h3.72c.71,0,1.33.17,1.33,1s-.65,1-1.35,1c-2.36,0-4.72,0-7.08,0-.89,0-1.23.3-1.17,1.19a23.06,23.06,0,0,1,0,2.76c0,.79.29,1.05,1.06,1,1.72,0,3.44,0,5.16,0,2.09,0,3.41,1.14,3.39,2.89s-1.3,2.79-3.34,2.8c-1.72,0-3.44,0-5.16,0-.85,0-1.14.3-1.09,1.12a23,23,0,0,1,0,2.76c-.05.86.32,1.12,1.12,1.11,2.32,0,4.64,0,7,0,.71,0,1.48,0,1.49,1s-.78,1-1.54,1c-2.36,0-4.72,0-7.08,0-1.95,0-2.88-.94-2.89-2.85C74.94,76.29,74.94,75.18,74.95,74.06Zm7.37-10.82v3.83H77.5V63.24Zm.23,14.47c-1.35,0-2.73,0-4.12,0a.89.89,0,0,1-.61-.58c-.22-1-.35-2.08-.54-3.25h5ZM97.26,16.92c-.51-1.29-.92-2.62-1.48-4.27l9.81,4.75,0,.24c-2.47,0-4.94,0-7.41,0A1.25,1.25,0,0,1,97.26,16.92Zm21.88,53.44a10.05,10.05,0,1,1,10,10.15A10.13,10.13,0,0,1,119.14,70.36Zm20.41,2.12a1.14,1.14,0,0,1,.78-.64c1.72-.06,3.44,0,5.16,0,1.26,0,.89,1.22,1.57,1.92l-9,3C138.57,75.27,139,73.86,139.55,72.48Zm.3-1.34-.55-4.62a28,28,0,0,1,5,1.76c.8.45,1.12,1.76,1.75,2.86Zm-8.93-23.07V34.87c2.35,3.32,4.54,6.36,6.67,9.45a1.18,1.18,0,0,1-.16,1.1C135.32,46.34,133.17,47.17,130.93,48.07Zm8.27-2.54,17.06-2-9.89,13.49ZM156,43c-5.35.63-10.69,1.27-16.05,1.79a2.52,2.52,0,0,1-1.88-.92c-2.36-3.17-4.62-6.42-6.91-9.65a1.47,1.47,0,0,1-.31-.75c0-1.51,0-3,0-4.68l29,9.79c-1,1.41-2,2.71-2.93,4A1.47,1.47,0,0,1,156,43Zm3.46-5.19q-14-4.66-27.92-9.41a1.27,1.27,0,0,1-.68-.89,12.21,12.21,0,0,1,0-2.51,1.28,1.28,0,0,1,.54-.9c7.77-3.93,15.55-7.83,23.44-11.79,3.23,6.46,6.41,12.78,9.54,19.11a1.35,1.35,0,0,1-.14,1.14c-1.16,1.68-2.36,3.32-3.62,4.93A1.32,1.32,0,0,1,159.49,37.86Zm-4.05-25.62,21.5,3.1L165.09,31.53Zm21.24,2.47c-6.94-.94-13.87-1.92-20.81-2.89a2.76,2.76,0,0,1-.41-.18c.4-.8.77-1.61,1.21-2.38.1-.17.48-.26.72-.26q11.93,0,23.85,0s.06,0,.23.14c-1.29,1.76-2.52,3.48-3.8,5.16A1.26,1.26,0,0,1,176.69,14.71Zm-23.46-2.13c-7,3.39-13.95,6.93-20.91,10.42l-1.34.66a2.6,2.6,0,0,1,.78-2.8c3.77-3.69,7.47-7.46,11.2-11.18A1.89,1.89,0,0,1,144,9c4,0,8,0,12.08,0C155.43,10.55,154.83,11.8,153.23,12.58ZM130.59,20.7c-.62-.65-1.4-1.41-2.12-2.24a1.18,1.18,0,0,1-.25-.91c.69-2.82,1.43-5.64,2.16-8.5H142.5Zm-3.06-2.92-4-.21L121.3,9h8.47Zm-4.6-.14h-3.81c-3.6,0-7.2,0-10.8,0a3.37,3.37,0,0,1-1.39-.22c-3.75-1.78-7.48-3.61-11.33-5.47.29-.85.52-1.68.85-2.48a.93.93,0,0,1,.7-.45c7.83,0,15.67,0,23.58,0Zm-78.46,32V75.36a4.94,4.94,0,0,1-4.71,5.1c-2.75.12-5.52.13-8.28,0A4.73,4.73,0,0,1,27,75.53q0-26.22,0-52.43a4.77,4.77,0,0,1,4.66-4.91c2.68-.1,5.36-.09,8,0a4.86,4.86,0,0,1,4.78,5.1q0,13.2,0,26.39Zm-4.24-32c-2.66,0-5.33,0-8,0a5.84,5.84,0,0,0-2.54.49c-.94.5-1.41.2-2-.46-1.27-1.42-2.59-2.79-4.15-4.45L44.12,9.82ZM28.26,19c-2.1,1.52-1.8,3.74-1.79,5.88,0,1.72-.05,3.44,0,5.15a1.53,1.53,0,0,1-1.11,1.81,18.3,18.3,0,0,0-2,1c0-1.57,0-3,0-4.38,0-.77.06-1.56-.9-1.85a1.75,1.75,0,0,0-2.19,1c-.74,1.49-1.34,3.06-2,4.61a22.61,22.61,0,0,0-.7,2.15,3.35,3.35,0,0,1-2.17,2.48,26.3,26.3,0,0,0-2.81,1.38c1.66-7.63,8.23-22.79,10.66-24.52ZM22.87,37.56q0,4.49,0,9A2.15,2.15,0,0,1,21,49l-6.68,1.74c-1.17.3-1.86-.24-1.72-1.47a8.39,8.39,0,0,1,.56-2.06c1.51-3.94,3-7.87,4.56-11.81.81-2.11,1.59-4.24,2.39-6.36a6.38,6.38,0,0,1,.45-1c.38-.65.91-1.33,1.68-.94.38.19.61,1,.62,1.56C22.9,31.64,22.87,34.6,22.87,37.56ZM51,72.09c.93,0,1.17.46,1.15,1.24,0,1.88-.05,3.76,0,5.64,0,.8,0,1.75,1.25,1.81s1.67-.4,1.7-1.77c0-1.59,0-3.19,0-5.05,1.28.64,2.36,1.14,3.38,1.73a1.84,1.84,0,0,1,.64.93c.27.71.41,1.46.68,2.16.84,2.15,3.57,3.09,5.43.3l7.53,3.78H45.61Zm15.28,6.77c-.51-.25-.84-.45-.63-1.15.76-2.47,1.44-5,2.23-7.7.9,1.27,2.09,2.07,2,3.72s0,3.59,0,5.39a1.53,1.53,0,0,0,1.57,1.69c1.12.06,1.44-.66,1.51-1.56.05-.7,0-1.41,0-2.47l4.47,5.92,0,.36a14.47,14.47,0,0,1-3.71-.54C71.19,81.43,68.78,80.08,66.32,78.86Zm10.68,2c1.54-.19,1.54-.19,2,1.89C78.21,82.87,77.79,82.48,77,80.86Zm1.93,0h6.57c-1.33,2-3.38,2.83-5.4,2C79.55,82.63,79.35,81.6,78.92,80.82Zm9.18.13c2.29.18,4.61,0,7,0-1.77,1.43-7.22,2.36-10.36,1.78A3.46,3.46,0,0,1,88.1,80.95Zm10.58.12c5.45-.21,10.92-.07,16.55-.07a3.78,3.78,0,0,1-3.67,2c-6.34-.1-12.69,0-19,0l-.09-.36C94.52,82,96.59,81.15,98.68,81.06ZM118.23,81c2.1.17,4.22,0,6.64,0a17.31,17.31,0,0,1-10.24,1.81A3.62,3.62,0,0,1,118.23,81Zm10.08.11c3.11-.14,5.89-.7,8.19-2.93a2.8,2.8,0,0,1,1.06-.52c2.91-1,5.83-2,8.76-2.9.32-.1,1,0,1.11.27,1.12,2.55,2.15,5.14,3.27,7.88-.39,0-.59.06-.79.06H122.31l-.09-.33C124.25,82,126.26,81.15,128.31,81.06Zm15.1-17.3a1.93,1.93,0,0,1,.24-2.16q19.06-25.9,38.1-51.81A3.28,3.28,0,0,1,183.16,9,2.38,2.38,0,0,1,184,9H514.88l-6.57,9q-16,21.81-32,43.6a1.79,1.79,0,0,0-.24,2c2.51,6,4.95,12,7.41,18,.15.36.27.73.46,1.27h-1.4c-176.67,0-153.34,0-330,0a1.56,1.56,0,0,1-1.74-1.16Q147.16,72.75,143.4,63.76Zm425.34-54-4,8.25c-1.54-.14-2.87-.37-4.2-.37-5.43,0-10.86,0-16.3,0a3,3,0,0,1-1.78-.66c-2.66-2.27-5.26-4.62-8.14-7.16Zm-34-.58V9.07h32.35l0,.13Zm7.57,8.39H536l-1.83-7.17Zm-6.86,0h-4.19l2.37-7.09c.19.66.3,1,.39,1.34C534.45,13.72,534.92,15.61,535.41,17.58ZM530.86,17c-.4,1.24-1.38.32-2,.72l-.19-.22,3.6-5.42.21.07C531.94,13.76,531.38,15.37,530.86,17ZM515.29,9.35A1.15,1.15,0,0,1,516.1,9q8.2,0,16.41,0c.09,0,.19.08.31.4L512.55,13.1C513.55,11.72,514.39,10.52,515.29,9.35ZM522,81h3.81c1.72,0,1.72,0,2,1.92a18,18,0,0,1-4-.08C523.08,82.67,522.57,81.65,522,81Zm22.59,0h10.79c1.82,0,1.82,0,2.81,1.88H542.24C542.79,81,542.79,81,544.55,81Zm13.23,0H561c3.79,0,5.66-1.64,6.17-5.52l21.38,7.21-.05.23H560.7C558.87,82.92,558.87,82.92,557.78,81Zm8.85-5.92c0,3.48-1.95,5.44-5.41,5.44H543.39V18.23a1.5,1.5,0,0,1,.37-.11c6,0,12,0,18,0,2.93,0,4.87,2.16,4.87,5.24q0,18.54,0,37.07Q566.63,67.76,566.63,75.08Zm3-65.59A6,6,0,0,1,571.07,9c6.3,0,12.61,0,19,0V22.16ZM31.92,4c3.77-.52,7.54-1.07,11.32-1.52a76.8,76.8,0,0,1,9-.84c245.32,0,290.64,0,536,0h1.87v7h-1.34c-244.56,0-289.12,0-533.68,0a82.12,82.12,0,0,0-10.26.53c-4.26.54-8.47,1.47-12.71,2.21-2.35.41-4.71.77-7.22,1.18L24.5,5ZM4.31,81.15a2.94,2.94,0,0,1-.6-1.45A149.35,149.35,0,0,1,5.33,53.54a139.14,139.14,0,0,1,8.9-33.73,54.54,54.54,0,0,1,6.6-12.32,13.76,13.76,0,0,1,1.8-1.91A5.88,5.88,0,0,1,24,4.92l.39,7.79A5.64,5.64,0,0,0,20.71,16c-1,2-1.89,4.13-2.82,6.2A135.53,135.53,0,0,0,8.53,52.85,83.57,83.57,0,0,0,7.05,73.48c.18,2.85.72,5.68,1.12,8.66C6.84,82.11,5.32,82.62,4.31,81.15Zm585.8,5.3H2.5l-.95-3.13H590.1Zm0-4a5.68,5.68,0,0,1-.79-.15c-7-2.37-14.06-4.75-21.1-7.1a1.32,1.32,0,0,1-1.11-1.49c.06-4.24,0-8.47.05-12.71a1.59,1.59,0,0,1,.63-1.2c3.4-1.77,6.83-3.47,10.39-5.25l5.14,10.28c1.89,3.79,3.68,7.63,5.72,11.33A10.27,10.27,0,0,1,590.07,82.49ZM578.67,54,589.9,31.52l.18.07v24Zm11.4,2.08v21.1L578.74,54.52Zm-.34-25.52Q584.17,41.82,578.5,53a3.36,3.36,0,0,1-1.37,1.37c-3.25,1.69-6.54,3.31-10,5.06,0-2.8,0-5.39,0-8a1.49,1.49,0,0,1,.44-.91q11.06-11.14,22.15-22.25a4.11,4.11,0,0,1,.61-.34A12.39,12.39,0,0,1,589.73,30.55Z"/><path class="fg" d="M307.05,81h37.07c3.54,0,5.69-2.14,5.69-5.64q0-13,0-26t0-25.79c0-3.79-2.07-5.88-5.82-5.88H307.17c-3.7,0-5.81,2.1-5.82,5.77q0,25.91,0,51.83C301.35,78.85,303.47,81,307.05,81ZM325.6,18.11h18.31c3.48,0,5.43,1.95,5.44,5.41q0,25.79,0,51.59c0,3.46-2,5.4-5.44,5.41H325.6Zm-23.78,5.56c0-3.64,1.91-5.55,5.54-5.55h17.46V80.52H307.29c-3.54,0-5.46-1.94-5.46-5.51Q301.82,49.34,301.82,23.67Z"/><path class="fg" d="M180.79,56.3h16.43c5.68,0,11.36.09,17,0,3.56-.07,5.43-2.2,5.43-5.76q0-11.22,0-22.43c0-4.17-2-6.14-6.14-6.16-6.59,0-13.18-.11-19.78-.14-4.36,0-8.72-.05-13.08,0a7.19,7.19,0,0,0-3.08.75c-2,1.06-2.78,3-2.77,5.18q.07,11.39.16,22.77C175,54.2,177.1,56.29,180.79,56.3Zm.36-33.94,32.62.07c3.48,0,5.42,1.95,5.43,5.42q0,11.28,0,22.55c0,3.47-1.92,5.41-5.42,5.43-5.52,0-11,0-16.55,0v0H180.91c-3.47,0-5.41-1.95-5.42-5.42q0-11.15-.07-22.3C175.42,24.19,177.26,22.35,181.15,22.36Z"/><path class="fg" d="M436.31,56.38c11.07-.06,22.15,0,33.22,0,3.63,0,5.79-2.22,5.79-5.86q0-11.34,0-22.67c0-3.73-2.14-5.88-5.86-5.89H452.91c-5.6,0-11.19,0-16.79,0-3.49,0-5.6,2.13-5.6,5.6,0,7.64.11,15.27-.05,22.91A5.63,5.63,0,0,0,436.31,56.38ZM431,27.58a4.82,4.82,0,0,1,5.17-5.15h33.35a4.82,4.82,0,0,1,5.22,5.22q0,11.52,0,23a4.79,4.79,0,0,1-5.16,5.14H436.24c-3.26,0-5.23-2-5.23-5.21Q431,39.09,431,27.58Z"/><path class="fg" d="M239.12,56.3h33.23c3.62,0,5.73-2.1,5.74-5.71q0-11.46,0-22.91c0-3.62-2.1-5.73-5.71-5.73H239.14c-3.62,0-5.73,2.1-5.74,5.71q0,11.45,0,22.91C233.41,54.18,235.51,56.29,239.12,56.3Zm-5.22-28.44c0-3.48,1.94-5.42,5.41-5.43h32.86c3.48,0,5.43,1.94,5.43,5.41q0,11.27,0,22.55c0,3.48-1.94,5.42-5.41,5.42H239.32c-3.48,0-5.43-1.94-5.43-5.41Q233.89,39.13,233.89,27.85Z"/><path class="fg" d="M377.89,56.3H411c3.71,0,5.8-2.08,5.8-5.77q0-11.4,0-22.79c0-3.7-2.08-5.8-5.77-5.8H377.93c-3.7,0-5.8,2.08-5.8,5.77q0,11.4,0,22.79C372.13,54.2,374.21,56.29,377.89,56.3Zm-5.28-28.45c0-3.48,1.94-5.42,5.42-5.42h32.86c3.48,0,5.42,1.94,5.42,5.42q0,11.27,0,22.55c0,3.48-1.94,5.41-5.42,5.42H378c-3.48,0-5.42-1.94-5.42-5.42Q372.61,39.12,372.61,27.85Z"/><path class="fg" d="M536.19,22.46q-4.86-.06-9.72,0a3.48,3.48,0,0,0-2.11.45,5.36,5.36,0,0,0-2.11,4c0,8.32,0,16.63,0,25C522.28,54,524,56,525.79,56c3.64.06,7.28.05,10.91,0A3.87,3.87,0,0,0,540,52.56q0-6.6,0-13.19t0-13.07A3.67,3.67,0,0,0,536.19,22.46Zm.43,33.05c-3.47.09-7,.12-10.43,0a3.52,3.52,0,0,1-3.39-3.71q-.06-12.41,0-24.82a4,4,0,0,1,4.14-4q4.38,0,8.75,0c2.49,0,3.81,1.4,3.81,3.83q0,6.24,0,12.47,0,6.47,0,13A3.38,3.38,0,0,1,536.62,55.51Z"/><path class="fg" d="M559.77,22.45q-4.74,0-9.47,0A4.25,4.25,0,0,0,546,26.69q0,12.59,0,25.18c0,2.13,1.71,4.1,3.53,4.13,3.48.06,7,.08,10.43,0a3.81,3.81,0,0,0,3.76-4V26.48A3.71,3.71,0,0,0,559.77,22.45Zm3.5,16.89q0,6.24,0,12.47A3.37,3.37,0,0,1,560,55.52c-3.31.14-6.64.14-10,0-2.42-.11-3.44-1.78-3.47-3.95-.11-8.2-.05-16.39,0-24.59a4.17,4.17,0,0,1,4.14-4.08c2.92.09,5.84,0,8.76,0,2.53,0,3.85,1.41,3.85,3.94Q563.26,33.1,563.27,39.34Z"/><path class="fg" d="M37.58,22.93q-2.1,0-4.2,0a3.27,3.27,0,0,0-3.31,3.34q0,9.95,0,19.9a2.85,2.85,0,0,0,2.38,3.12,22.42,22.42,0,0,0,5.8.08c1.84-.23,2.6-1.51,2.6-3.42q0-4.85,0-9.71c0-3.32,0-6.63,0-9.95A3.22,3.22,0,0,0,37.58,22.93Zm2.81,23a2.84,2.84,0,0,1-2.89,3.11c-1.36.05-2.72.06-4.08,0a2.85,2.85,0,0,1-2.88-3q0-9.84,0-19.68a2.81,2.81,0,0,1,2.91-3c1.32,0,2.64,0,4,0a2.79,2.79,0,0,1,3,3c0,3.28,0,6.56,0,9.84S40.39,42.72,40.39,46Z"/><path class="fg" d="M99.62,22.45c-3,0-6,.08-9,0A4.58,4.58,0,0,0,86,26.89q0,12.47,0,24.94A4.07,4.07,0,0,0,89.66,56q5.4.07,10.79,0a3.88,3.88,0,0,0,3.28-3.44q0-6.59,0-13.19V26.55C103.74,23.95,102.26,22.46,99.62,22.45Zm3.65,29.75a3.38,3.38,0,0,1-2.9,3.32c-3.43.09-6.88.13-10.31,0a3.56,3.56,0,0,1-3.49-3.74q-.06-12.41,0-24.82a3.9,3.9,0,0,1,4.15-4q4.38-.05,8.75,0c2.48,0,3.79,1.41,3.79,3.85q0,6.29,0,12.59T103.27,52.2Z"/><path class="fg" d="M127.5,52V39.32q0-6.42,0-12.83a3.71,3.71,0,0,0-4-4q-4.74,0-9.47,0a4.24,4.24,0,0,0-4.29,4.22q-.05,12.59,0,25.18A4.15,4.15,0,0,0,113.65,56c3.32,0,6.63,0,10,0A3.85,3.85,0,0,0,127.5,52Zm-13.8,3.45c-2.39-.12-3.35-1.8-3.38-3.9-.11-8.23-.07-16.47,0-24.71a4.11,4.11,0,0,1,4-4c3,.06,6.08,0,9.11,0A3.44,3.44,0,0,1,127,26.72q0,6.3,0,12.59t0,12.47c0,2.1-1.16,3.63-3.26,3.73C120.42,55.66,117.05,55.64,113.7,55.48Z"/><path class="fg" d="M137.26,70.47a8.06,8.06,0,1,0-8,8A8.1,8.1,0,0,0,137.26,70.47Zm-6.33-6.64c4.06.72,6.29,3.58,5.64,7.28h-5.64Zm-.17,8.07h5.71a6.93,6.93,0,0,1-5.71,5.86Zm-2.79,6a7.51,7.51,0,0,1-6.23-8.43,7.34,7.34,0,0,1,8.63-6.39c0,4.34,0,8.61,0,12.88C130.32,77.85,129.84,78.15,128,77.9Z"/><path class="fg" d="M332.55,56.06c3.11-.12,6.23,0,9.35,0A3.88,3.88,0,0,0,346,52V26.55a3.73,3.73,0,0,0-4-4.1q-4.68,0-9.35,0a4.24,4.24,0,0,0-4.35,4.17q-.06,12.65,0,25.3A4.16,4.16,0,0,0,332.55,56.06ZM328.76,27a4.17,4.17,0,0,1,4.13-4.09c2.92.08,5.84,0,8.75,0,2.54,0,3.86,1.41,3.86,3.92q0,6.24,0,12.47t0,12.47c0,2.09-1.17,3.63-3.27,3.72-3.35.14-6.72.13-10.06,0-2.39-.12-3.34-1.77-3.37-3.9C328.69,43.38,328.75,35.18,328.76,27Z"/><path class="fg" d="M308.19,56c3.56,0,7.11,0,10.67,0a3.86,3.86,0,0,0,3.36-3.49q0-6.6,0-13.19V26.51a3.73,3.73,0,0,0-4-4.06c-3,0-6.08.08-9.11,0a4.55,4.55,0,0,0-4.55,4.39q0,12.53,0,25.06A4,4,0,0,0,308.19,56Zm-3.14-29.09a3.88,3.88,0,0,1,4.06-4q4.44-.06,8.87,0c2.46,0,3.77,1.42,3.77,3.87q0,6.29,0,12.59t0,12.83a3.39,3.39,0,0,1-2.93,3.29c-3.47.07-7,.1-10.42-.05A3.5,3.5,0,0,1,305,51.74Q305,39.33,305.05,26.92Z"/><path class="fg" d="M78,11.75A2.59,2.59,0,0,0,78.4,13a2.38,2.38,0,0,0,.91.84,2.3,2.3,0,0,0,2.17,0,2.43,2.43,0,0,0,1.32-2.12s0,0,0-.06a2.41,2.41,0,0,0-2.37-2.33h0A2.43,2.43,0,0,0,78,11.75Z"/><path class="fg" d="M23.76,74.82a2.37,2.37,0,0,0,0-.35c0-.07,0-.14,0-.21a2.38,2.38,0,0,0-3.62-1.81l-.23.17a2.38,2.38,0,0,0,.44,4,2.51,2.51,0,0,0,1,.25h.09a2.39,2.39,0,0,0,2.35-2Z"/><path class="fg" d="M504.79,56.16A2.45,2.45,0,0,0,506.18,54c0-.05,0-.11,0-.16a2.4,2.4,0,0,0-2.37-2.23h0a2.39,2.39,0,0,0-2,3.64,2.37,2.37,0,0,0,1.41,1,2.26,2.26,0,0,0,1.61-.13Z"/></svg>