<svg id="last_carriage" data-name="last_carriage" xmlns="http://www.w3.org/2000/svg" viewBox="0 0 589.5 87.93"><defs><style>.bg{fill:#e8e7e7;}.empty{fill:none;}</style></defs><title>Last Carriage</title><path class="bg" d="M587.61,82.65h-3a9.5,9.5,0,0,0,1.72-2.36,10,10,0,0,0,.21-3.21c-.09-3.24-.19-6.48-.36-9.71a155.51,155.51,0,0,0-5.07-32.14c-2.12-7.88-4.58-15.66-8.61-22.8a61.57,61.57,0,0,0-4.84-6.95,3.4,3.4,0,0,0-2.06-1c-3.94-.6-7.9-1.11-11.85-1.63A159.26,159.26,0,0,0,533.14,1c-244.15.06-286.3,0-530.44,0C1,1.05,1,1.05,1,2.71v82.2c0,2.35-.3,2,2,2h581.2c3.42,0,3.4,0,4.25-3.29C588.61,82.85,588.34,82.64,587.61,82.65Z"/><path class="empty" d="M248.84,55.51h8.76a5.19,5.19,0,0,0,2.14-.43,3.92,3.92,0,0,0,2-3.82V27.15a4,4,0,0,0-3.58-4.21q-4.91-.15-9.83,0A3.34,3.34,0,0,0,245,26.28q0,.12,0,.24V51.71a3.54,3.54,0,0,0,3.84,3.8Z"/><path class="empty" d="M179.65,55.76h32.86c3.48,0,5.42-1.94,5.42-5.42q0-11.27,0-22.55c0-3.48-1.94-5.42-5.42-5.42H179.66c-3.48,0-5.42,1.94-5.42,5.42V50.34C174.24,53.82,176.18,55.76,179.65,55.76Z"/><path class="empty" d="M246.64,80.48H265V18.07H246.64c-3.48,0-5.44,2-5.44,5.41V75.07C241.2,78.53,243.17,80.47,246.64,80.48Zm-2.07-41.3v-13a3.62,3.62,0,0,1,3.44-3.8h.14c3.44-.06,6.87-.06,10.31,0a4.34,4.34,0,0,1,3.83,4.18V51.74A4.2,4.2,0,0,1,258.12,56H258c-3.07-.13-6.15,0-9.23,0a3.9,3.9,0,0,1-4.16-4.1Z"/><path class="empty" d="M122,55.78h33.23c3.36,0,5.3-1.94,5.3-5.26V27.61a4.84,4.84,0,0,0-5.22-5.22H122a4.81,4.81,0,0,0-5.19,5.14v23A4.84,4.84,0,0,0,122,55.78Z"/><path class="empty" d="M509.18,9h-1.51l-.18.35.6.38a2.36,2.36,0,0,1,.94-.34Z"/><path class="empty" d="M436.58,82.88a3.74,3.74,0,0,1,.6,0c.79.13,1.18-.18,1.5-1q3.71-9.2,7.53-18.35a1.75,1.75,0,0,0-.25-2Q427.1,35.91,408.29,10.19a2.87,2.87,0,0,0-2.65-1.32H76.7c.37.53.59.86.82,1.18l37.67,51.34a1.87,1.87,0,0,1,.28,2.13c-2.5,6-4.92,12-7.36,17.94-.16.39-.3.79-.52,1.35h329ZM369.87,27.39a5.15,5.15,0,0,1,5.44-5.52h14.4c6.35,0,12.71-.12,19.06-.15,2.16,0,4.06.67,5.1,2.69a7.39,7.39,0,0,1,.81,3.17c.08,6.6.06,13.2,0,19.79,0,1.39-.08,2.79-.21,4.18a5.16,5.16,0,0,1-5.41,4.68H392.14c-5.68,0-11.35.08-17,0-3.34-.06-5.28-2.23-5.29-5.54Q369.85,39.05,369.87,27.39Zm-57.4.26c0-3.69,2.09-5.78,5.79-5.78h33.11c3.69,0,5.78,2.09,5.78,5.79V50.45c0,3.69-2.09,5.78-5.79,5.78H318.25c-3.69,0-5.78-2.09-5.78-5.79q0-11.37,0-22.77ZM240.73,49.21V23.42c0-3.7,2.09-5.82,5.76-5.82h37c3.67,0,5.76,2.11,5.76,5.82V75.13c0,3.71-2.09,5.82-5.76,5.82h-37c-3.67,0-5.76-2.12-5.76-5.82ZM173.78,27.68c0-3.69,2.09-5.78,5.78-5.79h33.11c3.69,0,5.79,2.09,5.79,5.78V50.46c0,3.69-2.09,5.78-5.78,5.79H179.53c-3.69,0-5.78-2.09-5.79-5.78Q173.78,39.07,173.78,27.68Zm-57.52-.1a5.31,5.31,0,0,1,5.7-5.69H155.3c3.73,0,5.76,2.06,5.76,5.8V50.6c0,3.54-2.07,5.7-5.63,5.71H121.85a5.31,5.31,0,0,1-5.59-5.69q0-11.53,0-23Z"/><path class="empty" d="M77.2,10.53a2.86,2.86,0,0,0-3.09-1.61c-1.58.15-3.19,0-4.79,0H58.78v.47l20.27,3.69A29.06,29.06,0,0,1,77.2,10.53Z"/><path class="empty" d="M505.6,8.92c-1.71.13-3.43,0-5.14,0h-6.89a13.32,13.32,0,0,1,.44,1.5,1.44,1.44,0,0,0,1.8,1.34c1.22-.12,2.47,0,3.71,0,2.27,0,4.55-.05,6.82,0a1.79,1.79,0,0,0,.67-.12,2.36,2.36,0,0,1,.5-1.32A1.74,1.74,0,0,0,505.6,8.92Z"/><path class="empty" d="M66.19,82.9A2.59,2.59,0,0,0,69.33,81l0-.12H65.71c-1.67,0-1.77.1-1.89,1.93A13.56,13.56,0,0,1,66.19,82.9Z"/><path class="empty" d="M376,55.78h33a4.83,4.83,0,0,0,5-4.66v0c.07-1.52.11-3,.11-4.55V28.06c0-3.89-1.83-5.73-5.72-5.73l-32.6.06c-3.48,0-5.43,2-5.43,5.41q0,11.16,0,22.31C370.35,53.91,372.2,55.77,376,55.78Z"/><path class="empty" d="M283.25,80.48c3.54,0,5.47-1.94,5.47-5.5V23.51c0-3.48-1.94-5.44-5.41-5.44H266.89a9.08,9.08,0,0,0-1.16,0V80.48ZM268.33,52.32V26.18a3.6,3.6,0,0,1,3.4-3.79h0c3.44-.08,6.87-.06,10.31,0A4.42,4.42,0,0,1,286,26.77V51.71A4.29,4.29,0,0,1,281.69,56h0c-3.23-.15-6.47,0-9.71,0A3.83,3.83,0,0,1,268.33,52.32Z"/><path class="empty" d="M318.34,55.76h33c3.34,0,5.33-2,5.33-5.26V27.59c0-3.22-2-5.21-5.27-5.21H318.17c-3.23,0-5.21,2-5.21,5.26V50.43C313,53.81,314.93,55.76,318.34,55.76Z"/><path class="empty" d="M285.53,51.5V27a3.89,3.89,0,0,0-3.55-4.1c-3.31-.12-6.64-.11-10,0a3.27,3.27,0,0,0-3.26,3.28q0,.13,0,.26V52.14A3.44,3.44,0,0,0,272,55.51h9.59a3.89,3.89,0,0,0,3.92-3.86Q285.53,51.58,285.53,51.5Z"/><path class="empty" d="M508.11,13.74l-.13.14c-1.06,1.49-2,3-3.08,4.6,1.84,1.39,2.3,3.22,2.28,5.34-.06,7.23,0,14.47,0,21.71V47l16.41-5.42c-.22-.47-.38-.83-.56-1.18l-7.66-15.19-5.5-10.91a1.68,1.68,0,0,0-.14-.22,2.18,2.18,0,0,1-1.6-.34Z"/><path class="empty" d="M544.64,46c-.16-2.13,0-4.28,0-6.41l-.27,0L529.08,59.9c5.7,1.9,8.54,5.69,8.49,11.74a3,3,0,0,0,1.06-1.25c1.3-3.76,2.43-7.59,3.86-11.3A29.63,29.63,0,0,0,544.64,46Z"/><path class="empty" d="M549.32,17.63c2.61,0,5.17-.06,7.71,0a25.4,25.4,0,0,1,3.24.62c.34.06.84.1,1-.08,1.51-1.52,3-3.1,4.72-5l-20.6-3.45Z"/><path class="empty" d="M558,18.15c-2.71-.11-5.44-.1-8.16,0a4.8,4.8,0,0,0-4.73,4.79V76.33a2.65,2.65,0,0,0,.43,1.56,6,6,0,0,0,4.78,2.58h7.2a4.86,4.86,0,0,0,5.08-5.14v-26h0V23.17a4.76,4.76,0,0,0-4.49-5Zm1.47,27.92a3.33,3.33,0,0,1-3.23,3.43h-4.14a3.32,3.32,0,0,1-3.47-3.56V26.28a3.23,3.23,0,0,1,3-3.41h4.38a3.28,3.28,0,0,1,3.36,3.2q0,.11,0,.21.07,9.9.06,19.79Z"/><path class="empty" d="M544.56,71.82V55.08h-.21l-5.42,16.14Z"/><path class="empty" d="M512.1,77.79a22.81,22.81,0,0,0,2.38,2,1.69,1.69,0,0,0,1.52.09c.61-.44.3-1.06-.21-1.51l-.45-.4c-2.2-1.92-4.41-3.83-6.59-5.77a6.36,6.36,0,0,1-.84-1.2,9,9,0,0,1,1.49-.41,19.06,19.06,0,0,1,2,0c2.78-.11,4.45-2,4.44-5s-1.7-4.92-4.48-5h-6.6a2.27,2.27,0,0,0-2.46,2.48V78.91c0,.71.12,1.34,1,1.32s1-.66,1-1.36V62.65c2.65,0,5.12-.09,7.59,0,1.51.08,2.1,1.24,2,3.36a2.31,2.31,0,0,1-2.13,2.47h-.1c-1,.07-1.92,0-2.88,0a2.64,2.64,0,0,0-1.74,4.9Z"/><path class="empty" d="M506.66,68.23v-5h-1.85V79.49c.48-.55.77-.82,1-1.14a4.88,4.88,0,0,0,0-5.5,3.07,3.07,0,0,1,.31-3.74A1.71,1.71,0,0,0,506.66,68.23Z"/><path class="empty" d="M568.78,27.71a2,2,0,0,0-1.5-.59c-.17,0-.53.79-.54,1.22V46.55a2.1,2.1,0,0,0,1.77,2.38h.07q3.39.9,6.8,1.77c1.07.28,1.74-.19,1.66-1.29a8.4,8.4,0,0,0-.58-2.3q-3-8-6.07-16A22.51,22.51,0,0,0,568.78,27.71Z"/><path class="empty" d="M511.52,68a1.78,1.78,0,0,0,1.85-1.91c.11-1.86-.33-2.85-1.51-2.94-1.53-.11-3.08,0-4.66,0v4.89C508.78,68,510.13,68.07,511.52,68Z"/><path class="empty" d="M511.37,10.39l2.55-1.24c-2.09-.25-2.8-.25-3.24.55A2.39,2.39,0,0,1,511.37,10.39Z"/><path class="empty" d="M510.33,13.91a1.21,1.21,0,0,0,.1.3q4.45,8.89,8.94,17.76l4.73,9.42c6.74-3.39,13.33-6.7,19.9-10.06a1.5,1.5,0,0,0,.61-1.11c.07-1.72,0-3.44,0-5.15a1.17,1.17,0,0,0-1-1.34h0L511.43,13h0A2.39,2.39,0,0,1,510.33,13.91Z"/><path class="empty" d="M556.13,23.39h-4.08a2.76,2.76,0,0,0-2.89,3V46.07a2.82,2.82,0,0,0,2.63,3H552q2,.09,4.08,0A2.88,2.88,0,0,0,559,46.23q0-.14,0-.28V26.39a2.81,2.81,0,0,0-2.61-3Z"/><path class="empty" d="M47,81H36c-1.59,0-1.94.26-2.46,1.88H49.31C48.78,81,48.78,81,47,81Z"/><path class="empty" d="M577,38.26a118.58,118.58,0,0,0-6.59-17.87c-.8-1.77-1.67-3.52-2.6-5.23a9.19,9.19,0,0,0-1.45-1.59L561.26,19c1.65,1.24,1.88,2.88,1.83,4.67-.07,2.24,0,4.48,0,6.71,0,.35.11.88.35,1a30.83,30.83,0,0,0,2.76,1.38c0-1.71-.07-3.22,0-4.73a1.81,1.81,0,0,1,.79-1.38,2.39,2.39,0,0,1,1.72.32,2.5,2.5,0,0,1,.88,1.23c.81,2,1.52,4.1,2.35,6.12a4.31,4.31,0,0,0,1.23,1.93A31.63,31.63,0,0,0,577,38.26Z"/><path class="empty" d="M511.63,12.46l.13.06q16,5.38,32,10.73a6.71,6.71,0,0,0,.77.16c.28-2.59.63-4.18,4.23-5.69-1.28-2.58-2.51-5.09-3.79-7.57a1.39,1.39,0,0,0-.93-.58,38.44,38.44,0,0,0-5.1-.6c-6.32-.07-12.64.1-19-.08a14.23,14.23,0,0,0-8.31,2l-.07.06a2.19,2.19,0,0,1,0,1.49Z"/><path class="empty" d="M85.9,52c-2-3-4-6.07-6-9.1l-6.71-10L73,33v19.9c0,.86.35,1.18,1.23,1.16,3.6-.07,7.2-.07,10.8-.14a1.72,1.72,0,0,0,.43-.08,2.37,2.37,0,0,1,.65-1.54A1.45,1.45,0,0,0,85.9,52Z"/><path class="empty" d="M567.19,76.84c-1.09,1.93-2.13,3.9-3.26,6h5.74c-.46-2-.87-3.89-1.36-5.78h-.16A2.37,2.37,0,0,1,567.19,76.84Z"/><path class="empty" d="M567.06,72.55a2.19,2.19,0,0,0-.06-.33q-.77-2.64-1.57-5.27-1.06-3.51-2.14-7h-.13V73.9l2.22.27a2.09,2.09,0,0,0,.43,0A2.38,2.38,0,0,1,567.06,72.55Z"/><path class="empty" d="M565.78,74.73h0c-.83-.12-1.66-.18-2.66-.29v1a5.2,5.2,0,0,1-4.9,5.46,69.44,69.44,0,0,1-8.51,0,5.32,5.32,0,0,1-5-5.62V72.39l-5.33-.58c0,.16,0,.21,0,.24,1.72,3.47,3.43,6.93,5.2,10.38a1.25,1.25,0,0,0,1,.47h17.15a1.38,1.38,0,0,0,1-.56c1.08-1.86,2.1-3.76,3.12-5.67a.76.76,0,0,0,0-.08A2.37,2.37,0,0,1,565.78,74.73Z"/><path class="empty" d="M90.05,54.53a1.54,1.54,0,0,0,.41.23c5.1,1.72,10.22,3.41,15.33,5.11L115.06,63l.26-.29a8.66,8.66,0,0,0-.66-1c-3.44-4.7-6.91-9.37-10.32-14.1-.52-.73-.92-.75-1.65-.39l-12.37,6a1.39,1.39,0,0,0-.25.16,2.17,2.17,0,0,1,0,1.17Z"/><path class="empty" d="M97.37,39a1.14,1.14,0,0,0-.08-1c-1.47-2.07-3-4.11-4.71-6.44L88.47,51.65a2.36,2.36,0,0,1,.36.15C91.69,47.54,94.55,43.29,97.37,39Z"/><path class="empty" d="M89,55.93a1.86,1.86,0,0,0,.16.58q6.29,12.53,12.61,25c.74,1.47,1.51,1.66,3,1.06,2-.78,3.52-1.93,4-4.17a7.14,7.14,0,0,1,.49-1.22l5.62-13.72c-8.33-2.78-16.51-5.51-24.7-8.21a1.37,1.37,0,0,0-.5,0A2.39,2.39,0,0,1,89,55.93Z"/><path class="empty" d="M569.39,16.94c1.73,3.85,3.49,7.71,4.94,11.67A134.19,134.19,0,0,1,582,59.27a71.38,71.38,0,0,1,.38,15.79c-.24,2.33-.67,4.64-1,7.06a6,6,0,0,0,2.42-.07,4.89,4.89,0,0,0,2.06-2,5.78,5.78,0,0,0,.15-2.48,163.15,163.15,0,0,0-5.88-43.93c-2.34-8.32-5.22-16.45-9.78-23.86a32.67,32.67,0,0,0-3.26-4.12c-.3-.35-.89-.45-1.5-.74-.13,2.76-.26,5.23-.38,7.77C567.48,13.32,568.56,15.08,569.39,16.94Z"/><path class="empty" d="M89.85,52.79l13.5-6.56L98.06,39,89.34,52.14A2.38,2.38,0,0,1,89.85,52.79Z"/><path class="empty" d="M568.78,72.39a1.1,1.1,0,0,0,.11-.17Q574.12,61,579.28,49.84a3.27,3.27,0,0,0,.19-2c-.62-2.72-1.33-5.42-2.06-8.11a1.82,1.82,0,0,0-.67-1c-1.13-.65-2.32-1.2-3.49-1.78l-.19.22c.13.37.26.73.4,1.09,1.13,2.94,2.28,5.88,3.38,8.83a8.07,8.07,0,0,1,.56,2.43,1.58,1.58,0,0,1-2.2,1.68l-6.76-1.76a2.57,2.57,0,0,1-2.24-2.86V34.35c0-.39-.1-1-.36-1.14a27,27,0,0,0-2.69-1.38c0,.31-.06.47-.06.62V56.93a4.26,4.26,0,0,0,.19,1.17q2.09,7,4.2,14a.91.91,0,0,0,.12.23A2.17,2.17,0,0,1,568.78,72.39Z"/><path class="empty" d="M576.44,82.63a1.19,1.19,0,0,0,.76.23H580c.27,0,.71-.18.75-.36a12.9,12.9,0,0,0,.39-2.33.86.86,0,0,0-.47-.66c-3.38-1.24-6.79-2.45-10.38-3.73a2.36,2.36,0,0,1-.19.3C572.27,78.39,574.35,80.52,576.44,82.63Z"/><path class="empty" d="M570.32,82.82h4.56l-5.61-6.07a2.35,2.35,0,0,1-.38.16Z"/><path class="empty" d="M570.43,75.31c3.58,1.3,7.17,2.57,10.9,3.9,1.14-6.28.91-12.46.27-19-4.06,4.46-7.89,8.65-11.7,12.85a2.29,2.29,0,0,1,.53,2.25Z"/><path class="empty" d="M26.78,18c1.47-.16,2.72-.39,4-.4,4.35,0,8.72-.22,13.06,0a8.94,8.94,0,0,0,7.83-2.93,73.19,73.19,0,0,1,5.46-4.93H22.78Z"/><path class="empty" d="M49.28,17.55h6.28l1.72-6.82-.2-.1Z"/><path class="empty" d="M62.92,17.51,59.24,12l-.19.09,1.84,5.43Z"/><path class="empty" d="M56.78,9H24.53v.12H56.85Z"/><path class="empty" d="M56.13,17.54h4.21l-2.41-7.15Z"/><path class="empty" d="M32.06,55.51h8.88c2.75,0,4-1.65,4-4,.11-8.19.06-16.39,0-24.59a3.92,3.92,0,0,0-3.68-4c-3.24-.08-6.48-.09-9.71,0a3.34,3.34,0,0,0-3.36,3.32q0,.12,0,.24V51.66a3.54,3.54,0,0,0,3.81,3.85Z"/><path class="empty" d="M87.78,51.53c1.37-6.62,2.73-13.24,4-19.86a2.17,2.17,0,0,0-.33-1.52q-5.6-7.86-11.39-15.63a2.34,2.34,0,0,0-1.28-.83c-4.62-.89-9.26-1.73-13.89-2.58L58.76,10a37.78,37.78,0,0,1,2.9,4.43c1.24,2.64,3.1,3.45,6,3.2C70.75,17.39,73,19.84,73,23v7.43A3,3,0,0,0,73.41,32Q80,41.93,86.64,51.82h0a2.36,2.36,0,0,1,1.14-.3Z"/><path class="empty" d="M24.92,23.51V75.22c0,3.08,1.94,5.22,4.87,5.24h18a1.51,1.51,0,0,0,.37-.11V18.07H30.33C26.87,18.07,24.92,20,24.92,23.51Zm2.86,15.67v-13a3.62,3.62,0,0,1,3.39-3.83H41.7a4.33,4.33,0,0,1,3.84,4.18V51.75A4.2,4.2,0,0,1,41.37,56h-.16c-3.07-.13-6.15,0-9.23,0a3.9,3.9,0,0,1-4.2-4.09Z"/><path class="empty" d="M68.78,26.9a4,4,0,0,0-3.67-4c-3.23-.08-6.48-.09-9.71,0a3.31,3.31,0,0,0-3.33,3.29q0,.14,0,.28V52a3.46,3.46,0,0,0,3.38,3.48h9.35a3.7,3.7,0,0,0,4-3.79Q68.78,39.31,68.78,26.9Z"/><path class="empty" d="M86.78,56.07a1.35,1.35,0,0,0-.19.23l-14.33,22c-.35.53-.81,1-1.19,1.49-.72,1-1.41,2-2.23,3.08h32.84a1.67,1.67,0,0,0-.05-.37l-13.1-26a1.48,1.48,0,0,0-.16-.25,2.26,2.26,0,0,1-1.6-.13Z"/><path class="empty" d="M85.46,54.54h-9.3c-3.24,0-3.24,0-3.24,3.23V75.48a3.77,3.77,0,0,0,.43-.4l12.7-19a1.83,1.83,0,0,0,.17-.31A2.37,2.37,0,0,1,85.46,54.54Z"/><path class="empty" d="M51.69,82.88h9.7c1.83,0,1.83,0,2.08-1.87H49.37C49.93,82.88,49.93,82.88,51.69,82.88Z"/><path class="empty" d="M3,82.65l.07.23H31.1c1.65,0,1.91-.2,2.53-1.93H29.9A4.53,4.53,0,0,1,26,79.39a24.51,24.51,0,0,1-2-3.86Z"/><path class="empty" d="M72.48,75.08c-.06-17.19,0-34.39,0-51.59,0-3.47-2-5.42-5.43-5.42h-18V80.48h1.1c5.68,0,11.36-.05,17,0a5.18,5.18,0,0,0,5.33-5Q72.49,75.27,72.48,75.08ZM55.28,56a3.81,3.81,0,0,1-3.71-3.75q0-6.48,0-13t0-13.08A3.6,3.6,0,0,1,55,22.39h0q5.16-.12,10.32,0a4.28,4.28,0,0,1,3.93,4.45V51.67A4.32,4.32,0,0,1,65,56C61.78,55.88,58.52,56,55.28,56Z"/><path class="empty" d="M506.41,12.26c-3.72,0-7.44,0-11.16.06a1.24,1.24,0,0,0-.94.61c-.57,1.48-1,3-1.68,4.88h12c.77-1.15,1.71-2.54,2.63-3.94a1.82,1.82,0,0,0,.27-.61,2.36,2.36,0,0,1-.47-.89A1.83,1.83,0,0,0,506.41,12.26Z"/><path class="empty" d="M467.34,82.39l-7.46-1.72a2.39,2.39,0,0,1-1.1-.28c-1.6-1.61-3.86-1.57-5.84-2.51a6.22,6.22,0,0,1-.12,1.56,1.45,1.45,0,0,1-1.52,1.38h-.11c-1,0-1.23-.73-1.34-1.49a6.43,6.43,0,0,1,0-1.56,1,1,0,0,0-.85-1.19c-1.46-.42-2.89-.94-4.33-1.41-2.33-.77-2.33-.77-3.27,1.54l-2.52,6.17h28.39Z"/><path class="empty" d="M432.09,9H408c1.41,1.93,2.65,3.68,4,5.37a1.43,1.43,0,0,0,1.13.32q9.35-1.25,18.68-2.57c.76-.11,1.52-.26,2.4-.42a18.32,18.32,0,0,0-1.06-2.06A1.45,1.45,0,0,0,432.09,9Z"/><path class="empty" d="M445,9c-3.16-.07-6.32,0-9.47,0h-2a5.64,5.64,0,0,0,3.2,3.77c6.9,3.34,13.73,6.83,20.58,10.27l1.25.61a2.56,2.56,0,0,0-.89-2.92c-3.71-3.64-7.34-7.36-11-11A2.62,2.62,0,0,0,445,9Z"/><path class="empty" d="M447,9l11.89,11.77c.72-.74,1.53-1.54,2.28-2.38a1,1,0,0,0,.22-.81c-.71-2.86-1.45-5.71-2.18-8.58Z"/><path class="empty" d="M462,17.74l4-.21L468.18,9h-8.4Z"/><path class="empty" d="M505.07,82.72c-.82-.67-1.47-1.66-2.17-1.71-2.79-.19-5.6-.08-8.4-.08A16.58,16.58,0,0,0,505.07,82.72Z"/><path class="empty" d="M495.92,82.88H497c-1.78-.83-3.58-1.78-5.41-1.85-5.7-.21-11.41-.08-17.33-.08a3.88,3.88,0,0,0,3.55,2C483.86,82.81,489.89,82.88,495.92,82.88Z"/><path class="empty" d="M475.2,82.69c-.92-.68-1.61-1.61-2.35-1.67-2.61-.19-5.24-.07-8.19-.07C468.12,82.5,471.35,83.39,475.2,82.69Z"/><path class="empty" d="M519.58,71.68l6.53-8.7a7.24,7.24,0,0,0-6.53,8.7Z"/><path class="empty" d="M516.93,74c-2.46-6.34,2.36-14.66,10.43-14.13a1.8,1.8,0,0,0,1.78-.85q7.45-10,14.94-20a2.09,2.09,0,0,0,.51-1V31.67a6.12,6.12,0,0,0-.62.25q-9.57,4.83-19.11,9.7a2.32,2.32,0,0,0-1,1.24C522.1,48,520.33,53,518.67,58.17c-1,3-2.38,5.86-2.45,9.09a2.35,2.35,0,0,1-.58,1.53c-1.22,1.15-1.45,2.72-2,4.16-.88,2.48-.77,2.72,1.51,4.17h.25a11.9,11.9,0,0,0,1.2-1.65A2.06,2.06,0,0,0,516.93,74Z"/><path class="empty" d="M512.5,74.85l1.35-4-5.37.41Z"/><path class="empty" d="M532.72,74.73l-5.85,3C529.22,78.1,532.3,76.46,532.72,74.73Z"/><path class="empty" d="M491.35,8.92c-7,.07-14.08,0-21.12,0h-1.45l-2.2,8.65c4.36,0,8.51-.07,12.67,0a10.8,10.8,0,0,0,5.53-1.18c3-1.58,6.08-3,9.16-4.49a9.83,9.83,0,0,1-.45-1.45C493.31,9.16,492.58,8.91,491.35,8.92Z"/><path class="empty" d="M526.84,80.46a10.06,10.06,0,1,0-10.06-10.07A10.06,10.06,0,0,0,526.84,80.46Zm.09-18.12a8.07,8.07,0,1,1-8.15,8.05,8.07,8.07,0,0,1,8.15-8.05Z"/><path class="empty" d="M509.6,82.82a1.21,1.21,0,0,0,.44-.66c.42-1.21.84-2.41,1.2-3.64a1.1,1.1,0,0,0-.13-.93c-1.22-1.12-2.5-2.18-4-3.5.49,3.16-.74,5.23-3.3,6.76.5.44.9.76,1.27,1.12C505.78,82.7,508.71,83.29,509.6,82.82Z"/><path class="empty" d="M524.1,77.39a2.81,2.81,0,0,0,2-.06c2-.86,3.81-2,5.82-2.79s2.51-2.23,2.53-4.1c0-3.7-3-7.23-6.53-7.51a1.58,1.58,0,0,0-1.61.72c-1.71,2.35-3.48,4.67-5.23,7s-1.61,3.15.44,5.09A8.62,8.62,0,0,0,524.1,77.39Z"/><path class="empty" d="M538.29,71.62c-.51.64-1,1-1.12,1.43a10.75,10.75,0,0,1-14.39,7.18,1.14,1.14,0,0,0-.76-.06c-1.67.81-3.33,1.65-5.25,2.61h27.14Z"/><path class="empty" d="M1.91,82.39l21.78-7.32A1,1,0,0,0,24.46,74V60.88a1.57,1.57,0,0,0-.72-1.14C20.37,58,17,56.31,13.47,54.56c-.28.53-.51.94-.72,1.36-3.5,7-6.94,14-10.54,21-1,1.85-.7,3.65-.74,5.55A2.71,2.71,0,0,0,1.91,82.39Z"/><path class="empty" d="M1.44,76.74l.19.08L12.78,54.47,1.44,56Z"/><path class="empty" d="M10.45,47.85c1,2,1.67,4.45,3.21,6s4,2.22,6.08,3.26c1.52.77,3,1.52,4.71,2.34,0-2.57,0-5,0-7.35a3,3,0,0,0-.76-1.85Q13,39.39,2.28,28.71c-.22-.22-.45-.42-.68-.62l-.38.17A14.72,14.72,0,0,0,2,30.82C4.78,36.51,7.61,42.17,10.45,47.85Z"/><path class="empty" d="M1.64,31.47l-.16.08v24L12.88,54Z"/><path class="empty" d="M503,26.91a3.87,3.87,0,0,0-3.67-4q-4.85-.13-9.71,0a3.31,3.31,0,0,0-3.33,3.29q0,.14,0,.28V52.15a3.45,3.45,0,0,0,3.25,3.36H499a3.7,3.7,0,0,0,4-3.78Q503.05,39.32,503,26.91Z"/><path class="empty" d="M1.45,86.48H585.39a4.08,4.08,0,0,0,1.07,0,1.17,1.17,0,0,0,.74-.55c.32-.87.54-1.79.77-2.59H1.45Z"/><path class="empty" d="M2.27,27.9Q12.83,38.39,23.34,49c.3.3.61.57,1,1V30L1.52,25.33A2.34,2.34,0,0,0,2.27,27.9Z"/><path class="empty" d="M581.14,60a1.2,1.2,0,0,0,.29-.85c-.41-3-.86-6-1.31-8.94h-.37L569.32,72.6C573.39,68.46,577.28,64.21,581.14,60Z"/><path class="empty" d="M510.84,60.05c2.63-.25,4.25,1.07,5.48,3.47l7.19-21.33c-5.43,1.79-10.58,3.48-15.73,5.2a1.37,1.37,0,0,0-.61,1.06c-.06,1.92,0,3.84,0,5.76v5.84A34.54,34.54,0,0,0,510.84,60.05Z"/><path class="empty" d="M513.54,79.71l-1.65-1.26-1.45,4.26.38.28C512,82.18,512.61,80.86,513.54,79.71Z"/><path class="empty" d="M521.36,79.79l-4-4.22-1.58,2.12c.85.69,1.49,1.51.8,2.49s-1.8.55-2.75.09L512,82.75C515.9,83.58,518.39,80.81,521.36,79.79Z"/><path class="empty" d="M24.45,29.46v-6A5.81,5.81,0,0,1,26.08,19a.92.92,0,0,0,.23-.79c-1.31-2.77-2.67-5.52-4-8.32-6.58,4.08-13,8.1-19.5,12-1.16.7-1.71,1.45-1.26,2.85Z"/><path class="empty" d="M533.44,8.47a61,61,0,0,1,13,.9c4.17.9,8.41,1.45,12.62,2.15,1.84.3,3.69.58,5.65.89.13-2.6.24-5,.36-7.46l-7.34-1C554.47,3.5,551.22,3,548,2.61a69.1,69.1,0,0,0-8.77-1H1.46v7h532Z"/><path class="empty" d="M1.46,9V22.14L21.66,9.61V9.3A8,8,0,0,0,20.05,9H1.46Z"/><path class="empty" d="M470.38,80.39h3a4.41,4.41,0,0,1-1.33-3.92V74a3.08,3.08,0,0,1,3.34-3.35h5.28a4.49,4.49,0,0,0,.78-.14v-.33h-6.18a3,3,0,0,1-3.17-2.82q0-.14,0-.29V63.18a2.88,2.88,0,0,1,3.23-3.13h7v-42H464.78c-3.73,0-5.63,1.88-5.63,5.58V72.69a26.41,26.41,0,0,0,.79,4.52,10.21,10.21,0,0,0,1.09-2.7c1.16-4,2.3-8,3.48-12a2.92,2.92,0,0,1,2.51-2.4,3,3,0,0,1,3.59,3.3q0,7.74,0,15.47A9.52,9.52,0,0,1,470.38,80.39ZM466.21,56A3.9,3.9,0,0,1,462,51.9V26.24a3.62,3.62,0,0,1,3.38-3.84h.2c3.44-.07,6.88-.06,10.31,0a4.33,4.33,0,0,1,3.85,4.21V51.78A4.21,4.21,0,0,1,475.6,56h-.14C472.37,55.89,469.29,56,466.21,56Z"/><path class="empty" d="M442.7,73.76l7,2.34V71.76h-4.63C443.2,71.76,443.2,71.76,442.7,73.76Z"/><path class="empty" d="M449.78,66.77a1.58,1.58,0,0,0-.41,0l-3,1c-1.73.58-2.36,1.42-2.5,3.34h5.91Z"/><path class="empty" d="M449.85,62.8a3.05,3.05,0,0,1,5.82-1c.31.63.51,1.3.78,2a9.77,9.77,0,0,0,1.64-.57,1.2,1.2,0,0,0,.58-.84q.06-6.54,0-13.07a1.15,1.15,0,0,0-.57-.85c-2-.85-4-1.69-6-2.37a1.88,1.88,0,0,0-1.69.53c-2.33,3.58-4.56,7.23-6.83,10.88,1,1.38,2,2.76,3,4.07a1.61,1.61,0,0,1,.21,1.93c-.59,1.26-1.06,2.58-1.65,4.05L446.9,67c.91-.31,2.14-.38,2.62-1s.24-1.87.32-2.84A2.1,2.1,0,0,1,449.85,62.8Z"/><path class="empty" d="M412.6,15.3l11.87,16.17,9.64-19.28Z"/><path class="empty" d="M433.69,43c5.15.6,10.31,1.15,15.46,1.76a2.49,2.49,0,0,0,2.51-1.13Q455,39,458.24,34.36a2.13,2.13,0,0,0,.42-1.07V28.78l-29,9.79q1.5,2.08,3,4A1.68,1.68,0,0,0,433.69,43Z"/><path class="empty" d="M428.55,37.1a1.4,1.4,0,0,0,1.86.69l.09,0c8.46-2.9,16.94-5.75,25.41-8.61,2.86-1,2.89-1,2.75-4a1.6,1.6,0,0,0-.72-1.14c-7.69-3.91-15.41-7.77-23.16-11.67a1.79,1.79,0,0,0-.24.27c-3.13,6.25-6.27,12.5-9.36,18.77a1.48,1.48,0,0,0,.17,1.24C426.37,34.14,427.54,35.56,428.55,37.1Z"/><path class="empty" d="M455.24,71.06l-1.7-5.8c-.74.72-.92,3.25-.56,5.8Z"/><path class="empty" d="M504.65,60.07h2V23.19c0-2.83-1.83-5-4.53-5.07-6.27-.1-12.55,0-19,0V59.93c1.83.59,2,2.28,1,2.68-1.19.51-1.09,1.37-1.06,2.33v2a1.68,1.68,0,0,0,.33.95c1.6,1.78,1.6,3.24,0,5a.9.9,0,0,0-.28.49v3.84a.52.52,0,0,0,.2.4c1.42.49,1.74,1.44,1,2.75h8.17V66.81h-4a3.43,3.43,0,0,1-3.36-3.34A3.13,3.13,0,0,1,488,60.1h12a1.45,1.45,0,0,1,1.52,1.7c-.12,1.26-1.11,1.33-2,1.33H489.38a11.9,11.9,0,0,0-1.37.18c.37.26.46.38.55.38,1.12,0,2.24.05,3.35.06,2.63,0,3.69,1.08,3.7,3.73V80.35h6.47a7.47,7.47,0,0,1-.15-1V62.67a2.61,2.61,0,0,1,2.62-2.6Zm-5.52-4c-3.19-.16-6.39,0-9.59,0a3.82,3.82,0,0,1-3.76-3.81v-26a3.62,3.62,0,0,1,3.38-3.84h.2c3.4-.07,6.8,0,10.19,0a4.48,4.48,0,0,1,4,4.45V51.66A4.32,4.32,0,0,1,499.28,56h-.14Z"/><path class="empty" d="M494,80.23c.87,0,1-.65,1-1.34v-12a2.37,2.37,0,0,0-2.61-2.6c-1.24,0-2.48.06-3.71-.05-.38,0-.72-.55-1.08-.85a5,5,0,0,1,1-.77,2.9,2.9,0,0,1,1.07,0h9.83c.7,0,1.36-.13,1.39-1s-.58-1-1.3-1h-11a2.84,2.84,0,0,0-.34,5.67h.34c1,0,2.08.06,3.11,0s1.36.22,1.31,1.27c-.08,1.83,0,3.67,0,5.51v5.87C493,79.61,493.17,80.23,494,80.23Z"/><path class="empty" d="M479.23,51.49c.11-8.19.06-16.39,0-24.59a3.92,3.92,0,0,0-3.68-4c-3.24-.08-6.48-.09-9.71,0a3.34,3.34,0,0,0-3.36,3.32q0,.12,0,.25,0,6.42,0,12.83,0,6.18,0,12.35a3.54,3.54,0,0,0,3.79,3.84h8.88C477.93,55.51,479.2,53.87,479.23,51.49Z"/><path class="empty" d="M452.14,45.39c2.11.91,4.26,1.74,6.49,2.63V34.82c-2.38,3.35-4.59,6.44-6.76,9.58A1.06,1.06,0,0,0,452.14,45.39Z"/><path class="empty" d="M462.51,80.29h5.18V63.93h-.31Z"/><path class="empty" d="M453.62,77.39c1.13.47,2.32.8,3.79,1.29-.65-2.31-1.22-4.36-1.83-6.4a.8.8,0,0,0-.57-.46c-.69-.06-1.39,0-2.15,0v4.61A1.38,1.38,0,0,0,453.62,77.39Z"/><path class="empty" d="M468.17,79c0,.66.25,1.34,1,1.16a1.61,1.61,0,0,0,1-1.19c.07-5.28.06-10.55,0-15.83a2.6,2.6,0,0,0-2.2-2.61,2.52,2.52,0,0,0-2.85,1.83c-.17.45-.29.91-.42,1.37q-1.82,6.46-3.65,12.91c-.15.51-.39,1-.58,1.48H460a13.48,13.48,0,0,1-.56-1.37c-.59-2-1.16-4.06-1.74-6.1-.79-2.76-1.54-5.54-2.39-8.28a2.44,2.44,0,0,0-2.83-1.86,2.69,2.69,0,0,0-2.21,2.61V78.62c0,.28-.08.63.06.82s.61.72.93.73a1.35,1.35,0,0,0,.93-.7,2.62,2.62,0,0,0,.11-1.17q0-7.14,0-14.27a3.19,3.19,0,0,1,0-1,.93.93,0,0,1,.52-.53.9.9,0,0,1,.51.39,4.92,4.92,0,0,1,.35,1l3.74,13.26c.56,2,1.43,3,2.67,3s2.2-1,2.78-3c1.29-4.57,2.58-9.14,3.9-13.71a4.25,4.25,0,0,1,.72-1c.19.38.54.77.55,1.15V74C468.16,75.75,468.15,77.39,468.17,79Z"/><rect class="empty" x="475.14" y="73.79" width="7.26" height="3.79"/><rect class="empty" x="475.13" y="63.17" width="7.23" height="3.91"/><path class="empty" d="M458.44,70.92l.17-.07V63.69l-2.11.7Z"/><path class="empty" d="M478.9,80.22h3.72c.72,0,1.47,0,1.5-1s-.77-1-1.52-1h-6.84c-.84,0-1.27-.22-1.21-1.16a20.45,20.45,0,0,0,0-2.76c0-.87.33-1.1,1.13-1.08H481a2.86,2.86,0,0,0,3.18-2.84c0-1.68-1.28-2.82-3.19-2.85-1.64,0-3.28-.07-4.92,0-1.12.05-1.65-.24-1.5-1.45a9,9,0,0,0,0-2.16c-.14-1.17.4-1.42,1.45-1.4,2.28.06,4.56,0,6.84,0,.7,0,1.42-.19,1.26-1a1.61,1.61,0,0,0-1.2-1c-2.6-.09-5.2-.08-7.79,0a2.41,2.41,0,0,0-2.47,2.35q0,.1,0,.19v3c0,2.72.73,3.44,3.51,3.44h4.92c.73,0,1.36.28,1,1.14-.13.3-.78.52-1.2.53-1.92.06-3.84,0-5.76,0a2.33,2.33,0,0,0-2.45,2.51v3.72a2.49,2.49,0,0,0,2.69,2.69C476.5,80.25,477.7,80.22,478.9,80.22Z"/><path class="empty" d="M492.25,17.05c.5-1.37,1-2.76,1.51-4.44L484,17.39a75.5,75.5,0,0,0,7.65.2A.92.92,0,0,0,492.25,17.05Z"/><path class="empty" d="M450.36,45.48l-17.06-2L443.19,57Z"/><path class="fg" d="M587.61,82.65h-3a9.5,9.5,0,0,0,1.72-2.36,10,10,0,0,0,.21-3.21c-.09-3.24-.19-6.48-.36-9.71a155.51,155.51,0,0,0-5.07-32.14c-2.12-7.88-4.58-15.66-8.61-22.8a61.57,61.57,0,0,0-4.84-6.95,3.4,3.4,0,0,0-2.06-1c-3.94-.6-7.9-1.11-11.85-1.63A159.26,159.26,0,0,0,533.14,1c-244.15.06-286.3,0-530.44,0C1,1.05,1,1.05,1,2.71v82.2c0,2.35-.3,2,2,2h581.2c3.42,0,3.4,0,4.25-3.29C588.61,82.85,588.34,82.64,587.61,82.65ZM565.53,4.89c.61.29,1.2.39,1.5.74a32.67,32.67,0,0,1,3.26,4.12c4.56,7.41,7.44,15.54,9.78,23.86A163.15,163.15,0,0,1,586,77.54,5.78,5.78,0,0,1,585.8,80a4.89,4.89,0,0,1-2.06,2,6,6,0,0,1-2.42.07c.36-2.42.78-4.73,1-7.06a71.38,71.38,0,0,0-.38-15.79,134.19,134.19,0,0,0-7.63-30.66c-1.45-4-3.21-7.82-4.94-11.67-.84-1.86-1.92-3.62-4.24-4.27C565.28,10.12,565.4,7.65,565.53,4.89Zm15.09,74.62a.86.86,0,0,1,.47.66,12.9,12.9,0,0,1-.39,2.33c0,.18-.49.35-.75.36H577.2a1.19,1.19,0,0,1-.76-.23c-2.09-2.12-4.17-4.26-6.39-6.55a2.38,2.38,0,0,1-.77.67l5.61,6.07h-4.56l-1.43-5.9a2.37,2.37,0,0,1-.59.12c.49,1.9.9,3.82,1.36,5.78h-5.74l3.26-6a2.37,2.37,0,0,1-.48-.29.76.76,0,0,1,0,.08c-1,1.9-2,3.8-3.12,5.67a1.38,1.38,0,0,1-1,.56q-8.58,0-17.15,0a1.25,1.25,0,0,1-1-.47c-1.76-3.44-3.47-6.91-5.2-10.38v-.24l5.33.58v2.88a5.32,5.32,0,0,0,5,5.64h0a69.44,69.44,0,0,0,8.51,0,5.2,5.2,0,0,0,4.9-5.46v-1c1,.11,1.84.17,2.66.29h0v-.07a2.39,2.39,0,0,1,0-.48,2.09,2.09,0,0,1-.43,0L563,73.86V60h.13l2.14,7q.79,2.63,1.57,5.27a2.19,2.19,0,0,1,.06.33,2.35,2.35,0,0,1,.54-.2.91.91,0,0,1-.12-.23q-2.13-7-4.2-14a4.26,4.26,0,0,1-.19-1.17V32.49a2.77,2.77,0,0,1,.06-.62,27,27,0,0,1,2.69,1.38c.26.17.35.75.36,1.14V46.51a2.57,2.57,0,0,0,2.24,2.86l.17,0,6.81,1.78a1.58,1.58,0,0,0,2.2-1.68,8.07,8.07,0,0,0-.56-2.43c-1.1-3-2.25-5.89-3.38-8.83-.14-.36-.27-.73-.4-1.09l.19-.22c1.17.58,2.36,1.13,3.49,1.78a1.82,1.82,0,0,1,.67,1c.72,2.69,1.43,5.39,2.06,8.11a3.27,3.27,0,0,1-.19,2q-5.14,11.21-10.39,22.38a1.1,1.1,0,0,1-.16.15,2.37,2.37,0,0,1,1.07.67c3.81-4.2,7.63-8.39,11.7-12.85.63,6.54.87,12.72-.27,19l-10.9-3.9a2.35,2.35,0,0,1-.19.48c3.64,1.28,7.05,2.49,10.43,3.73ZM88.53,56.45q6.57,13,13.1,26a1.67,1.67,0,0,1,.05.37H68.78c.81-1.12,1.51-2.11,2.23-3.08.38-.51.85-1,1.19-1.49l14.33-22a1.35,1.35,0,0,1,.19-.23,2.38,2.38,0,0,1-.54-.35A1.83,1.83,0,0,1,86,56q-6.33,9.54-12.7,19a3.77,3.77,0,0,1-.43.4V57.76c0-3.23,0-3.23,3.24-3.23h9.3a2.36,2.36,0,0,1-.09-.63v-.09a1.72,1.72,0,0,1-.43.08c-3.6.07-7.2.07-10.8.14-.89,0-1.24-.3-1.23-1.16V33l.24-.09,6.71,10c2,3,4,6,6,9.1a1.45,1.45,0,0,1,.12.25,2.38,2.38,0,0,1,.58-.44h0Q79.88,41.89,73.29,32a3,3,0,0,1-.35-1.56V23c0-3.15-2.24-5.6-5.33-5.33-2.87.25-4.73-.56-6-3.2A37.78,37.78,0,0,0,58.71,10c2.23.39,4.18.72,6.13,1.08,4.63.84,9.27,1.68,13.89,2.58a2.34,2.34,0,0,1,1.32.82q5.79,7.78,11.48,15.63a2.17,2.17,0,0,1,.33,1.52c-1.32,6.63-2.68,13.25-4,19.86a2.36,2.36,0,0,1,.65.12l4.07-20.05c1.71,2.33,3.24,4.37,4.71,6.44a1.14,1.14,0,0,1,.08,1c-2.82,4.27-5.68,8.52-8.54,12.78a2.38,2.38,0,0,1,.5.34L98.06,39l5.29,7.2-13.5,6.58a2.35,2.35,0,0,1,.22.56,1.39,1.39,0,0,1,.25-.16l12.37-6c.74-.36,1.13-.34,1.65.39,3.41,4.72,6.87,9.4,10.32,14.1.24.33.44.7.66,1l-.26.29-9.28-3.1c-5.11-1.7-10.22-3.39-15.33-5.11a1.54,1.54,0,0,1-.41-.23,2.37,2.37,0,0,1-.33.73,1.37,1.37,0,0,1,.5,0c8.19,2.7,16.37,5.44,24.7,8.21l-5.62,13.72a7.14,7.14,0,0,0-.49,1.22c-.46,2.23-2,3.38-4,4.17-1.54.6-2.31.41-3-1.06Q95.47,69,89.17,56.5a1.86,1.86,0,0,1-.16-.58,2.36,2.36,0,0,1-.65.28A1.48,1.48,0,0,1,88.53,56.45Zm-38.44,24H49V18.07H67c3.47,0,5.43,2,5.43,5.42V75.08a5.18,5.18,0,0,1-4.93,5.42h-.43c-5.61-.11-11.27,0-17,0ZM63.48,81c-.25,1.87-.25,1.87-2.08,1.87H51.7c-1.76,0-1.76,0-2.32-1.87ZM57.16,9.8a73.19,73.19,0,0,0-5.46,4.93,8.94,8.94,0,0,1-7.83,2.93c-4.34-.27-8.71-.1-13.06,0a39.74,39.74,0,0,0-4,.4l-4-8.22ZM24.53,9H56.78v.12H24.53Zm35.81,8.49H56.13l1.8-7.14Zm-1.29-5.46.19-.09,3.68,5.53h-2Zm-3.49,5.48H49.28l7.8-6.92.2.1Zm-25.23.52H48.16V80.39a1.51,1.51,0,0,1-.37.11h-18c-2.93,0-4.87-2.16-4.87-5.24q0-18.29,0-36.59,0-7.56,0-15.12C24.92,20,26.87,18.07,30.33,18.07ZM26,79.39a4.53,4.53,0,0,0,3.87,1.55h3.73c-.61,1.73-.88,1.93-2.53,1.93H3L3,82.64l21-7.1A24.51,24.51,0,0,0,26,79.39ZM36,80.93H47c1.75,0,1.75,0,2.31,1.88H33.5C34,81.21,34.38,81,36,81Zm29.74,0h3.65a2.59,2.59,0,0,1-3.05,2l-.12,0a13.56,13.56,0,0,0-2.37,0c.11-1.88.22-2,1.89-2ZM58.78,9.39V9H69.32c1.6,0,3.2.11,4.79,0a2.86,2.86,0,0,1,3.09,1.61A29.06,29.06,0,0,0,79,13.08Zm49.37,72.17c2.44-6,4.86-12,7.36-17.94a1.87,1.87,0,0,0-.28-2.13Q96.34,35.81,77.52,10.12c-.23-.32-.45-.64-.82-1.18H405.64a2.87,2.87,0,0,1,2.65,1.32Q427.09,36,446,61.65a1.75,1.75,0,0,1,.25,2Q442.4,72.76,438.68,82c-.31.77-.7,1.08-1.5,1a3.74,3.74,0,0,0-.6,0h-329c.2-.63.37-1,.53-1.42ZM507.5,9.34l.18-.35h1.51l-.15.39a2.21,2.21,0,0,1,1.65.36c.44-.79,1.15-.8,3.24-.55l-2.56,1.2a2.37,2.37,0,0,1,.25.54l.07-.06a14.23,14.23,0,0,1,8.31-2c6.31.18,12.64,0,19,.08a38.44,38.44,0,0,1,5.1.6,1.39,1.39,0,0,1,.93.58c1.28,2.48,2.51,5,3.79,7.57-3.61,1.51-4,3.1-4.23,5.69a6.71,6.71,0,0,1-.77-.16q-16-5.35-32-10.73l-.13-.06a2.37,2.37,0,0,1-.26.56h0q16.08,5.39,32.2,10.72a1.17,1.17,0,0,1,1,1.32v0c0,1.72,0,3.44,0,5.15a1.5,1.5,0,0,1-.61,1.11c-6.57,3.36-13.17,6.67-19.9,10.06L519.43,32l-8.94-17.76a1.21,1.21,0,0,1-.1-.3,2.37,2.37,0,0,1-.62.17,1.68,1.68,0,0,1,.14.22q2.76,5.45,5.5,10.91L523,40.39c.18.35.34.71.56,1.18L507.16,47V23.82c0-2.12-.45-4-2.28-5.34,1-1.57,2-3.11,3.08-4.6l.13-.14a2.38,2.38,0,0,1-.55-.49,1.82,1.82,0,0,1-.27.61c-.92,1.4-1.86,2.79-2.63,3.94h-12c.63-1.88,1.1-3.4,1.68-4.88a1.24,1.24,0,0,1,.94-.61c3.72-.06,7.44-.06,11.16-.06a1.83,1.83,0,0,1,.68.11,2.36,2.36,0,0,1-.1-.64v-.14a1.79,1.79,0,0,1-.67.12h-6.82c-1.24,0-2.48-.09-3.71,0a1.44,1.44,0,0,1-1.8-1.34c-.09-.46-.26-.9-.44-1.5h6.89c1.71,0,3.44.1,5.14,0a1.74,1.74,0,0,1,1.9,1.35,2.39,2.39,0,0,1,.6-.55Zm64.5,25c-.83-2-1.54-4.09-2.35-6.12a2.5,2.5,0,0,0-.88-1.23,2.39,2.39,0,0,0-1.72-.32,1.81,1.81,0,0,0-.79,1.38c-.1,1.5,0,3,0,4.73-1-.49-1.93-.87-2.76-1.38a1.36,1.36,0,0,1-.35-1c0-2.24-.07-4.48,0-6.71,0-1.79-.18-3.43-1.83-4.67l5.1-5.42a9.19,9.19,0,0,1,1.36,1.6c.93,1.71,1.8,3.46,2.6,5.23A118.58,118.58,0,0,1,577,38.25a31.63,31.63,0,0,1-3.77-2A4.31,4.31,0,0,1,572,34.39Zm4.41,12.75a8.4,8.4,0,0,1,.58,2.3c.08,1.1-.59,1.57-1.66,1.29-2.27-.59-4.54-1.17-6.8-1.77a2.1,2.1,0,0,1-1.85-2.32V28.31c0-.43.37-1.23.54-1.22a2,2,0,0,1,1.5.59,22.51,22.51,0,0,1,1.58,3.47q3.09,8,6.09,16Zm-13.79,2.15h0v26a4.86,4.86,0,0,1-4.57,5.14h-7.71a6,6,0,0,1-4.78-2.58,2.65,2.65,0,0,1-.43-1.56V22.85a4.8,4.8,0,0,1,4.73-4.79q4.08-.15,8.16,0a4.76,4.76,0,0,1,4.6,4.91v.09q0,13.14,0,26.22ZM561.3,18.19c-.19.19-.69.14-1,.08a25.4,25.4,0,0,0-3.24-.62c-2.55-.09-5.11,0-7.71,0l-3.89-7.86,20.6,3.45C564.27,15.1,562.78,16.67,561.3,18.19Zm-18.81,40.9c-1.43,3.71-2.56,7.54-3.86,11.3a3,3,0,0,1-1.06,1.25c0-6.05-2.79-9.85-8.49-11.74l15.26-20.35.27,0c0,2.14-.13,4.29,0,6.41A29.63,29.63,0,0,1,542.49,59.09Zm2.07-4V71.82l-5.62-.61,5.42-16.14Zm-38.7,17.78a4.88,4.88,0,0,1,0,5.5c-.22.31-.5.58-1,1.14V63.23h1.85v5a1.71,1.71,0,0,1-.49.88,3.07,3.07,0,0,0-.36,3.75ZM506,70.3a2.71,2.71,0,0,1,2.75-1.74h2.88a2.31,2.31,0,0,0,2.24-2.38s0-.07,0-.1c.07-2.12-.52-3.28-2-3.36-2.47-.13-4.94,0-7.59,0V78.83c0,.7-.11,1.34-1,1.36s-1-.62-1-1.32V63a2.27,2.27,0,0,1,2.48-2.44h6.6c2.78.06,4.47,2,4.48,5s-1.66,4.91-4.44,5h-2a9,9,0,0,0-1.49.41,6.36,6.36,0,0,0,.84,1.2c2.18,1.94,4.39,3.85,6.59,5.77l.45.4c.51.45.82,1.07.21,1.51a1.69,1.69,0,0,1-1.52-.09,22.81,22.81,0,0,1-2.38-2L507,73.39a2.72,2.72,0,0,1-1-3.11Zm1.17-2.24v-4.9c1.58,0,3.13-.09,4.66,0,1.18.09,1.62,1.08,1.51,2.94A1.78,1.78,0,0,1,511.73,68h-.21c-1.39.06-2.74,0-4.31,0Zm-5.34,11.33a7.47,7.47,0,0,0,.15,1h-6.47V67.51c0-2.66-1.07-3.72-3.7-3.73-1.12,0-2.24,0-3.35-.06-.09,0-.18-.12-.55-.38a11.9,11.9,0,0,1,1.37-.18h10.08c.93,0,1.91-.07,2-1.33a1.45,1.45,0,0,0-1.52-1.7H488a3.13,3.13,0,0,0-2.95,3.3v.08a3.43,3.43,0,0,0,3.36,3.34h4.08V80.39h-8.17c.72-1.31.41-2.26-1-2.75-.1,0-.2-.26-.2-.4V73.4a.9.9,0,0,1,.28-.49c1.65-1.78,1.65-3.24,0-5a1.68,1.68,0,0,1-.33-.95V65c0-1-.13-1.82,1.06-2.33.94-.4.82-2.09-1-2.68V18.08c6.4,0,12.68-.07,19,0,2.7,0,4.52,2.24,4.53,5.07V60.07h-2a2.61,2.61,0,0,0-2.78,2.42q0,.1,0,.21C501.78,68.26,501.85,73.82,501.86,79.39ZM493,67.53c0-1-.35-1.33-1.31-1.27s-2.08,0-3.11,0a2.84,2.84,0,0,1-.34-5.67h11.34c.72,0,1.33.24,1.3,1s-.69,1-1.39,1h-9.85a2.9,2.9,0,0,0-1.07,0,5,5,0,0,0-1,.77c.36.3.7.81,1.08.85,1.23.11,2.47,0,3.71.05a2.37,2.37,0,0,1,2.61,2.6v12c0,.7-.1,1.34-1,1.34s-1-.62-1-1.33V73.05c0-2-.06-3.66,0-5.53Zm-26-7.45a2.92,2.92,0,0,0-2.51,2.4c-1.18,4-2.32,8-3.48,12a10.21,10.21,0,0,1-1.09,2.7,26.41,26.41,0,0,1-.79-4.52c-.06-16.35,0-32.71,0-49.06,0-3.7,1.9-5.58,5.63-5.58h17.57v42h-7a2.88,2.88,0,0,0-3.23,3.13V67A3,3,0,0,0,475,70.15h6.47v.33a4.49,4.49,0,0,1-.78.14h-5.28A3.08,3.08,0,0,0,472.09,74v2.52a4.41,4.41,0,0,0,1.31,3.9h-3a9.52,9.52,0,0,0,.26-1.58V63.34a3,3,0,0,0-3.6-3.27Zm1.07,3.61c0-.39-.36-.77-.55-1.15a3.3,3.3,0,0,0-.72,1c-1.32,4.56-2.61,9.13-3.9,13.71-.58,2-1.5,3-2.78,3s-2.11-1-2.67-3L453.78,64a4.92,4.92,0,0,0-.35-1c-.1-.18-.4-.43-.51-.39a.93.93,0,0,0-.52.53,3.19,3.19,0,0,0,0,1V78.37a2.62,2.62,0,0,1-.11,1.17,1.35,1.35,0,0,1-.93.7c-.32,0-.7-.41-.93-.73s-.06-.54-.06-.82q0-7.56,0-15.11v-.36a2.69,2.69,0,0,1,2.21-2.61,2.44,2.44,0,0,1,2.77,1.78c.85,2.74,1.6,5.52,2.39,8.28.58,2,1.14,4.07,1.74,6.1a13.48,13.48,0,0,0,.56,1.37h.43c.2-.49.43-1,.58-1.48q1.84-6.45,3.65-12.91c.13-.46.25-.92.42-1.37A2.52,2.52,0,0,1,468,60.53a2.6,2.6,0,0,1,2.2,2.61V79a1.61,1.61,0,0,1-1,1.19c-.75.18-1-.5-1-1.16V74.08c0-3.44,0-6.92,0-10.4Zm-.43.25V80.29H462.5l4.88-16.4Zm-14.83,7.85H455a.8.8,0,0,1,.57.46c.61,2,1.18,4.09,1.83,6.4-1.47-.49-2.65-.82-3.79-1.29a1.38,1.38,0,0,1-.72-1c-.11-1.45,0-2.92,0-4.59Zm.68-6.51,1.7,5.8H453c-.35-2.57-.2-5.09.56-5.82Zm-4,.73c-.48.64-1.71.71-2.62,1-.49.17-1,.32-1.76.56.59-1.47,1.06-2.79,1.65-4.05a1.61,1.61,0,0,0-.21-1.93c-1-1.31-2-2.69-3-4.07,2.27-3.65,4.5-7.3,6.83-10.88a1.88,1.88,0,0,1,1.69-.53c2,.68,4,1.53,6,2.37a1.15,1.15,0,0,1,.57.85q.06,6.54,0,13.07a1.2,1.2,0,0,1-.58.84,9.77,9.77,0,0,1-1.64.57,19,19,0,0,0-.78-2,3,3,0,0,0-5.82,1v.36c-.08,1,.14,2.17-.35,2.82Zm-5.61,5.08c.14-1.92.77-2.76,2.5-3.34l3-1a1.58,1.58,0,0,1,.41,0v4.31Zm5.84.69v4.33l-7-2.34c.5-2,.5-2,2.41-2ZM425.17,31.39c3.09-6.27,6.23-12.52,9.36-18.77a1.79,1.79,0,0,1,.24-.27c7.76,3.9,15.47,7.76,23.16,11.67a1.6,1.6,0,0,1,.72,1.14c.14,3,.12,3-2.75,4-8.47,2.86-17,5.71-25.41,8.61a1.4,1.4,0,0,1-1.9-.55l0-.09c-1-1.53-2.18-3-3.22-4.48A1.48,1.48,0,0,1,425.17,31.39Zm-.7.1L412.6,15.3l21.51-3.11Zm34.22-2.69v4.51a2.13,2.13,0,0,1-.42,1.07Q455,39,451.69,43.67a2.49,2.49,0,0,1-2.51,1.13c-5.15-.61-10.31-1.16-15.46-1.76a1.68,1.68,0,0,1-1-.44c-1-1.27-2-2.61-3-4Zm-.06,6V48c-2.23-.89-4.37-1.72-6.49-2.63a1.06,1.06,0,0,1-.27-1c2.16-3.11,4.38-6.2,6.76-9.55Zm-8.27,10.66L443.18,57l-9.89-13.49Zm8.26,18.21v7.17l-.17.07-2-6.52Zm14,13.84V73.79a2.33,2.33,0,0,1,2.14-2.51h6.07a1.54,1.54,0,0,0,1.2-.53c.38-.86-.25-1.13-1-1.14h-4.92c-2.78,0-3.51-.72-3.51-3.44v-3a2.41,2.41,0,0,1,2.28-2.54h.19c2.6,0,5.2-.06,7.79,0a1.61,1.61,0,0,1,1.2,1c.16.83-.56,1-1.26,1H476c-1,0-1.59.23-1.45,1.4a9,9,0,0,1,0,2.16c-.15,1.21.39,1.51,1.5,1.45,1.64-.08,3.28,0,4.92,0a2.89,2.89,0,0,1,3.19,2.85c0,1.67-1.26,2.82-3.18,2.84h-5.28c-.8,0-1.19.21-1.13,1.08a20.45,20.45,0,0,1,0,2.76c-.07.94.37,1.17,1.21,1.16h6.84c.75,0,1.56,0,1.52,1s-.78,1-1.5,1h-7.32a2.49,2.49,0,0,1-2.67-2.75Zm9.75-14.36v3.91h-7.23V63.17Zm0,10.63v3.79h-7.26V73.79ZM484,17.39l9.83-4.78c-.56,1.68-1,3.07-1.51,4.44a.92.92,0,0,1-.65.52A75.5,75.5,0,0,1,484,17.39ZM507.19,48.5a1.37,1.37,0,0,1,.59-1.11c5.13-1.75,10.29-3.43,15.71-5.22L516.3,63.5c-1.23-2.4-2.85-3.72-5.48-3.47-1.18.11-2.38,0-3.68,0v-5.8c0-1.92,0-3.84,0-5.75Zm6.66,22.33-1.35,4-4-3.64Zm1.39,6.31c-2.28-1.45-2.39-1.69-1.51-4.17.51-1.44.75-3,2-4.16a2.35,2.35,0,0,0,.58-1.53c.07-3.24,1.48-6.11,2.45-9.09,1.66-5.12,3.43-10.22,5.19-15.31a2.32,2.32,0,0,1,1-1.24q9.54-4.89,19.11-9.7c.14-.07.29-.11.63-.25v6.36a2.09,2.09,0,0,1-.51,1l-14.94,20a1.8,1.8,0,0,1-1.78.85C519.39,59.37,514.58,67.69,517,74a2.06,2.06,0,0,1-.23,1.47,11.9,11.9,0,0,1-1.2,1.65,3,3,0,0,1-.36,0Zm1.54-6.75a10,10,0,1,1,10,10.1A10.05,10.05,0,0,1,516.78,70.39ZM494,11.9c-3.08,1.49-6.17,2.9-9.17,4.49a10.8,10.8,0,0,1-5.5,1.24c-4.15-.09-8.31,0-12.67,0L468.78,9h22.53c1.23,0,2,.24,2.15,1.53A9.83,9.83,0,0,0,494,11.9Zm-27.87,5.63-4,.21L459.78,9h8.46Zm-4.73,0a1,1,0,0,1-.22.81c-.76.84-1.56,1.64-2.28,2.38L447,9h12.21c.73,2.87,1.48,5.72,2.18,8.58Zm-3.69,3.1a2.56,2.56,0,0,1,.89,2.92l-1.25-.61c-6.86-3.43-13.68-6.93-20.58-10.27a5.64,5.64,0,0,1-3.2-3.77H445a2.62,2.62,0,0,1,1.64.69c3.69,3.72,7.32,7.44,11,11.08Zm-23.53-9c-.88.15-1.64.31-2.4.42q-9.34,1.3-18.68,2.57a1.43,1.43,0,0,1-1.13-.32c-1.31-1.69-2.55-3.44-4-5.37h24.14a1.45,1.45,0,0,1,1,.61,18.32,18.32,0,0,1,1.07,2.11Zm7.26,65c.94-2.31.94-2.31,3.27-1.54,1.44.48,2.87,1,4.33,1.41.66.19.92.51.85,1.19a6.43,6.43,0,0,0,0,1.56c.11.76.3,1.47,1.34,1.49a1.45,1.45,0,0,0,1.59-1.29v-.06a15.57,15.57,0,0,0,.12-1.56c2,.95,4.24.9,5.84,2.51a2.39,2.39,0,0,0,1.1.36l7.5,1.69-.09.39H438.87Zm23.27,4.3c3,0,5.58-.11,8.19.07.75.05,1.43,1,2.35,1.67-3.85.72-7.08-.17-10.54-1.72Zm9.64,0c5.92,0,11.63-.13,17.33.08A14.58,14.58,0,0,1,497,82.86h-1.11c-6,0-12.06-.07-18.08,0A3.88,3.88,0,0,1,474.29,81Zm20.2,0c2.8,0,5.61-.11,8.4.08.71,0,1.36,1,2.17,1.71a16.58,16.58,0,0,1-10.58-1.79ZM505,82c-.37-.36-.77-.69-1.27-1.12,2.56-1.53,3.8-3.6,3.3-6.76,1.54,1.32,2.82,2.38,4,3.5a1.1,1.1,0,0,1,.13.93c-.36,1.22-.78,2.43-1.2,3.64a1.21,1.21,0,0,1-.44.66c-.85.46-3.78-.13-4.53-.85Zm6.85-3.53,1.65,1.26c-.93,1.15-1.55,2.47-2.73,3.29l-.38-.28Zm1.89,1.82c1,.46,2,1,2.75-.09s0-1.8-.8-2.49l1.59-2.12,4,4.22c-3,1-5.46,3.78-9.36,3Zm8.21-.1a1.14,1.14,0,0,1,.76.06A10.75,10.75,0,0,0,537.13,73c.13-.45.6-.79,1.12-1.43l5.64,11.17H516.78c1.93-1,3.58-1.8,5.26-2.61Zm57.72-30h.37c.44,3,.89,6,1.31,8.94a1.2,1.2,0,0,1-.29.85c-3.86,4.26-7.75,8.51-11.82,12.65ZM1.46,1.51H539.14a69.1,69.1,0,0,1,8.77,1c3.26.42,6.52.89,9.77,1.34l7.34,1c-.1,2.54-.24,5-.34,7.54-2-.31-3.81-.59-5.65-.89-4.21-.7-8.45-1.25-12.62-2.15a61,61,0,0,0-13-.9H1.46ZM21.66,9.3v.31L1.46,22.14V9H20.07A8,8,0,0,1,21.66,9.3ZM2.78,21.93c6.49-3.94,12.92-8,19.5-12,1.37,2.8,2.72,5.55,4,8.32a.92.92,0,0,1-.23.79,5.81,5.81,0,0,0-1.64,4.47c.06,2,0,3.91,0,6L1.52,24.78C1.07,23.39,1.62,22.63,2.78,21.93ZM24.39,30V50a10.38,10.38,0,0,1-1-1Q12.78,38.46,2.27,27.9a2.34,2.34,0,0,1-.74-2.57ZM1.6,28.08c.23.21.46.41.68.63Q13,39.45,23.65,50.22a3,3,0,0,1,.76,1.85c.09,2.38,0,4.77,0,7.35-1.63-.84-3.15-1.59-4.63-2.35-2.07-1-4.51-1.71-6.08-3.26s-2.19-3.93-3.21-6c-2.85-5.67-5.7-11.34-8.5-17a14.72,14.72,0,0,1-.74-2.56ZM1.48,55.52v-24l.16-.08L12.88,54Zm11.33-1L1.63,76.82l-.19-.08V56ZM2.17,76.9c3.59-7,7-14,10.54-21,.21-.42.44-.84.72-1.36C16.94,56.3,20.34,58,23.7,59.72a1.57,1.57,0,0,1,.72,1.14c0,4.36,0,8.71,0,13.07a1,1,0,0,1-.77,1.12L1.91,82.39a2.71,2.71,0,0,1-.48.05C1.47,80.56,1.21,78.75,2.17,76.9Zm585,9a1.17,1.17,0,0,1-.74.55,4.08,4.08,0,0,1-1.07,0H1.45V83.32H588a21.84,21.84,0,0,1-.77,2.59Z"/><path class="fg" d="M246.49,81h37c3.67,0,5.76-2.11,5.76-5.82V23.42c0-3.71-2.09-5.82-5.76-5.82h-37c-3.66,0-5.76,2.12-5.76,5.82v51.7C240.78,78.83,242.78,81,246.49,81Zm19.29-62.83c.39,0,.77,0,1.16,0h16.43c3.46,0,5.4,2,5.41,5.44V75c0,3.56-1.93,5.49-5.47,5.5H265.78Zm-24.53,5.36c0-3.46,2-5.41,5.44-5.41H265V80.48H246.64c-3.48,0-5.44-2-5.44-5.41V23.48Z"/><path class="fg" d="M375.15,56.23c5.67.11,11.35,0,17,0h16.92a5.16,5.16,0,0,0,5.41-4.68c.13-1.39.21-2.78.21-4.18V27.58a7.39,7.39,0,0,0-.81-3.17c-1-2-2.94-2.7-5.1-2.69-6.35,0-12.7.12-19.06.15h-14.4a5.15,5.15,0,0,0-5.45,5.52V50.66C369.87,54,371.78,56.17,375.15,56.23Zm-4.8-28.44c0-3.47,2-5.41,5.43-5.41l32.62-.07c3.89,0,5.72,1.83,5.72,5.73V46.51c0,1.52,0,3-.11,4.55a4.83,4.83,0,0,1-5,4.7H376c-3.81,0-5.66-1.87-5.66-5.67Q370.35,39,370.35,27.79Z"/><path class="fg" d="M121.78,56.3h33.58c3.56,0,5.63-2.16,5.63-5.71V27.68c0-3.74-2-5.79-5.76-5.8H121.89a5.31,5.31,0,0,0-5.7,5.69v23a5.31,5.31,0,0,0,5.59,5.73Zm-5-28.77A4.81,4.81,0,0,1,122,22.39h33.35a4.84,4.84,0,0,1,5.22,5.23V50.53c0,3.31-1.95,5.25-5.3,5.26H122a4.82,4.82,0,0,1-5.21-5.22Q116.78,39,116.78,27.53Z"/><path class="fg" d="M179.53,56.25h33.11c3.69,0,5.78-2.09,5.78-5.79V27.67c0-3.69-2.09-5.78-5.79-5.78h-33.1c-3.69,0-5.78,2.09-5.78,5.79q0,11.4,0,22.79C173.78,54.16,175.84,56.25,179.53,56.25Zm-5.3-28.45c0-3.47,1.94-5.41,5.42-5.42h32.86c3.47,0,5.42,1.94,5.42,5.42q0,11.27,0,22.55c0,3.47-1.95,5.41-5.42,5.42H179.65c-3.48,0-5.42-1.94-5.42-5.42Z"/><path class="fg" d="M318.25,56.25h33.11c3.7,0,5.79-2.09,5.79-5.78V27.68c0-3.69-2.09-5.78-5.78-5.79H318.25c-3.7,0-5.79,2.09-5.79,5.78V50.46C312.47,54.16,314.56,56.25,318.25,56.25ZM313,27.64c0-3.25,2-5.26,5.21-5.26h33.22a4.87,4.87,0,0,1,5.27,5.21V50.5c0,3.3-2,5.26-5.33,5.26h-33c-3.41,0-5.38-2-5.39-5.33q0-11.39,0-22.78Z"/><path class="fg" d="M69.29,51.71V26.88a4.28,4.28,0,0,0-3.93-4.49q-5.16-.12-10.32,0a3.6,3.6,0,0,0-3.47,3.72v0q0,6.54,0,13.08t0,13A3.81,3.81,0,0,0,55.28,56c3.24,0,6.48-.1,9.71,0A4.32,4.32,0,0,0,69.29,51.71Zm-4.51,3.8H55.43A3.46,3.46,0,0,1,52.05,52V26.49a3.31,3.31,0,0,1,3-3.56h.28c3.23-.09,6.48-.09,9.71,0a4,4,0,0,1,3.67,4q0,12.39,0,24.8a3.7,3.7,0,0,1-3.6,3.8Z"/><path class="fg" d="M32,56c3.08,0,6.16-.1,9.23,0a4.2,4.2,0,0,0,4.33-4.07q0-.08,0-.16.06-12.59,0-25.18a4.33,4.33,0,0,0-3.83-4.19H31.39A3.62,3.62,0,0,0,27.77,26q0,.11,0,.22V51.89A3.9,3.9,0,0,0,32,56ZM28.28,26.48a3.34,3.34,0,0,1,3.11-3.55h.24c3.23-.09,6.48-.08,9.71,0a3.92,3.92,0,0,1,3.68,4c0,8.2.08,16.39,0,24.59,0,2.37-1.3,4-4,4H32.1a3.54,3.54,0,0,1-3.78-3.85V39.19Q28.32,33,28.28,26.48Z"/><path class="fg" d="M556.11,22.88H552a3.23,3.23,0,0,0-3.35,3.1q0,.15,0,.31V46a3.32,3.32,0,0,0,3.07,3.55h4.4a3.33,3.33,0,0,0,3.37-3.29s0-.09,0-.14V26.3a3.28,3.28,0,0,0-3.13-3.42Zm2.89,23A2.88,2.88,0,0,1,556.37,49h-.28q-2,.09-4.08,0a2.82,2.82,0,0,1-2.87-2.77q0-.11,0-.23V26.32a2.76,2.76,0,0,1,2.51-3h4.46A2.81,2.81,0,0,1,559,26.05q0,.13,0,.27,0,9.81,0,19.59Z"/><path class="fg" d="M503.53,51.69V26.87a4.48,4.48,0,0,0-4-4.45c-3.4,0-6.8-.06-10.19,0a3.62,3.62,0,0,0-3.57,3.67s0,.1,0,.15v26A3.82,3.82,0,0,0,489.52,56c3.2,0,6.4-.12,9.59,0a4.32,4.32,0,0,0,4.42-4.22S503.53,51.72,503.53,51.69ZM499,55.5h-9.47a3.45,3.45,0,0,1-3.25-3.36V26.49a3.31,3.31,0,0,1,3-3.56h.28q4.85-.14,9.71,0a3.87,3.87,0,0,1,3.67,4q.06,12.41,0,24.82a3.7,3.7,0,0,1-3.62,3.78H499Z"/><path class="fg" d="M475.45,56a4.21,4.21,0,0,0,4.33-4.09q0-.08,0-.15.06-12.59,0-25.18a4.33,4.33,0,0,0-3.85-4.21c-3.44-.06-6.87-.07-10.31,0A3.62,3.62,0,0,0,462,26.06s0,.1,0,.15V51.9a3.9,3.9,0,0,0,3.7,4.09h.47C469.29,56,472.37,55.89,475.45,56Zm-12.92-4.35V26.49a3.34,3.34,0,0,1,3.1-3.56h.25c3.24-.09,6.48-.08,9.71,0a3.92,3.92,0,0,1,3.68,4c0,8.2.08,16.39,0,24.59a3.65,3.65,0,0,1-4,4H466.4a3.54,3.54,0,0,1-3.88-3.84Z"/><path class="fg" d="M526.85,78.48a8.07,8.07,0,1,0-8.07-8.09A8.07,8.07,0,0,0,526.85,78.48Zm0-.74,5.85-3c-.4,1.72-3.48,3.36-5.83,3ZM526.09,63l-6.53,8.7A7.24,7.24,0,0,1,526.11,63Zm-5,7.65c1.74-2.33,3.51-4.65,5.23-7a1.58,1.58,0,0,1,1.61-.72c3.49.29,6.58,3.82,6.53,7.51,0,1.88-.52,3.34-2.53,4.1s-3.85,1.92-5.82,2.79a2.81,2.81,0,0,1-2,.06,8.62,8.62,0,0,1-2.58-1.66c-2.07-1.94-2.11-2.88-.46-5.08Z"/><path class="fg" d="M248.72,56c3.08,0,6.16-.1,9.23,0a4.2,4.2,0,0,0,4.33-4.07q0-.08,0-.16.06-12.59,0-25.18a4.34,4.34,0,0,0-3.82-4.19c-3.44-.06-6.87-.07-10.31,0A3.62,3.62,0,0,0,244.57,26s0,.1,0,.14V51.9a3.9,3.9,0,0,0,3.7,4.09ZM245,26.5a3.34,3.34,0,0,1,3.09-3.57h.24q4.91-.13,9.83,0a4,4,0,0,1,3.58,4.21V51.24a3.92,3.92,0,0,1-2,3.82,5.19,5.19,0,0,1-2.14.43h-8.76a3.54,3.54,0,0,1-3.8-3.83q0-12.57,0-25.16Z"/><path class="fg" d="M281.72,56a4.29,4.29,0,0,0,4.33-4.25v-25a4.42,4.42,0,0,0-3.92-4.42H271.78a3.6,3.6,0,0,0-3.49,3.71V52.28A3.83,3.83,0,0,0,272,55.94C275.24,56,278.49,55.88,281.72,56Zm-9.67-.52a3.44,3.44,0,0,1-3.27-3.36V26.48a3.27,3.27,0,0,1,3-3.53H272c3.31-.11,6.64-.12,10,0a3.89,3.89,0,0,1,3.55,4.1V51.5a3.89,3.89,0,0,1-3.78,4h-.11c-3.16,0-6.36,0-9.56,0Z"/><path class="fg" d="M89.72,55.25a2.39,2.39,0,0,0-1.94-3.72h0a2.39,2.39,0,0,0-2.38,2.29v.09a2.36,2.36,0,0,0,4.32,1.34Z"/><path class="fg" d="M570.53,74.66a2.37,2.37,0,1,0-4.72,0v.07A2.39,2.39,0,0,0,568.19,77h.16a2.42,2.42,0,0,0,2.22-2.37Z"/><path class="fg" d="M507.5,10.27a2.36,2.36,0,0,0-.5,1.32v.14a2.41,2.41,0,0,0,3.34,2.18,2.32,2.32,0,0,0,1.31-1.45,2.43,2.43,0,0,0-.26-2,2.36,2.36,0,0,0-3.87-.16Z"/></svg>